G04 EAGLE Gerber RS-274X export*
G75*
%MOMM*%
%FSLAX34Y34*%
%LPD*%
%INTop Copper*%
%IPPOS*%
%AMOC8*
5,1,8,0,0,1.08239X$1,22.5*%
G01*
%ADD10C,1.524000*%
%ADD11P,1.429621X8X22.500000*%
%ADD12P,1.732040X8X292.500000*%
%ADD13C,1.600200*%
%ADD14P,1.429621X8X202.500000*%
%ADD15P,1.539592X8X202.500000*%
%ADD16C,1.879600*%
%ADD17P,1.429621X8X292.500000*%
%ADD18C,0.406400*%

G36*
X502724Y12207D02*
X502724Y12207D01*
X502815Y12215D01*
X502845Y12227D01*
X502877Y12232D01*
X502958Y12275D01*
X503042Y12311D01*
X503074Y12337D01*
X503094Y12348D01*
X503117Y12371D01*
X503173Y12416D01*
X520984Y30227D01*
X521037Y30301D01*
X521097Y30371D01*
X521109Y30401D01*
X521128Y30427D01*
X521155Y30514D01*
X521189Y30599D01*
X521193Y30640D01*
X521200Y30662D01*
X521199Y30694D01*
X521207Y30766D01*
X521207Y314897D01*
X521197Y314960D01*
X521197Y315024D01*
X521177Y315081D01*
X521168Y315140D01*
X521138Y315196D01*
X521117Y315257D01*
X521080Y315304D01*
X521052Y315357D01*
X521006Y315401D01*
X520967Y315452D01*
X520918Y315485D01*
X520874Y315527D01*
X520816Y315554D01*
X520763Y315589D01*
X520705Y315605D01*
X520651Y315630D01*
X520587Y315637D01*
X520526Y315654D01*
X520466Y315651D01*
X520407Y315657D01*
X520344Y315644D01*
X520280Y315640D01*
X520225Y315618D01*
X520166Y315605D01*
X520111Y315572D01*
X520052Y315549D01*
X520007Y315510D01*
X519955Y315479D01*
X519914Y315430D01*
X519865Y315389D01*
X519834Y315338D01*
X519795Y315292D01*
X519771Y315233D01*
X519738Y315178D01*
X519716Y315095D01*
X519703Y315064D01*
X519701Y315040D01*
X519694Y315016D01*
X519645Y314704D01*
X519064Y312917D01*
X518211Y311243D01*
X517106Y309722D01*
X515778Y308394D01*
X514257Y307289D01*
X512583Y306436D01*
X510796Y305855D01*
X509523Y305654D01*
X509523Y316738D01*
X509520Y316758D01*
X509522Y316777D01*
X509500Y316879D01*
X509483Y316981D01*
X509474Y316998D01*
X509470Y317018D01*
X509417Y317107D01*
X509368Y317198D01*
X509354Y317212D01*
X509344Y317229D01*
X509265Y317296D01*
X509190Y317367D01*
X509172Y317376D01*
X509157Y317389D01*
X509061Y317427D01*
X508967Y317471D01*
X508947Y317473D01*
X508929Y317481D01*
X508762Y317499D01*
X507999Y317499D01*
X507999Y317501D01*
X508762Y317501D01*
X508782Y317504D01*
X508801Y317502D01*
X508903Y317524D01*
X509005Y317541D01*
X509022Y317550D01*
X509042Y317554D01*
X509131Y317607D01*
X509222Y317656D01*
X509236Y317670D01*
X509253Y317680D01*
X509320Y317759D01*
X509391Y317834D01*
X509400Y317852D01*
X509413Y317867D01*
X509452Y317963D01*
X509495Y318057D01*
X509497Y318077D01*
X509505Y318095D01*
X509523Y318262D01*
X509523Y329346D01*
X510796Y329145D01*
X512583Y328564D01*
X514257Y327711D01*
X515778Y326606D01*
X517106Y325278D01*
X518211Y323757D01*
X519064Y322083D01*
X519645Y320296D01*
X519694Y319984D01*
X519714Y319923D01*
X519725Y319860D01*
X519753Y319807D01*
X519771Y319750D01*
X519810Y319699D01*
X519840Y319643D01*
X519883Y319601D01*
X519919Y319554D01*
X519972Y319517D01*
X520018Y319473D01*
X520072Y319448D01*
X520122Y319414D01*
X520183Y319397D01*
X520241Y319370D01*
X520301Y319363D01*
X520358Y319347D01*
X520422Y319350D01*
X520485Y319343D01*
X520544Y319355D01*
X520604Y319358D01*
X520663Y319381D01*
X520726Y319395D01*
X520777Y319426D01*
X520833Y319447D01*
X520882Y319488D01*
X520937Y319521D01*
X520976Y319567D01*
X521022Y319605D01*
X521055Y319659D01*
X521097Y319708D01*
X521119Y319764D01*
X521151Y319815D01*
X521165Y319877D01*
X521189Y319936D01*
X521198Y320022D01*
X521206Y320054D01*
X521205Y320078D01*
X521207Y320103D01*
X521207Y340297D01*
X521204Y340315D01*
X521206Y340331D01*
X521197Y340374D01*
X521197Y340424D01*
X521177Y340481D01*
X521168Y340540D01*
X521156Y340561D01*
X521154Y340571D01*
X521136Y340602D01*
X521117Y340657D01*
X521080Y340704D01*
X521052Y340757D01*
X521030Y340779D01*
X521028Y340782D01*
X521010Y340798D01*
X521006Y340801D01*
X520967Y340852D01*
X520918Y340885D01*
X520874Y340927D01*
X520841Y340942D01*
X520838Y340944D01*
X520816Y340954D01*
X520763Y340989D01*
X520705Y341005D01*
X520651Y341030D01*
X520587Y341037D01*
X520526Y341054D01*
X520466Y341051D01*
X520407Y341057D01*
X520344Y341044D01*
X520280Y341040D01*
X520225Y341018D01*
X520166Y341005D01*
X520111Y340972D01*
X520052Y340949D01*
X520007Y340910D01*
X520001Y340906D01*
X519985Y340898D01*
X519983Y340895D01*
X519955Y340879D01*
X519914Y340830D01*
X519865Y340789D01*
X519836Y340742D01*
X519816Y340720D01*
X519812Y340712D01*
X519795Y340692D01*
X519771Y340633D01*
X519738Y340578D01*
X519722Y340518D01*
X519712Y340496D01*
X519710Y340482D01*
X519703Y340464D01*
X519701Y340440D01*
X519694Y340416D01*
X519645Y340104D01*
X519064Y338317D01*
X518211Y336643D01*
X517106Y335122D01*
X515778Y333794D01*
X514257Y332689D01*
X512583Y331836D01*
X510796Y331255D01*
X509523Y331054D01*
X509523Y342138D01*
X509520Y342158D01*
X509522Y342177D01*
X509500Y342279D01*
X509483Y342381D01*
X509474Y342398D01*
X509470Y342418D01*
X509417Y342507D01*
X509368Y342598D01*
X509354Y342612D01*
X509344Y342629D01*
X509265Y342696D01*
X509190Y342767D01*
X509172Y342776D01*
X509157Y342789D01*
X509061Y342827D01*
X508967Y342871D01*
X508947Y342873D01*
X508929Y342881D01*
X508762Y342899D01*
X507999Y342899D01*
X507999Y342901D01*
X508762Y342901D01*
X508782Y342904D01*
X508801Y342902D01*
X508903Y342924D01*
X509005Y342941D01*
X509022Y342950D01*
X509042Y342954D01*
X509131Y343007D01*
X509222Y343056D01*
X509236Y343070D01*
X509253Y343080D01*
X509320Y343159D01*
X509391Y343234D01*
X509400Y343252D01*
X509413Y343267D01*
X509452Y343363D01*
X509495Y343457D01*
X509497Y343477D01*
X509505Y343495D01*
X509523Y343662D01*
X509523Y354746D01*
X510796Y354545D01*
X512583Y353964D01*
X514257Y353111D01*
X515778Y352006D01*
X517106Y350678D01*
X518211Y349157D01*
X519064Y347483D01*
X519645Y345696D01*
X519694Y345384D01*
X519714Y345323D01*
X519725Y345260D01*
X519753Y345207D01*
X519771Y345150D01*
X519810Y345099D01*
X519840Y345043D01*
X519883Y345001D01*
X519919Y344954D01*
X519972Y344917D01*
X520018Y344873D01*
X520072Y344848D01*
X520122Y344814D01*
X520183Y344797D01*
X520241Y344770D01*
X520301Y344763D01*
X520358Y344747D01*
X520422Y344750D01*
X520485Y344743D01*
X520544Y344755D01*
X520604Y344758D01*
X520663Y344781D01*
X520726Y344795D01*
X520777Y344826D01*
X520833Y344847D01*
X520882Y344888D01*
X520937Y344921D01*
X520976Y344967D01*
X521022Y345005D01*
X521055Y345059D01*
X521097Y345108D01*
X521119Y345164D01*
X521151Y345215D01*
X521165Y345277D01*
X521189Y345336D01*
X521198Y345422D01*
X521206Y345454D01*
X521205Y345478D01*
X521207Y345503D01*
X521207Y558546D01*
X521204Y558566D01*
X521206Y558585D01*
X521184Y558687D01*
X521168Y558789D01*
X521158Y558806D01*
X521154Y558826D01*
X521101Y558915D01*
X521052Y559006D01*
X521038Y559020D01*
X521028Y559037D01*
X520949Y559104D01*
X520874Y559176D01*
X520856Y559184D01*
X520841Y559197D01*
X520745Y559236D01*
X520651Y559279D01*
X520631Y559281D01*
X520613Y559289D01*
X520446Y559307D01*
X18066Y559307D01*
X17976Y559293D01*
X17885Y559285D01*
X17855Y559273D01*
X17823Y559268D01*
X17742Y559225D01*
X17658Y559189D01*
X17626Y559163D01*
X17606Y559152D01*
X17583Y559129D01*
X17527Y559084D01*
X12416Y553973D01*
X12373Y553913D01*
X12332Y553870D01*
X12325Y553854D01*
X12303Y553829D01*
X12291Y553799D01*
X12272Y553773D01*
X12245Y553686D01*
X12239Y553670D01*
X12228Y553646D01*
X12228Y553641D01*
X12211Y553601D01*
X12207Y553560D01*
X12200Y553538D01*
X12201Y553506D01*
X12193Y553434D01*
X12193Y180403D01*
X12194Y180394D01*
X12194Y180390D01*
X12198Y180368D01*
X12203Y180340D01*
X12203Y180276D01*
X12223Y180219D01*
X12232Y180160D01*
X12262Y180104D01*
X12283Y180043D01*
X12320Y179996D01*
X12348Y179943D01*
X12394Y179899D01*
X12433Y179848D01*
X12483Y179815D01*
X12526Y179773D01*
X12584Y179746D01*
X12637Y179711D01*
X12695Y179695D01*
X12749Y179670D01*
X12812Y179663D01*
X12874Y179646D01*
X12934Y179649D01*
X12993Y179643D01*
X13056Y179656D01*
X13120Y179660D01*
X13175Y179682D01*
X13234Y179695D01*
X13289Y179728D01*
X13348Y179751D01*
X13394Y179790D01*
X13445Y179821D01*
X13486Y179870D01*
X13535Y179911D01*
X13566Y179962D01*
X13605Y180008D01*
X13629Y180067D01*
X13662Y180122D01*
X13684Y180205D01*
X13697Y180236D01*
X13699Y180260D01*
X13706Y180284D01*
X13755Y180596D01*
X14336Y182383D01*
X15189Y184057D01*
X16294Y185578D01*
X17622Y186906D01*
X19143Y188011D01*
X20817Y188864D01*
X22604Y189445D01*
X23877Y189646D01*
X23877Y178562D01*
X23880Y178542D01*
X23878Y178523D01*
X23900Y178421D01*
X23917Y178319D01*
X23926Y178302D01*
X23930Y178282D01*
X23983Y178193D01*
X24032Y178102D01*
X24046Y178088D01*
X24056Y178071D01*
X24135Y178004D01*
X24210Y177933D01*
X24228Y177924D01*
X24243Y177911D01*
X24339Y177873D01*
X24433Y177829D01*
X24453Y177827D01*
X24471Y177819D01*
X24638Y177801D01*
X25401Y177801D01*
X25401Y177799D01*
X24638Y177799D01*
X24618Y177796D01*
X24599Y177798D01*
X24497Y177776D01*
X24395Y177759D01*
X24378Y177750D01*
X24358Y177746D01*
X24269Y177693D01*
X24178Y177644D01*
X24164Y177630D01*
X24147Y177620D01*
X24080Y177541D01*
X24009Y177466D01*
X24000Y177448D01*
X23987Y177433D01*
X23948Y177337D01*
X23905Y177243D01*
X23903Y177223D01*
X23895Y177205D01*
X23877Y177038D01*
X23877Y165954D01*
X22604Y166155D01*
X20817Y166736D01*
X19143Y167589D01*
X17622Y168694D01*
X16294Y170022D01*
X15189Y171543D01*
X14336Y173217D01*
X13755Y175004D01*
X13706Y175316D01*
X13686Y175377D01*
X13675Y175440D01*
X13648Y175493D01*
X13629Y175550D01*
X13590Y175601D01*
X13560Y175657D01*
X13517Y175698D01*
X13481Y175746D01*
X13428Y175783D01*
X13382Y175827D01*
X13328Y175852D01*
X13278Y175886D01*
X13217Y175903D01*
X13159Y175930D01*
X13099Y175937D01*
X13042Y175953D01*
X12978Y175950D01*
X12915Y175957D01*
X12856Y175945D01*
X12796Y175942D01*
X12737Y175919D01*
X12674Y175905D01*
X12623Y175874D01*
X12567Y175853D01*
X12518Y175812D01*
X12463Y175779D01*
X12424Y175733D01*
X12378Y175695D01*
X12345Y175641D01*
X12303Y175592D01*
X12281Y175536D01*
X12249Y175485D01*
X12235Y175423D01*
X12211Y175364D01*
X12202Y175278D01*
X12194Y175246D01*
X12195Y175221D01*
X12193Y175197D01*
X12193Y30766D01*
X12207Y30676D01*
X12215Y30585D01*
X12227Y30555D01*
X12232Y30523D01*
X12275Y30442D01*
X12311Y30358D01*
X12337Y30326D01*
X12348Y30306D01*
X12371Y30283D01*
X12416Y30227D01*
X19500Y23144D01*
X19500Y23143D01*
X30227Y12416D01*
X30301Y12363D01*
X30371Y12303D01*
X30401Y12291D01*
X30427Y12272D01*
X30514Y12245D01*
X30599Y12211D01*
X30640Y12207D01*
X30662Y12200D01*
X30694Y12201D01*
X30766Y12193D01*
X502634Y12193D01*
X502724Y12207D01*
G37*
%LPC*%
G36*
X23126Y267969D02*
X23126Y267969D01*
X18925Y269710D01*
X15710Y272925D01*
X13969Y277126D01*
X13969Y281674D01*
X15710Y285875D01*
X18925Y289090D01*
X23126Y290831D01*
X27674Y290831D01*
X31875Y289090D01*
X35090Y285875D01*
X35894Y283935D01*
X35956Y283835D01*
X36016Y283735D01*
X36021Y283731D01*
X36024Y283726D01*
X36113Y283651D01*
X36203Y283575D01*
X36209Y283573D01*
X36213Y283569D01*
X36321Y283527D01*
X36431Y283483D01*
X36438Y283482D01*
X36443Y283481D01*
X36461Y283480D01*
X36598Y283465D01*
X42451Y283465D01*
X42541Y283479D01*
X42632Y283487D01*
X42662Y283499D01*
X42694Y283504D01*
X42774Y283547D01*
X42858Y283583D01*
X42890Y283609D01*
X42911Y283620D01*
X42933Y283643D01*
X42989Y283688D01*
X61816Y302515D01*
X271051Y302515D01*
X271141Y302529D01*
X271232Y302537D01*
X271262Y302549D01*
X271294Y302554D01*
X271374Y302597D01*
X271458Y302633D01*
X271490Y302659D01*
X271511Y302670D01*
X271533Y302693D01*
X271589Y302738D01*
X300512Y331661D01*
X300565Y331735D01*
X300625Y331804D01*
X300637Y331834D01*
X300656Y331860D01*
X300683Y331947D01*
X300717Y332032D01*
X300721Y332073D01*
X300728Y332096D01*
X300727Y332128D01*
X300735Y332199D01*
X300735Y458884D01*
X339882Y498031D01*
X339935Y498105D01*
X339995Y498174D01*
X340007Y498204D01*
X340026Y498230D01*
X340053Y498317D01*
X340087Y498402D01*
X340091Y498443D01*
X340098Y498466D01*
X340097Y498498D01*
X340105Y498569D01*
X340105Y505438D01*
X345462Y510795D01*
X353038Y510795D01*
X358395Y505438D01*
X358395Y497862D01*
X353038Y492505D01*
X346169Y492505D01*
X346079Y492491D01*
X345988Y492483D01*
X345958Y492471D01*
X345926Y492466D01*
X345846Y492423D01*
X345762Y492387D01*
X345730Y492361D01*
X345709Y492350D01*
X345687Y492327D01*
X345631Y492282D01*
X309088Y455739D01*
X309040Y455673D01*
X309036Y455668D01*
X309034Y455665D01*
X308975Y455596D01*
X308963Y455566D01*
X308944Y455540D01*
X308917Y455453D01*
X308883Y455368D01*
X308879Y455327D01*
X308872Y455304D01*
X308873Y455272D01*
X308865Y455201D01*
X308865Y328516D01*
X274734Y294385D01*
X65499Y294385D01*
X65409Y294371D01*
X65318Y294363D01*
X65288Y294351D01*
X65256Y294346D01*
X65176Y294303D01*
X65092Y294267D01*
X65060Y294241D01*
X65039Y294230D01*
X65017Y294207D01*
X64961Y294162D01*
X46134Y275335D01*
X36598Y275335D01*
X36483Y275316D01*
X36367Y275299D01*
X36361Y275297D01*
X36355Y275296D01*
X36252Y275241D01*
X36147Y275188D01*
X36143Y275183D01*
X36137Y275180D01*
X36057Y275096D01*
X35975Y275012D01*
X35971Y275006D01*
X35968Y275002D01*
X35960Y274985D01*
X35894Y274865D01*
X35090Y272925D01*
X31875Y269710D01*
X27674Y267969D01*
X23126Y267969D01*
G37*
%LPD*%
%LPC*%
G36*
X23126Y293369D02*
X23126Y293369D01*
X18925Y295110D01*
X15710Y298325D01*
X13969Y302526D01*
X13969Y307074D01*
X15710Y311275D01*
X18925Y314490D01*
X23126Y316231D01*
X27674Y316231D01*
X29987Y315273D01*
X30050Y315258D01*
X30111Y315233D01*
X30194Y315224D01*
X30226Y315217D01*
X30245Y315218D01*
X30278Y315215D01*
X264701Y315215D01*
X264791Y315229D01*
X264882Y315237D01*
X264912Y315249D01*
X264944Y315254D01*
X265024Y315297D01*
X265108Y315333D01*
X265140Y315359D01*
X265161Y315370D01*
X265183Y315393D01*
X265239Y315438D01*
X281462Y331661D01*
X281515Y331735D01*
X281575Y331804D01*
X281587Y331834D01*
X281606Y331860D01*
X281633Y331947D01*
X281667Y332032D01*
X281671Y332073D01*
X281678Y332095D01*
X281677Y332128D01*
X281685Y332199D01*
X281685Y465234D01*
X314482Y498031D01*
X314535Y498105D01*
X314595Y498174D01*
X314607Y498204D01*
X314626Y498230D01*
X314653Y498317D01*
X314687Y498402D01*
X314691Y498443D01*
X314698Y498465D01*
X314697Y498498D01*
X314705Y498569D01*
X314705Y505438D01*
X320062Y510795D01*
X327638Y510795D01*
X332995Y505438D01*
X332995Y497862D01*
X327638Y492505D01*
X320769Y492505D01*
X320679Y492491D01*
X320588Y492483D01*
X320558Y492471D01*
X320526Y492466D01*
X320446Y492423D01*
X320362Y492387D01*
X320330Y492361D01*
X320309Y492350D01*
X320287Y492327D01*
X320231Y492282D01*
X290038Y462089D01*
X289985Y462015D01*
X289925Y461946D01*
X289913Y461916D01*
X289894Y461890D01*
X289867Y461803D01*
X289833Y461718D01*
X289829Y461677D01*
X289822Y461654D01*
X289823Y461622D01*
X289815Y461551D01*
X289815Y328516D01*
X287211Y325912D01*
X270988Y309689D01*
X268384Y307085D01*
X37592Y307085D01*
X37572Y307082D01*
X37553Y307084D01*
X37451Y307062D01*
X37349Y307046D01*
X37332Y307036D01*
X37312Y307032D01*
X37223Y306979D01*
X37132Y306930D01*
X37118Y306916D01*
X37101Y306906D01*
X37034Y306827D01*
X36962Y306752D01*
X36954Y306734D01*
X36941Y306719D01*
X36902Y306623D01*
X36859Y306529D01*
X36857Y306509D01*
X36849Y306491D01*
X36831Y306324D01*
X36831Y302526D01*
X35090Y298325D01*
X31875Y295110D01*
X27674Y293369D01*
X23126Y293369D01*
G37*
%LPD*%
%LPC*%
G36*
X231760Y384047D02*
X231760Y384047D01*
X228212Y385517D01*
X225497Y388232D01*
X224027Y391780D01*
X224027Y395620D01*
X224786Y397451D01*
X224812Y397565D01*
X224841Y397678D01*
X224841Y397685D01*
X224842Y397691D01*
X224831Y397807D01*
X224822Y397924D01*
X224819Y397929D01*
X224819Y397936D01*
X224771Y398043D01*
X224726Y398150D01*
X224721Y398156D01*
X224719Y398160D01*
X224706Y398174D01*
X224621Y398281D01*
X208089Y414812D01*
X208015Y414865D01*
X207946Y414925D01*
X207916Y414937D01*
X207890Y414956D01*
X207803Y414983D01*
X207718Y415017D01*
X207677Y415021D01*
X207654Y415028D01*
X207622Y415027D01*
X207551Y415035D01*
X36598Y415035D01*
X36483Y415016D01*
X36367Y414999D01*
X36361Y414997D01*
X36355Y414996D01*
X36252Y414941D01*
X36147Y414888D01*
X36143Y414883D01*
X36137Y414880D01*
X36058Y414796D01*
X35975Y414712D01*
X35971Y414706D01*
X35968Y414702D01*
X35960Y414685D01*
X35894Y414565D01*
X35090Y412625D01*
X31875Y409410D01*
X27674Y407669D01*
X23126Y407669D01*
X18925Y409410D01*
X15710Y412625D01*
X13969Y416826D01*
X13969Y421374D01*
X15710Y425575D01*
X18925Y428790D01*
X23126Y430531D01*
X27674Y430531D01*
X31875Y428790D01*
X35090Y425575D01*
X35894Y423635D01*
X35956Y423535D01*
X36016Y423435D01*
X36021Y423431D01*
X36024Y423426D01*
X36113Y423351D01*
X36203Y423275D01*
X36209Y423273D01*
X36213Y423269D01*
X36321Y423227D01*
X36431Y423183D01*
X36438Y423182D01*
X36443Y423181D01*
X36461Y423180D01*
X36598Y423165D01*
X211234Y423165D01*
X230895Y403503D01*
X230989Y403436D01*
X231084Y403365D01*
X231090Y403363D01*
X231095Y403360D01*
X231206Y403326D01*
X231318Y403289D01*
X231324Y403289D01*
X231330Y403287D01*
X231447Y403290D01*
X231564Y403291D01*
X231571Y403294D01*
X231576Y403294D01*
X231593Y403300D01*
X231725Y403338D01*
X231760Y403353D01*
X250840Y403353D01*
X254388Y401883D01*
X257103Y399168D01*
X258573Y395620D01*
X258573Y391780D01*
X257103Y388232D01*
X254388Y385517D01*
X250840Y384047D01*
X231760Y384047D01*
G37*
%LPD*%
%LPC*%
G36*
X23126Y382269D02*
X23126Y382269D01*
X18925Y384010D01*
X15710Y387225D01*
X13969Y391426D01*
X13969Y395974D01*
X15710Y400175D01*
X18925Y403390D01*
X23126Y405131D01*
X27674Y405131D01*
X31875Y403390D01*
X35090Y400175D01*
X35894Y398235D01*
X35956Y398135D01*
X36016Y398035D01*
X36021Y398031D01*
X36024Y398026D01*
X36113Y397951D01*
X36203Y397875D01*
X36209Y397873D01*
X36213Y397869D01*
X36321Y397827D01*
X36431Y397783D01*
X36438Y397782D01*
X36443Y397781D01*
X36461Y397780D01*
X36598Y397765D01*
X122807Y397765D01*
X122922Y397784D01*
X123038Y397801D01*
X123044Y397803D01*
X123050Y397804D01*
X123152Y397859D01*
X123257Y397912D01*
X123262Y397917D01*
X123267Y397920D01*
X123347Y398004D01*
X123429Y398088D01*
X123433Y398094D01*
X123436Y398098D01*
X123444Y398115D01*
X123510Y398235D01*
X123897Y399168D01*
X126612Y401883D01*
X130160Y403353D01*
X149240Y403353D01*
X152788Y401883D01*
X155503Y399168D01*
X156973Y395620D01*
X156973Y391780D01*
X155503Y388232D01*
X152788Y385517D01*
X149240Y384047D01*
X130160Y384047D01*
X126612Y385517D01*
X123897Y388232D01*
X123510Y389165D01*
X123449Y389265D01*
X123389Y389365D01*
X123384Y389369D01*
X123381Y389374D01*
X123291Y389449D01*
X123202Y389525D01*
X123196Y389527D01*
X123191Y389531D01*
X123083Y389573D01*
X122974Y389617D01*
X122966Y389618D01*
X122962Y389619D01*
X122943Y389620D01*
X122807Y389635D01*
X36598Y389635D01*
X36483Y389616D01*
X36367Y389599D01*
X36361Y389597D01*
X36355Y389596D01*
X36252Y389541D01*
X36147Y389488D01*
X36143Y389483D01*
X36137Y389480D01*
X36058Y389396D01*
X35975Y389312D01*
X35971Y389306D01*
X35968Y389302D01*
X35960Y389285D01*
X35894Y389165D01*
X35090Y387225D01*
X31875Y384010D01*
X27674Y382269D01*
X23126Y382269D01*
G37*
%LPD*%
%LPC*%
G36*
X117460Y136397D02*
X117460Y136397D01*
X113912Y137867D01*
X111197Y140582D01*
X109727Y144130D01*
X109727Y147970D01*
X111197Y151518D01*
X113912Y154233D01*
X117460Y155703D01*
X136540Y155703D01*
X140088Y154233D01*
X142803Y151518D01*
X144273Y147970D01*
X144273Y144130D01*
X142803Y140582D01*
X140088Y137867D01*
X136540Y136397D01*
X117460Y136397D01*
G37*
%LPD*%
%LPC*%
G36*
X212710Y136397D02*
X212710Y136397D01*
X209162Y137867D01*
X206447Y140582D01*
X204977Y144130D01*
X204977Y147970D01*
X206447Y151518D01*
X209162Y154233D01*
X212710Y155703D01*
X231790Y155703D01*
X235338Y154233D01*
X238053Y151518D01*
X239523Y147970D01*
X239523Y144130D01*
X238053Y140582D01*
X235338Y137867D01*
X231790Y136397D01*
X212710Y136397D01*
G37*
%LPD*%
%LPC*%
G36*
X307960Y136397D02*
X307960Y136397D01*
X304412Y137867D01*
X301697Y140582D01*
X300227Y144130D01*
X300227Y147970D01*
X301697Y151518D01*
X304412Y154233D01*
X307960Y155703D01*
X327040Y155703D01*
X330588Y154233D01*
X333303Y151518D01*
X334773Y147970D01*
X334773Y144130D01*
X333303Y140582D01*
X330588Y137867D01*
X327040Y136397D01*
X307960Y136397D01*
G37*
%LPD*%
%LPC*%
G36*
X403210Y136397D02*
X403210Y136397D01*
X399662Y137867D01*
X396947Y140582D01*
X395477Y144130D01*
X395477Y147970D01*
X396947Y151518D01*
X399662Y154233D01*
X403210Y155703D01*
X422290Y155703D01*
X425838Y154233D01*
X428553Y151518D01*
X430023Y147970D01*
X430023Y144130D01*
X428553Y140582D01*
X425838Y137867D01*
X422290Y136397D01*
X403210Y136397D01*
G37*
%LPD*%
%LPC*%
G36*
X130160Y358647D02*
X130160Y358647D01*
X126612Y360117D01*
X123897Y362832D01*
X122427Y366380D01*
X122427Y370220D01*
X123897Y373768D01*
X126612Y376483D01*
X130160Y377953D01*
X149240Y377953D01*
X152788Y376483D01*
X155503Y373768D01*
X156973Y370220D01*
X156973Y366380D01*
X155503Y362832D01*
X152788Y360117D01*
X149240Y358647D01*
X130160Y358647D01*
G37*
%LPD*%
%LPC*%
G36*
X231760Y358647D02*
X231760Y358647D01*
X228212Y360117D01*
X225497Y362832D01*
X224027Y366380D01*
X224027Y370220D01*
X225497Y373768D01*
X228212Y376483D01*
X231760Y377953D01*
X250840Y377953D01*
X254388Y376483D01*
X257103Y373768D01*
X258573Y370220D01*
X258573Y366380D01*
X257103Y362832D01*
X254388Y360117D01*
X250840Y358647D01*
X231760Y358647D01*
G37*
%LPD*%
%LPC*%
G36*
X307960Y161797D02*
X307960Y161797D01*
X304412Y163267D01*
X301697Y165982D01*
X300227Y169530D01*
X300227Y173370D01*
X301697Y176918D01*
X304412Y179633D01*
X307960Y181103D01*
X327040Y181103D01*
X330588Y179633D01*
X333303Y176918D01*
X334773Y173370D01*
X334773Y169530D01*
X333303Y165982D01*
X330588Y163267D01*
X327040Y161797D01*
X307960Y161797D01*
G37*
%LPD*%
%LPC*%
G36*
X403210Y161797D02*
X403210Y161797D01*
X399662Y163267D01*
X396947Y165982D01*
X395477Y169530D01*
X395477Y173370D01*
X396947Y176918D01*
X399662Y179633D01*
X403210Y181103D01*
X422290Y181103D01*
X425838Y179633D01*
X428553Y176918D01*
X430023Y173370D01*
X430023Y169530D01*
X428553Y165982D01*
X425838Y163267D01*
X422290Y161797D01*
X403210Y161797D01*
G37*
%LPD*%
%LPC*%
G36*
X117460Y161797D02*
X117460Y161797D01*
X113912Y163267D01*
X111197Y165982D01*
X109727Y169530D01*
X109727Y173370D01*
X111197Y176918D01*
X113912Y179633D01*
X117460Y181103D01*
X136540Y181103D01*
X140088Y179633D01*
X142803Y176918D01*
X144273Y173370D01*
X144273Y169530D01*
X142803Y165982D01*
X140088Y163267D01*
X136540Y161797D01*
X117460Y161797D01*
G37*
%LPD*%
%LPC*%
G36*
X118984Y40385D02*
X118984Y40385D01*
X115436Y41855D01*
X112721Y44570D01*
X111251Y48118D01*
X111251Y51958D01*
X112721Y55506D01*
X115436Y58221D01*
X118984Y59691D01*
X138064Y59691D01*
X141612Y58221D01*
X144327Y55506D01*
X145797Y51958D01*
X145797Y48118D01*
X144327Y44570D01*
X141612Y41855D01*
X138064Y40385D01*
X118984Y40385D01*
G37*
%LPD*%
%LPC*%
G36*
X118984Y65785D02*
X118984Y65785D01*
X115436Y67255D01*
X112721Y69970D01*
X111251Y73518D01*
X111251Y77358D01*
X112721Y80906D01*
X115436Y83621D01*
X118984Y85091D01*
X138064Y85091D01*
X141612Y83621D01*
X144327Y80906D01*
X145797Y77358D01*
X145797Y73518D01*
X144327Y69970D01*
X141612Y67255D01*
X138064Y65785D01*
X118984Y65785D01*
G37*
%LPD*%
%LPC*%
G36*
X212710Y161797D02*
X212710Y161797D01*
X209162Y163267D01*
X206447Y165982D01*
X204977Y169530D01*
X204977Y173370D01*
X206447Y176918D01*
X209162Y179633D01*
X212710Y181103D01*
X231790Y181103D01*
X235338Y179633D01*
X238053Y176918D01*
X239523Y173370D01*
X239523Y169530D01*
X238053Y165982D01*
X235338Y163267D01*
X231790Y161797D01*
X212710Y161797D01*
G37*
%LPD*%
%LPC*%
G36*
X428610Y377697D02*
X428610Y377697D01*
X425062Y379167D01*
X422347Y381882D01*
X420877Y385430D01*
X420877Y389270D01*
X422347Y392818D01*
X425062Y395533D01*
X428610Y397003D01*
X447690Y397003D01*
X451238Y395533D01*
X453953Y392818D01*
X455423Y389270D01*
X455423Y385430D01*
X453953Y381882D01*
X451238Y379167D01*
X447690Y377697D01*
X428610Y377697D01*
G37*
%LPD*%
%LPC*%
G36*
X403210Y212597D02*
X403210Y212597D01*
X399662Y214067D01*
X396947Y216782D01*
X395477Y220330D01*
X395477Y224170D01*
X396947Y227718D01*
X399662Y230433D01*
X403210Y231903D01*
X422290Y231903D01*
X425838Y230433D01*
X428553Y227718D01*
X430023Y224170D01*
X430023Y220330D01*
X428553Y216782D01*
X425838Y214067D01*
X422290Y212597D01*
X403210Y212597D01*
G37*
%LPD*%
%LPC*%
G36*
X117460Y187197D02*
X117460Y187197D01*
X113912Y188667D01*
X111197Y191382D01*
X109727Y194930D01*
X109727Y198770D01*
X111197Y202318D01*
X113912Y205033D01*
X117460Y206503D01*
X136540Y206503D01*
X140088Y205033D01*
X142803Y202318D01*
X144273Y198770D01*
X144273Y194930D01*
X142803Y191382D01*
X140088Y188667D01*
X136540Y187197D01*
X117460Y187197D01*
G37*
%LPD*%
%LPC*%
G36*
X212710Y187197D02*
X212710Y187197D01*
X209162Y188667D01*
X206447Y191382D01*
X204977Y194930D01*
X204977Y198770D01*
X206447Y202318D01*
X209162Y205033D01*
X212710Y206503D01*
X231790Y206503D01*
X235338Y205033D01*
X238053Y202318D01*
X239523Y198770D01*
X239523Y194930D01*
X238053Y191382D01*
X235338Y188667D01*
X231790Y187197D01*
X212710Y187197D01*
G37*
%LPD*%
%LPC*%
G36*
X307960Y187197D02*
X307960Y187197D01*
X304412Y188667D01*
X301697Y191382D01*
X300227Y194930D01*
X300227Y198770D01*
X301697Y202318D01*
X304412Y205033D01*
X307960Y206503D01*
X327040Y206503D01*
X330588Y205033D01*
X333303Y202318D01*
X334773Y198770D01*
X334773Y194930D01*
X333303Y191382D01*
X330588Y188667D01*
X327040Y187197D01*
X307960Y187197D01*
G37*
%LPD*%
%LPC*%
G36*
X403210Y187197D02*
X403210Y187197D01*
X399662Y188667D01*
X396947Y191382D01*
X395477Y194930D01*
X395477Y198770D01*
X396947Y202318D01*
X399662Y205033D01*
X403210Y206503D01*
X422290Y206503D01*
X425838Y205033D01*
X428553Y202318D01*
X430023Y198770D01*
X430023Y194930D01*
X428553Y191382D01*
X425838Y188667D01*
X422290Y187197D01*
X403210Y187197D01*
G37*
%LPD*%
%LPC*%
G36*
X117460Y212597D02*
X117460Y212597D01*
X113912Y214067D01*
X111197Y216782D01*
X109727Y220330D01*
X109727Y224170D01*
X111197Y227718D01*
X113912Y230433D01*
X117460Y231903D01*
X136540Y231903D01*
X140088Y230433D01*
X142803Y227718D01*
X144273Y224170D01*
X144273Y220330D01*
X142803Y216782D01*
X140088Y214067D01*
X136540Y212597D01*
X117460Y212597D01*
G37*
%LPD*%
%LPC*%
G36*
X212710Y212597D02*
X212710Y212597D01*
X209162Y214067D01*
X206447Y216782D01*
X204977Y220330D01*
X204977Y224170D01*
X206447Y227718D01*
X209162Y230433D01*
X212710Y231903D01*
X231790Y231903D01*
X235338Y230433D01*
X238053Y227718D01*
X239523Y224170D01*
X239523Y220330D01*
X238053Y216782D01*
X235338Y214067D01*
X231790Y212597D01*
X212710Y212597D01*
G37*
%LPD*%
%LPC*%
G36*
X307960Y212597D02*
X307960Y212597D01*
X304412Y214067D01*
X301697Y216782D01*
X300227Y220330D01*
X300227Y224170D01*
X301697Y227718D01*
X304412Y230433D01*
X307960Y231903D01*
X327040Y231903D01*
X330588Y230433D01*
X333303Y227718D01*
X334773Y224170D01*
X334773Y220330D01*
X333303Y216782D01*
X330588Y214067D01*
X327040Y212597D01*
X307960Y212597D01*
G37*
%LPD*%
%LPC*%
G36*
X428610Y326897D02*
X428610Y326897D01*
X425062Y328367D01*
X422347Y331082D01*
X420877Y334630D01*
X420877Y338470D01*
X422347Y342018D01*
X425062Y344733D01*
X428610Y346203D01*
X447690Y346203D01*
X451238Y344733D01*
X453953Y342018D01*
X455423Y338470D01*
X455423Y334630D01*
X453953Y331082D01*
X451238Y328367D01*
X447690Y326897D01*
X428610Y326897D01*
G37*
%LPD*%
%LPC*%
G36*
X505726Y534669D02*
X505726Y534669D01*
X501525Y536410D01*
X498310Y539625D01*
X496569Y543826D01*
X496569Y548374D01*
X498310Y552575D01*
X501525Y555790D01*
X505726Y557531D01*
X510274Y557531D01*
X514475Y555790D01*
X517690Y552575D01*
X519431Y548374D01*
X519431Y543826D01*
X517690Y539625D01*
X514475Y536410D01*
X510274Y534669D01*
X505726Y534669D01*
G37*
%LPD*%
%LPC*%
G36*
X23126Y534669D02*
X23126Y534669D01*
X18925Y536410D01*
X15710Y539625D01*
X13969Y543826D01*
X13969Y548374D01*
X15710Y552575D01*
X18925Y555790D01*
X23126Y557531D01*
X27674Y557531D01*
X31875Y555790D01*
X35090Y552575D01*
X36831Y548374D01*
X36831Y543826D01*
X35090Y539625D01*
X31875Y536410D01*
X27674Y534669D01*
X23126Y534669D01*
G37*
%LPD*%
%LPC*%
G36*
X505726Y280669D02*
X505726Y280669D01*
X501525Y282410D01*
X498310Y285625D01*
X496569Y289826D01*
X496569Y294374D01*
X498310Y298575D01*
X501525Y301790D01*
X505726Y303531D01*
X510274Y303531D01*
X514475Y301790D01*
X517690Y298575D01*
X519431Y294374D01*
X519431Y289826D01*
X517690Y285625D01*
X514475Y282410D01*
X510274Y280669D01*
X505726Y280669D01*
G37*
%LPD*%
%LPC*%
G36*
X23126Y318769D02*
X23126Y318769D01*
X18925Y320510D01*
X15710Y323725D01*
X13969Y327926D01*
X13969Y332474D01*
X15710Y336675D01*
X18925Y339890D01*
X23126Y341631D01*
X27674Y341631D01*
X31875Y339890D01*
X35090Y336675D01*
X36831Y332474D01*
X36831Y327926D01*
X35090Y323725D01*
X31875Y320510D01*
X27674Y318769D01*
X23126Y318769D01*
G37*
%LPD*%
%LPC*%
G36*
X23126Y356869D02*
X23126Y356869D01*
X18925Y358610D01*
X15710Y361825D01*
X13969Y366026D01*
X13969Y370574D01*
X15710Y374775D01*
X18925Y377990D01*
X23126Y379731D01*
X27674Y379731D01*
X31875Y377990D01*
X35090Y374775D01*
X36831Y370574D01*
X36831Y366026D01*
X35090Y361825D01*
X31875Y358610D01*
X27674Y356869D01*
X23126Y356869D01*
G37*
%LPD*%
%LPC*%
G36*
X505726Y356869D02*
X505726Y356869D01*
X501525Y358610D01*
X498310Y361825D01*
X496569Y366026D01*
X496569Y370574D01*
X498310Y374775D01*
X501525Y377990D01*
X505726Y379731D01*
X510274Y379731D01*
X514475Y377990D01*
X517690Y374775D01*
X519431Y370574D01*
X519431Y366026D01*
X517690Y361825D01*
X514475Y358610D01*
X510274Y356869D01*
X505726Y356869D01*
G37*
%LPD*%
%LPC*%
G36*
X23126Y90169D02*
X23126Y90169D01*
X18925Y91910D01*
X15710Y95125D01*
X13969Y99326D01*
X13969Y103874D01*
X15710Y108075D01*
X18925Y111290D01*
X23126Y113031D01*
X27674Y113031D01*
X31875Y111290D01*
X35090Y108075D01*
X36831Y103874D01*
X36831Y99326D01*
X35090Y95125D01*
X31875Y91910D01*
X27674Y90169D01*
X23126Y90169D01*
G37*
%LPD*%
%LPC*%
G36*
X505726Y255269D02*
X505726Y255269D01*
X501525Y257010D01*
X498310Y260225D01*
X496569Y264426D01*
X496569Y268974D01*
X498310Y273175D01*
X501525Y276390D01*
X505726Y278131D01*
X510274Y278131D01*
X514475Y276390D01*
X517690Y273175D01*
X519431Y268974D01*
X519431Y264426D01*
X517690Y260225D01*
X514475Y257010D01*
X510274Y255269D01*
X505726Y255269D01*
G37*
%LPD*%
%LPC*%
G36*
X505726Y407669D02*
X505726Y407669D01*
X501525Y409410D01*
X498310Y412625D01*
X496569Y416826D01*
X496569Y421374D01*
X498310Y425575D01*
X501525Y428790D01*
X505726Y430531D01*
X510274Y430531D01*
X514475Y428790D01*
X517690Y425575D01*
X519431Y421374D01*
X519431Y416826D01*
X517690Y412625D01*
X514475Y409410D01*
X510274Y407669D01*
X505726Y407669D01*
G37*
%LPD*%
%LPC*%
G36*
X505726Y229869D02*
X505726Y229869D01*
X501525Y231610D01*
X498310Y234825D01*
X496569Y239026D01*
X496569Y243574D01*
X498310Y247775D01*
X501525Y250990D01*
X505726Y252731D01*
X510274Y252731D01*
X514475Y250990D01*
X517690Y247775D01*
X519431Y243574D01*
X519431Y239026D01*
X517690Y234825D01*
X514475Y231610D01*
X510274Y229869D01*
X505726Y229869D01*
G37*
%LPD*%
%LPC*%
G36*
X23126Y433069D02*
X23126Y433069D01*
X18925Y434810D01*
X15710Y438025D01*
X13969Y442226D01*
X13969Y446774D01*
X15710Y450975D01*
X18925Y454190D01*
X23126Y455931D01*
X27674Y455931D01*
X31875Y454190D01*
X35090Y450975D01*
X36831Y446774D01*
X36831Y442226D01*
X35090Y438025D01*
X31875Y434810D01*
X27674Y433069D01*
X23126Y433069D01*
G37*
%LPD*%
%LPC*%
G36*
X505726Y433069D02*
X505726Y433069D01*
X501525Y434810D01*
X498310Y438025D01*
X496569Y442226D01*
X496569Y446774D01*
X498310Y450975D01*
X501525Y454190D01*
X505726Y455931D01*
X510274Y455931D01*
X514475Y454190D01*
X517690Y450975D01*
X519431Y446774D01*
X519431Y442226D01*
X517690Y438025D01*
X514475Y434810D01*
X510274Y433069D01*
X505726Y433069D01*
G37*
%LPD*%
%LPC*%
G36*
X23126Y458469D02*
X23126Y458469D01*
X18925Y460210D01*
X15710Y463425D01*
X13969Y467626D01*
X13969Y472174D01*
X15710Y476375D01*
X18925Y479590D01*
X23126Y481331D01*
X27674Y481331D01*
X31875Y479590D01*
X35090Y476375D01*
X36831Y472174D01*
X36831Y467626D01*
X35090Y463425D01*
X31875Y460210D01*
X27674Y458469D01*
X23126Y458469D01*
G37*
%LPD*%
%LPC*%
G36*
X505726Y458469D02*
X505726Y458469D01*
X501525Y460210D01*
X498310Y463425D01*
X496569Y467626D01*
X496569Y472174D01*
X498310Y476375D01*
X501525Y479590D01*
X505726Y481331D01*
X510274Y481331D01*
X514475Y479590D01*
X517690Y476375D01*
X519431Y472174D01*
X519431Y467626D01*
X517690Y463425D01*
X514475Y460210D01*
X510274Y458469D01*
X505726Y458469D01*
G37*
%LPD*%
%LPC*%
G36*
X505726Y509269D02*
X505726Y509269D01*
X501525Y511010D01*
X498310Y514225D01*
X496569Y518426D01*
X496569Y522974D01*
X498310Y527175D01*
X501525Y530390D01*
X505726Y532131D01*
X510274Y532131D01*
X514475Y530390D01*
X517690Y527175D01*
X519431Y522974D01*
X519431Y518426D01*
X517690Y514225D01*
X514475Y511010D01*
X510274Y509269D01*
X505726Y509269D01*
G37*
%LPD*%
%LPC*%
G36*
X23126Y483869D02*
X23126Y483869D01*
X18925Y485610D01*
X15710Y488825D01*
X13969Y493026D01*
X13969Y497574D01*
X15710Y501775D01*
X18925Y504990D01*
X23126Y506731D01*
X27674Y506731D01*
X31875Y504990D01*
X35090Y501775D01*
X36831Y497574D01*
X36831Y493026D01*
X35090Y488825D01*
X31875Y485610D01*
X27674Y483869D01*
X23126Y483869D01*
G37*
%LPD*%
%LPC*%
G36*
X505726Y483869D02*
X505726Y483869D01*
X501525Y485610D01*
X498310Y488825D01*
X496569Y493026D01*
X496569Y497574D01*
X498310Y501775D01*
X501525Y504990D01*
X505726Y506731D01*
X510274Y506731D01*
X514475Y504990D01*
X517690Y501775D01*
X519431Y497574D01*
X519431Y493026D01*
X517690Y488825D01*
X514475Y485610D01*
X510274Y483869D01*
X505726Y483869D01*
G37*
%LPD*%
%LPC*%
G36*
X23126Y217169D02*
X23126Y217169D01*
X18925Y218910D01*
X15710Y222125D01*
X13969Y226326D01*
X13969Y230874D01*
X15710Y235075D01*
X18925Y238290D01*
X23126Y240031D01*
X27674Y240031D01*
X31875Y238290D01*
X35090Y235075D01*
X36831Y230874D01*
X36831Y226326D01*
X35090Y222125D01*
X31875Y218910D01*
X27674Y217169D01*
X23126Y217169D01*
G37*
%LPD*%
%LPC*%
G36*
X23126Y115569D02*
X23126Y115569D01*
X18925Y117310D01*
X15710Y120525D01*
X13969Y124726D01*
X13969Y129274D01*
X15710Y133475D01*
X18925Y136690D01*
X23126Y138431D01*
X27674Y138431D01*
X31875Y136690D01*
X35090Y133475D01*
X36831Y129274D01*
X36831Y124726D01*
X35090Y120525D01*
X31875Y117310D01*
X27674Y115569D01*
X23126Y115569D01*
G37*
%LPD*%
%LPC*%
G36*
X505726Y204469D02*
X505726Y204469D01*
X501525Y206210D01*
X498310Y209425D01*
X496569Y213626D01*
X496569Y218174D01*
X498310Y222375D01*
X501525Y225590D01*
X505726Y227331D01*
X510274Y227331D01*
X514475Y225590D01*
X517690Y222375D01*
X519431Y218174D01*
X519431Y213626D01*
X517690Y209425D01*
X514475Y206210D01*
X510274Y204469D01*
X505726Y204469D01*
G37*
%LPD*%
%LPC*%
G36*
X23126Y509269D02*
X23126Y509269D01*
X18925Y511010D01*
X15710Y514225D01*
X13969Y518426D01*
X13969Y522974D01*
X15710Y527175D01*
X18925Y530390D01*
X23126Y532131D01*
X27674Y532131D01*
X31875Y530390D01*
X35090Y527175D01*
X36831Y522974D01*
X36831Y518426D01*
X35090Y514225D01*
X31875Y511010D01*
X27674Y509269D01*
X23126Y509269D01*
G37*
%LPD*%
%LPC*%
G36*
X23126Y140969D02*
X23126Y140969D01*
X18925Y142710D01*
X15710Y145925D01*
X13969Y150126D01*
X13969Y154674D01*
X15710Y158875D01*
X18925Y162090D01*
X23126Y163831D01*
X27674Y163831D01*
X31875Y162090D01*
X35090Y158875D01*
X36831Y154674D01*
X36831Y150126D01*
X35090Y145925D01*
X31875Y142710D01*
X27674Y140969D01*
X23126Y140969D01*
G37*
%LPD*%
%LPC*%
G36*
X505726Y179069D02*
X505726Y179069D01*
X501525Y180810D01*
X498310Y184025D01*
X496569Y188226D01*
X496569Y192774D01*
X498310Y196975D01*
X501525Y200190D01*
X505726Y201931D01*
X510274Y201931D01*
X514475Y200190D01*
X517690Y196975D01*
X519431Y192774D01*
X519431Y188226D01*
X517690Y184025D01*
X514475Y180810D01*
X510274Y179069D01*
X505726Y179069D01*
G37*
%LPD*%
%LPC*%
G36*
X23126Y242569D02*
X23126Y242569D01*
X18925Y244310D01*
X15710Y247525D01*
X13969Y251726D01*
X13969Y256274D01*
X15710Y260475D01*
X18925Y263690D01*
X23126Y265431D01*
X27674Y265431D01*
X31875Y263690D01*
X35090Y260475D01*
X36831Y256274D01*
X36831Y251726D01*
X35090Y247525D01*
X31875Y244310D01*
X27674Y242569D01*
X23126Y242569D01*
G37*
%LPD*%
%LPC*%
G36*
X23126Y191769D02*
X23126Y191769D01*
X18925Y193510D01*
X15710Y196725D01*
X13969Y200926D01*
X13969Y205474D01*
X15710Y209675D01*
X18925Y212890D01*
X23126Y214631D01*
X27674Y214631D01*
X31875Y212890D01*
X35090Y209675D01*
X36831Y205474D01*
X36831Y200926D01*
X35090Y196725D01*
X31875Y193510D01*
X27674Y191769D01*
X23126Y191769D01*
G37*
%LPD*%
%LPC*%
G36*
X366304Y376046D02*
X366304Y376046D01*
X362616Y377574D01*
X359794Y380396D01*
X358266Y384084D01*
X358266Y388076D01*
X359794Y391764D01*
X362616Y394586D01*
X366304Y396114D01*
X370296Y396114D01*
X373984Y394586D01*
X376806Y391764D01*
X378334Y388076D01*
X378334Y384084D01*
X376806Y380396D01*
X373984Y377574D01*
X370296Y376046D01*
X366304Y376046D01*
G37*
%LPD*%
%LPC*%
G36*
X396262Y492505D02*
X396262Y492505D01*
X390905Y497862D01*
X390905Y505438D01*
X396262Y510795D01*
X403838Y510795D01*
X409195Y505438D01*
X409195Y497862D01*
X403838Y492505D01*
X396262Y492505D01*
G37*
%LPD*%
%LPC*%
G36*
X370862Y492505D02*
X370862Y492505D01*
X365505Y497862D01*
X365505Y505438D01*
X370862Y510795D01*
X378438Y510795D01*
X383795Y505438D01*
X383795Y497862D01*
X378438Y492505D01*
X370862Y492505D01*
G37*
%LPD*%
%LPC*%
G36*
X212112Y492505D02*
X212112Y492505D01*
X206755Y497862D01*
X206755Y505438D01*
X212112Y510795D01*
X219688Y510795D01*
X225045Y505438D01*
X225045Y497862D01*
X219688Y492505D01*
X212112Y492505D01*
G37*
%LPD*%
%LPC*%
G36*
X186712Y492505D02*
X186712Y492505D01*
X181355Y497862D01*
X181355Y505438D01*
X186712Y510795D01*
X194288Y510795D01*
X199645Y505438D01*
X199645Y497862D01*
X194288Y492505D01*
X186712Y492505D01*
G37*
%LPD*%
%LPC*%
G36*
X161312Y492505D02*
X161312Y492505D01*
X155955Y497862D01*
X155955Y505438D01*
X161312Y510795D01*
X168888Y510795D01*
X174245Y505438D01*
X174245Y497862D01*
X168888Y492505D01*
X161312Y492505D01*
G37*
%LPD*%
%LPC*%
G36*
X110512Y492505D02*
X110512Y492505D01*
X105155Y497862D01*
X105155Y505438D01*
X110512Y510795D01*
X118088Y510795D01*
X123445Y505438D01*
X123445Y497862D01*
X118088Y492505D01*
X110512Y492505D01*
G37*
%LPD*%
%LPC*%
G36*
X135912Y492505D02*
X135912Y492505D01*
X130555Y497862D01*
X130555Y505438D01*
X135912Y510795D01*
X143488Y510795D01*
X148845Y505438D01*
X148845Y497862D01*
X143488Y492505D01*
X135912Y492505D01*
G37*
%LPD*%
%LPC*%
G36*
X421662Y492505D02*
X421662Y492505D01*
X416305Y497862D01*
X416305Y505438D01*
X421662Y510795D01*
X429238Y510795D01*
X434595Y505438D01*
X434595Y497862D01*
X429238Y492505D01*
X421662Y492505D01*
G37*
%LPD*%
%LPC*%
G36*
X269473Y188213D02*
X269473Y188213D01*
X264413Y193273D01*
X264413Y200427D01*
X269473Y205487D01*
X276627Y205487D01*
X281687Y200427D01*
X281687Y193273D01*
X276627Y188213D01*
X269473Y188213D01*
G37*
%LPD*%
%LPC*%
G36*
X364723Y188213D02*
X364723Y188213D01*
X359663Y193273D01*
X359663Y200427D01*
X364723Y205487D01*
X371877Y205487D01*
X376937Y200427D01*
X376937Y193273D01*
X371877Y188213D01*
X364723Y188213D01*
G37*
%LPD*%
%LPC*%
G36*
X434573Y277113D02*
X434573Y277113D01*
X429513Y282173D01*
X429513Y289327D01*
X434573Y294387D01*
X441727Y294387D01*
X446787Y289327D01*
X446787Y282173D01*
X441727Y277113D01*
X434573Y277113D01*
G37*
%LPD*%
%LPC*%
G36*
X434573Y423163D02*
X434573Y423163D01*
X429513Y428223D01*
X429513Y435377D01*
X434573Y440437D01*
X441727Y440437D01*
X446787Y435377D01*
X446787Y428223D01*
X441727Y423163D01*
X434573Y423163D01*
G37*
%LPD*%
%LPC*%
G36*
X174223Y188213D02*
X174223Y188213D01*
X169163Y193273D01*
X169163Y200427D01*
X174223Y205487D01*
X181377Y205487D01*
X186437Y200427D01*
X186437Y193273D01*
X181377Y188213D01*
X174223Y188213D01*
G37*
%LPD*%
%LPC*%
G36*
X78973Y194563D02*
X78973Y194563D01*
X73913Y199623D01*
X73913Y206777D01*
X78973Y211837D01*
X86127Y211837D01*
X91187Y206777D01*
X91187Y199623D01*
X86127Y194563D01*
X78973Y194563D01*
G37*
%LPD*%
%LPC*%
G36*
X414273Y122173D02*
X414273Y122173D01*
X414273Y130811D01*
X421170Y130811D01*
X422749Y130561D01*
X424270Y130066D01*
X425695Y129340D01*
X426989Y128400D01*
X428120Y127269D01*
X429060Y125975D01*
X429786Y124550D01*
X430281Y123029D01*
X430416Y122173D01*
X414273Y122173D01*
G37*
%LPD*%
%LPC*%
G36*
X128523Y249173D02*
X128523Y249173D01*
X128523Y257811D01*
X135420Y257811D01*
X136999Y257561D01*
X138520Y257066D01*
X139945Y256340D01*
X141239Y255400D01*
X142370Y254269D01*
X143310Y252975D01*
X144036Y251550D01*
X144531Y250029D01*
X144666Y249173D01*
X128523Y249173D01*
G37*
%LPD*%
%LPC*%
G36*
X319023Y122173D02*
X319023Y122173D01*
X319023Y130811D01*
X325920Y130811D01*
X327499Y130561D01*
X329020Y130066D01*
X330445Y129340D01*
X331739Y128400D01*
X332870Y127269D01*
X333810Y125975D01*
X334536Y124550D01*
X335031Y123029D01*
X335166Y122173D01*
X319023Y122173D01*
G37*
%LPD*%
%LPC*%
G36*
X439673Y363473D02*
X439673Y363473D01*
X439673Y372111D01*
X446570Y372111D01*
X448149Y371861D01*
X449670Y371366D01*
X451095Y370640D01*
X452389Y369700D01*
X453520Y368569D01*
X454460Y367275D01*
X455186Y365850D01*
X455681Y364329D01*
X455816Y363473D01*
X439673Y363473D01*
G37*
%LPD*%
%LPC*%
G36*
X130047Y26161D02*
X130047Y26161D01*
X130047Y34799D01*
X136944Y34799D01*
X138523Y34549D01*
X140044Y34054D01*
X141469Y33328D01*
X142763Y32388D01*
X143894Y31257D01*
X144834Y29963D01*
X145560Y28538D01*
X146055Y27017D01*
X146190Y26161D01*
X130047Y26161D01*
G37*
%LPD*%
%LPC*%
G36*
X319023Y249173D02*
X319023Y249173D01*
X319023Y257811D01*
X325920Y257811D01*
X327499Y257561D01*
X329020Y257066D01*
X330445Y256340D01*
X331739Y255400D01*
X332870Y254269D01*
X333810Y252975D01*
X334536Y251550D01*
X335031Y250029D01*
X335166Y249173D01*
X319023Y249173D01*
G37*
%LPD*%
%LPC*%
G36*
X414273Y249173D02*
X414273Y249173D01*
X414273Y257811D01*
X421170Y257811D01*
X422749Y257561D01*
X424270Y257066D01*
X425695Y256340D01*
X426989Y255400D01*
X428120Y254269D01*
X429060Y252975D01*
X429786Y251550D01*
X430281Y250029D01*
X430416Y249173D01*
X414273Y249173D01*
G37*
%LPD*%
%LPC*%
G36*
X223773Y249173D02*
X223773Y249173D01*
X223773Y257811D01*
X230670Y257811D01*
X232249Y257561D01*
X233770Y257066D01*
X235195Y256340D01*
X236489Y255400D01*
X237620Y254269D01*
X238560Y252975D01*
X239286Y251550D01*
X239781Y250029D01*
X239916Y249173D01*
X223773Y249173D01*
G37*
%LPD*%
%LPC*%
G36*
X242823Y344423D02*
X242823Y344423D01*
X242823Y353061D01*
X249720Y353061D01*
X251299Y352811D01*
X252820Y352316D01*
X254245Y351590D01*
X255539Y350650D01*
X256670Y349519D01*
X257610Y348225D01*
X258336Y346800D01*
X258831Y345279D01*
X258966Y344423D01*
X242823Y344423D01*
G37*
%LPD*%
%LPC*%
G36*
X128523Y122173D02*
X128523Y122173D01*
X128523Y130811D01*
X135420Y130811D01*
X136999Y130561D01*
X138520Y130066D01*
X139945Y129340D01*
X141239Y128400D01*
X142370Y127269D01*
X143310Y125975D01*
X144036Y124550D01*
X144531Y123029D01*
X144666Y122173D01*
X128523Y122173D01*
G37*
%LPD*%
%LPC*%
G36*
X223773Y122173D02*
X223773Y122173D01*
X223773Y130811D01*
X230670Y130811D01*
X232249Y130561D01*
X233770Y130066D01*
X235195Y129340D01*
X236489Y128400D01*
X237620Y127269D01*
X238560Y125975D01*
X239286Y124550D01*
X239781Y123029D01*
X239916Y122173D01*
X223773Y122173D01*
G37*
%LPD*%
%LPC*%
G36*
X141223Y344423D02*
X141223Y344423D01*
X141223Y353061D01*
X148120Y353061D01*
X149699Y352811D01*
X151220Y352316D01*
X152645Y351590D01*
X153939Y350650D01*
X155070Y349519D01*
X156010Y348225D01*
X156736Y346800D01*
X157231Y345279D01*
X157366Y344423D01*
X141223Y344423D01*
G37*
%LPD*%
%LPC*%
G36*
X204584Y122173D02*
X204584Y122173D01*
X204719Y123029D01*
X205214Y124550D01*
X205940Y125975D01*
X206880Y127269D01*
X208011Y128400D01*
X209305Y129340D01*
X210730Y130066D01*
X212251Y130561D01*
X213830Y130811D01*
X220727Y130811D01*
X220727Y122173D01*
X204584Y122173D01*
G37*
%LPD*%
%LPC*%
G36*
X109334Y122173D02*
X109334Y122173D01*
X109469Y123029D01*
X109964Y124550D01*
X110690Y125975D01*
X111630Y127269D01*
X112761Y128400D01*
X114055Y129340D01*
X115480Y130066D01*
X117001Y130561D01*
X118580Y130811D01*
X125477Y130811D01*
X125477Y122173D01*
X109334Y122173D01*
G37*
%LPD*%
%LPC*%
G36*
X110858Y26161D02*
X110858Y26161D01*
X110993Y27017D01*
X111488Y28538D01*
X112214Y29963D01*
X113154Y31257D01*
X114285Y32388D01*
X115579Y33328D01*
X117004Y34054D01*
X118525Y34549D01*
X120104Y34799D01*
X127001Y34799D01*
X127001Y26161D01*
X110858Y26161D01*
G37*
%LPD*%
%LPC*%
G36*
X204584Y249173D02*
X204584Y249173D01*
X204719Y250029D01*
X205214Y251550D01*
X205940Y252975D01*
X206880Y254269D01*
X208011Y255400D01*
X209305Y256340D01*
X210730Y257066D01*
X212251Y257561D01*
X213830Y257811D01*
X220727Y257811D01*
X220727Y249173D01*
X204584Y249173D01*
G37*
%LPD*%
%LPC*%
G36*
X420484Y363473D02*
X420484Y363473D01*
X420619Y364329D01*
X421114Y365850D01*
X421840Y367275D01*
X422780Y368569D01*
X423911Y369700D01*
X425205Y370640D01*
X426630Y371366D01*
X428151Y371861D01*
X429730Y372111D01*
X436627Y372111D01*
X436627Y363473D01*
X420484Y363473D01*
G37*
%LPD*%
%LPC*%
G36*
X109334Y249173D02*
X109334Y249173D01*
X109469Y250029D01*
X109964Y251550D01*
X110690Y252975D01*
X111630Y254269D01*
X112761Y255400D01*
X114055Y256340D01*
X115480Y257066D01*
X117001Y257561D01*
X118580Y257811D01*
X125477Y257811D01*
X125477Y249173D01*
X109334Y249173D01*
G37*
%LPD*%
%LPC*%
G36*
X299834Y249173D02*
X299834Y249173D01*
X299969Y250029D01*
X300464Y251550D01*
X301190Y252975D01*
X302130Y254269D01*
X303261Y255400D01*
X304555Y256340D01*
X305980Y257066D01*
X307501Y257561D01*
X309080Y257811D01*
X315977Y257811D01*
X315977Y249173D01*
X299834Y249173D01*
G37*
%LPD*%
%LPC*%
G36*
X395084Y249173D02*
X395084Y249173D01*
X395219Y250029D01*
X395714Y251550D01*
X396440Y252975D01*
X397380Y254269D01*
X398511Y255400D01*
X399805Y256340D01*
X401230Y257066D01*
X402751Y257561D01*
X404330Y257811D01*
X411227Y257811D01*
X411227Y249173D01*
X395084Y249173D01*
G37*
%LPD*%
%LPC*%
G36*
X122034Y344423D02*
X122034Y344423D01*
X122169Y345279D01*
X122664Y346800D01*
X123390Y348225D01*
X124330Y349519D01*
X125461Y350650D01*
X126755Y351590D01*
X128180Y352316D01*
X129701Y352811D01*
X131280Y353061D01*
X138177Y353061D01*
X138177Y344423D01*
X122034Y344423D01*
G37*
%LPD*%
%LPC*%
G36*
X223634Y344423D02*
X223634Y344423D01*
X223769Y345279D01*
X224264Y346800D01*
X224990Y348225D01*
X225930Y349519D01*
X227061Y350650D01*
X228355Y351590D01*
X229780Y352316D01*
X231301Y352811D01*
X232880Y353061D01*
X239777Y353061D01*
X239777Y344423D01*
X223634Y344423D01*
G37*
%LPD*%
%LPC*%
G36*
X395084Y122173D02*
X395084Y122173D01*
X395219Y123029D01*
X395714Y124550D01*
X396440Y125975D01*
X397380Y127269D01*
X398511Y128400D01*
X399805Y129340D01*
X401230Y130066D01*
X402751Y130561D01*
X404330Y130811D01*
X411227Y130811D01*
X411227Y122173D01*
X395084Y122173D01*
G37*
%LPD*%
%LPC*%
G36*
X299834Y122173D02*
X299834Y122173D01*
X299969Y123029D01*
X300464Y124550D01*
X301190Y125975D01*
X302130Y127269D01*
X303261Y128400D01*
X304555Y129340D01*
X305980Y130066D01*
X307501Y130561D01*
X309080Y130811D01*
X315977Y130811D01*
X315977Y122173D01*
X299834Y122173D01*
G37*
%LPD*%
%LPC*%
G36*
X223773Y110489D02*
X223773Y110489D01*
X223773Y119127D01*
X239916Y119127D01*
X239781Y118271D01*
X239286Y116750D01*
X238560Y115325D01*
X237620Y114031D01*
X236489Y112900D01*
X235195Y111960D01*
X233770Y111234D01*
X232249Y110739D01*
X230670Y110489D01*
X223773Y110489D01*
G37*
%LPD*%
%LPC*%
G36*
X141223Y332739D02*
X141223Y332739D01*
X141223Y341377D01*
X157366Y341377D01*
X157231Y340521D01*
X156736Y339000D01*
X156010Y337575D01*
X155070Y336281D01*
X153939Y335150D01*
X152645Y334210D01*
X151220Y333484D01*
X149699Y332989D01*
X148120Y332739D01*
X141223Y332739D01*
G37*
%LPD*%
%LPC*%
G36*
X319023Y110489D02*
X319023Y110489D01*
X319023Y119127D01*
X335166Y119127D01*
X335031Y118271D01*
X334536Y116750D01*
X333810Y115325D01*
X332870Y114031D01*
X331739Y112900D01*
X330445Y111960D01*
X329020Y111234D01*
X327499Y110739D01*
X325920Y110489D01*
X319023Y110489D01*
G37*
%LPD*%
%LPC*%
G36*
X414273Y110489D02*
X414273Y110489D01*
X414273Y119127D01*
X430416Y119127D01*
X430281Y118271D01*
X429786Y116750D01*
X429060Y115325D01*
X428120Y114031D01*
X426989Y112900D01*
X425695Y111960D01*
X424270Y111234D01*
X422749Y110739D01*
X421170Y110489D01*
X414273Y110489D01*
G37*
%LPD*%
%LPC*%
G36*
X128523Y237489D02*
X128523Y237489D01*
X128523Y246127D01*
X144666Y246127D01*
X144531Y245271D01*
X144036Y243750D01*
X143310Y242325D01*
X142370Y241031D01*
X141239Y239900D01*
X139945Y238960D01*
X138520Y238234D01*
X136999Y237739D01*
X135420Y237489D01*
X128523Y237489D01*
G37*
%LPD*%
%LPC*%
G36*
X242823Y332739D02*
X242823Y332739D01*
X242823Y341377D01*
X258966Y341377D01*
X258831Y340521D01*
X258336Y339000D01*
X257610Y337575D01*
X256670Y336281D01*
X255539Y335150D01*
X254245Y334210D01*
X252820Y333484D01*
X251299Y332989D01*
X249720Y332739D01*
X242823Y332739D01*
G37*
%LPD*%
%LPC*%
G36*
X223773Y237489D02*
X223773Y237489D01*
X223773Y246127D01*
X239916Y246127D01*
X239781Y245271D01*
X239286Y243750D01*
X238560Y242325D01*
X237620Y241031D01*
X236489Y239900D01*
X235195Y238960D01*
X233770Y238234D01*
X232249Y237739D01*
X230670Y237489D01*
X223773Y237489D01*
G37*
%LPD*%
%LPC*%
G36*
X414273Y237489D02*
X414273Y237489D01*
X414273Y246127D01*
X430416Y246127D01*
X430281Y245271D01*
X429786Y243750D01*
X429060Y242325D01*
X428120Y241031D01*
X426989Y239900D01*
X425695Y238960D01*
X424270Y238234D01*
X422749Y237739D01*
X421170Y237489D01*
X414273Y237489D01*
G37*
%LPD*%
%LPC*%
G36*
X319023Y237489D02*
X319023Y237489D01*
X319023Y246127D01*
X335166Y246127D01*
X335031Y245271D01*
X334536Y243750D01*
X333810Y242325D01*
X332870Y241031D01*
X331739Y239900D01*
X330445Y238960D01*
X329020Y238234D01*
X327499Y237739D01*
X325920Y237489D01*
X319023Y237489D01*
G37*
%LPD*%
%LPC*%
G36*
X130047Y14477D02*
X130047Y14477D01*
X130047Y23115D01*
X146190Y23115D01*
X146055Y22259D01*
X145560Y20738D01*
X144834Y19313D01*
X143894Y18019D01*
X142763Y16888D01*
X141469Y15948D01*
X140044Y15222D01*
X138523Y14727D01*
X136944Y14477D01*
X130047Y14477D01*
G37*
%LPD*%
%LPC*%
G36*
X128523Y110489D02*
X128523Y110489D01*
X128523Y119127D01*
X144666Y119127D01*
X144531Y118271D01*
X144036Y116750D01*
X143310Y115325D01*
X142370Y114031D01*
X141239Y112900D01*
X139945Y111960D01*
X138520Y111234D01*
X136999Y110739D01*
X135420Y110489D01*
X128523Y110489D01*
G37*
%LPD*%
%LPC*%
G36*
X439673Y351789D02*
X439673Y351789D01*
X439673Y360427D01*
X455816Y360427D01*
X455681Y359571D01*
X455186Y358050D01*
X454460Y356625D01*
X453520Y355331D01*
X452389Y354200D01*
X451095Y353260D01*
X449670Y352534D01*
X448149Y352039D01*
X446570Y351789D01*
X439673Y351789D01*
G37*
%LPD*%
%LPC*%
G36*
X309080Y110489D02*
X309080Y110489D01*
X307501Y110739D01*
X305980Y111234D01*
X304555Y111960D01*
X303261Y112900D01*
X302130Y114031D01*
X301190Y115325D01*
X300464Y116750D01*
X299969Y118271D01*
X299834Y119127D01*
X315977Y119127D01*
X315977Y110489D01*
X309080Y110489D01*
G37*
%LPD*%
%LPC*%
G36*
X213830Y110489D02*
X213830Y110489D01*
X212251Y110739D01*
X210730Y111234D01*
X209305Y111960D01*
X208011Y112900D01*
X206880Y114031D01*
X205940Y115325D01*
X205214Y116750D01*
X204719Y118271D01*
X204584Y119127D01*
X220727Y119127D01*
X220727Y110489D01*
X213830Y110489D01*
G37*
%LPD*%
%LPC*%
G36*
X118580Y110489D02*
X118580Y110489D01*
X117001Y110739D01*
X115480Y111234D01*
X114055Y111960D01*
X112761Y112900D01*
X111630Y114031D01*
X110690Y115325D01*
X109964Y116750D01*
X109469Y118271D01*
X109334Y119127D01*
X125477Y119127D01*
X125477Y110489D01*
X118580Y110489D01*
G37*
%LPD*%
%LPC*%
G36*
X120104Y14477D02*
X120104Y14477D01*
X118525Y14727D01*
X117004Y15222D01*
X115579Y15948D01*
X114285Y16888D01*
X113154Y18019D01*
X112214Y19313D01*
X111488Y20738D01*
X110993Y22259D01*
X110858Y23115D01*
X127001Y23115D01*
X127001Y14477D01*
X120104Y14477D01*
G37*
%LPD*%
%LPC*%
G36*
X429730Y351789D02*
X429730Y351789D01*
X428151Y352039D01*
X426630Y352534D01*
X425205Y353260D01*
X423911Y354200D01*
X422780Y355331D01*
X421840Y356625D01*
X421114Y358050D01*
X420619Y359571D01*
X420484Y360427D01*
X436627Y360427D01*
X436627Y351789D01*
X429730Y351789D01*
G37*
%LPD*%
%LPC*%
G36*
X232880Y332739D02*
X232880Y332739D01*
X231301Y332989D01*
X229780Y333484D01*
X228355Y334210D01*
X227061Y335150D01*
X225930Y336281D01*
X224990Y337575D01*
X224264Y339000D01*
X223769Y340521D01*
X223634Y341377D01*
X239777Y341377D01*
X239777Y332739D01*
X232880Y332739D01*
G37*
%LPD*%
%LPC*%
G36*
X131280Y332739D02*
X131280Y332739D01*
X129701Y332989D01*
X128180Y333484D01*
X126755Y334210D01*
X125461Y335150D01*
X124330Y336281D01*
X123390Y337575D01*
X122664Y339000D01*
X122169Y340521D01*
X122034Y341377D01*
X138177Y341377D01*
X138177Y332739D01*
X131280Y332739D01*
G37*
%LPD*%
%LPC*%
G36*
X118580Y237489D02*
X118580Y237489D01*
X117001Y237739D01*
X115480Y238234D01*
X114055Y238960D01*
X112761Y239900D01*
X111630Y241031D01*
X110690Y242325D01*
X109964Y243750D01*
X109469Y245271D01*
X109334Y246127D01*
X125477Y246127D01*
X125477Y237489D01*
X118580Y237489D01*
G37*
%LPD*%
%LPC*%
G36*
X404330Y237489D02*
X404330Y237489D01*
X402751Y237739D01*
X401230Y238234D01*
X399805Y238960D01*
X398511Y239900D01*
X397380Y241031D01*
X396440Y242325D01*
X395714Y243750D01*
X395219Y245271D01*
X395084Y246127D01*
X411227Y246127D01*
X411227Y237489D01*
X404330Y237489D01*
G37*
%LPD*%
%LPC*%
G36*
X309080Y237489D02*
X309080Y237489D01*
X307501Y237739D01*
X305980Y238234D01*
X304555Y238960D01*
X303261Y239900D01*
X302130Y241031D01*
X301190Y242325D01*
X300464Y243750D01*
X299969Y245271D01*
X299834Y246127D01*
X315977Y246127D01*
X315977Y237489D01*
X309080Y237489D01*
G37*
%LPD*%
%LPC*%
G36*
X213830Y237489D02*
X213830Y237489D01*
X212251Y237739D01*
X210730Y238234D01*
X209305Y238960D01*
X208011Y239900D01*
X206880Y241031D01*
X205940Y242325D01*
X205214Y243750D01*
X204719Y245271D01*
X204584Y246127D01*
X220727Y246127D01*
X220727Y237489D01*
X213830Y237489D01*
G37*
%LPD*%
%LPC*%
G36*
X404330Y110489D02*
X404330Y110489D01*
X402751Y110739D01*
X401230Y111234D01*
X399805Y111960D01*
X398511Y112900D01*
X397380Y114031D01*
X396440Y115325D01*
X395714Y116750D01*
X395219Y118271D01*
X395084Y119127D01*
X411227Y119127D01*
X411227Y110489D01*
X404330Y110489D01*
G37*
%LPD*%
%LPC*%
G36*
X26923Y179323D02*
X26923Y179323D01*
X26923Y189646D01*
X28196Y189445D01*
X29983Y188864D01*
X31657Y188011D01*
X33178Y186906D01*
X34506Y185578D01*
X35611Y184057D01*
X36464Y182383D01*
X37045Y180596D01*
X37246Y179323D01*
X26923Y179323D01*
G37*
%LPD*%
%LPC*%
G36*
X26923Y176277D02*
X26923Y176277D01*
X37246Y176277D01*
X37045Y175004D01*
X36464Y173217D01*
X35611Y171543D01*
X34506Y170022D01*
X33178Y168694D01*
X31657Y167589D01*
X29983Y166736D01*
X28196Y166155D01*
X26923Y165954D01*
X26923Y176277D01*
G37*
%LPD*%
%LPC*%
G36*
X496154Y344423D02*
X496154Y344423D01*
X496355Y345696D01*
X496936Y347483D01*
X497789Y349157D01*
X498894Y350678D01*
X500222Y352006D01*
X501743Y353111D01*
X503417Y353964D01*
X505204Y354545D01*
X506477Y354746D01*
X506477Y344423D01*
X496154Y344423D01*
G37*
%LPD*%
%LPC*%
G36*
X496154Y319023D02*
X496154Y319023D01*
X496355Y320296D01*
X496936Y322083D01*
X497789Y323757D01*
X498894Y325278D01*
X500222Y326606D01*
X501743Y327711D01*
X503417Y328564D01*
X505204Y329145D01*
X506477Y329346D01*
X506477Y319023D01*
X496154Y319023D01*
G37*
%LPD*%
%LPC*%
G36*
X505204Y305855D02*
X505204Y305855D01*
X503417Y306436D01*
X501743Y307289D01*
X500222Y308394D01*
X498894Y309722D01*
X497789Y311243D01*
X496936Y312917D01*
X496355Y314704D01*
X496154Y315977D01*
X506477Y315977D01*
X506477Y305654D01*
X505204Y305855D01*
G37*
%LPD*%
%LPC*%
G36*
X505204Y331255D02*
X505204Y331255D01*
X503417Y331836D01*
X501743Y332689D01*
X500222Y333794D01*
X498894Y335122D01*
X497789Y336643D01*
X496936Y338317D01*
X496355Y340104D01*
X496154Y341377D01*
X506477Y341377D01*
X506477Y331054D01*
X505204Y331255D01*
G37*
%LPD*%
%LPC*%
G36*
X369823Y352043D02*
X369823Y352043D01*
X369823Y361062D01*
X372667Y361062D01*
X378842Y354887D01*
X378842Y352043D01*
X369823Y352043D01*
G37*
%LPD*%
%LPC*%
G36*
X369823Y339978D02*
X369823Y339978D01*
X369823Y348997D01*
X378842Y348997D01*
X378842Y346153D01*
X372667Y339978D01*
X369823Y339978D01*
G37*
%LPD*%
%LPC*%
G36*
X357758Y352043D02*
X357758Y352043D01*
X357758Y354887D01*
X363933Y361062D01*
X366777Y361062D01*
X366777Y352043D01*
X357758Y352043D01*
G37*
%LPD*%
%LPC*%
G36*
X363933Y339978D02*
X363933Y339978D01*
X357758Y346153D01*
X357758Y348997D01*
X366777Y348997D01*
X366777Y339978D01*
X363933Y339978D01*
G37*
%LPD*%
%LPC*%
G36*
X350773Y528573D02*
X350773Y528573D01*
X350773Y536703D01*
X353248Y536703D01*
X358903Y531048D01*
X358903Y528573D01*
X350773Y528573D01*
G37*
%LPD*%
%LPC*%
G36*
X325373Y528573D02*
X325373Y528573D01*
X325373Y536703D01*
X327848Y536703D01*
X333503Y531048D01*
X333503Y528573D01*
X325373Y528573D01*
G37*
%LPD*%
%LPC*%
G36*
X192023Y528573D02*
X192023Y528573D01*
X192023Y536703D01*
X194498Y536703D01*
X200153Y531048D01*
X200153Y528573D01*
X192023Y528573D01*
G37*
%LPD*%
%LPC*%
G36*
X166623Y528573D02*
X166623Y528573D01*
X166623Y536703D01*
X169098Y536703D01*
X174753Y531048D01*
X174753Y528573D01*
X166623Y528573D01*
G37*
%LPD*%
%LPC*%
G36*
X141223Y528573D02*
X141223Y528573D01*
X141223Y536703D01*
X143698Y536703D01*
X149353Y531048D01*
X149353Y528573D01*
X141223Y528573D01*
G37*
%LPD*%
%LPC*%
G36*
X115823Y528573D02*
X115823Y528573D01*
X115823Y536703D01*
X118298Y536703D01*
X123953Y531048D01*
X123953Y528573D01*
X115823Y528573D01*
G37*
%LPD*%
%LPC*%
G36*
X217423Y528573D02*
X217423Y528573D01*
X217423Y536703D01*
X219898Y536703D01*
X225553Y531048D01*
X225553Y528573D01*
X217423Y528573D01*
G37*
%LPD*%
%LPC*%
G36*
X426973Y528573D02*
X426973Y528573D01*
X426973Y536703D01*
X429448Y536703D01*
X435103Y531048D01*
X435103Y528573D01*
X426973Y528573D01*
G37*
%LPD*%
%LPC*%
G36*
X401573Y528573D02*
X401573Y528573D01*
X401573Y536703D01*
X404048Y536703D01*
X409703Y531048D01*
X409703Y528573D01*
X401573Y528573D01*
G37*
%LPD*%
%LPC*%
G36*
X376173Y528573D02*
X376173Y528573D01*
X376173Y536703D01*
X378648Y536703D01*
X384303Y531048D01*
X384303Y528573D01*
X376173Y528573D01*
G37*
%LPD*%
%LPC*%
G36*
X339597Y528573D02*
X339597Y528573D01*
X339597Y531048D01*
X345252Y536703D01*
X347727Y536703D01*
X347727Y528573D01*
X339597Y528573D01*
G37*
%LPD*%
%LPC*%
G36*
X155447Y528573D02*
X155447Y528573D01*
X155447Y531048D01*
X161102Y536703D01*
X163577Y536703D01*
X163577Y528573D01*
X155447Y528573D01*
G37*
%LPD*%
%LPC*%
G36*
X180847Y528573D02*
X180847Y528573D01*
X180847Y531048D01*
X186502Y536703D01*
X188977Y536703D01*
X188977Y528573D01*
X180847Y528573D01*
G37*
%LPD*%
%LPC*%
G36*
X206247Y528573D02*
X206247Y528573D01*
X206247Y531048D01*
X211902Y536703D01*
X214377Y536703D01*
X214377Y528573D01*
X206247Y528573D01*
G37*
%LPD*%
%LPC*%
G36*
X104647Y528573D02*
X104647Y528573D01*
X104647Y531048D01*
X110302Y536703D01*
X112777Y536703D01*
X112777Y528573D01*
X104647Y528573D01*
G37*
%LPD*%
%LPC*%
G36*
X415797Y528573D02*
X415797Y528573D01*
X415797Y531048D01*
X421452Y536703D01*
X423927Y536703D01*
X423927Y528573D01*
X415797Y528573D01*
G37*
%LPD*%
%LPC*%
G36*
X390397Y528573D02*
X390397Y528573D01*
X390397Y531048D01*
X396052Y536703D01*
X398527Y536703D01*
X398527Y528573D01*
X390397Y528573D01*
G37*
%LPD*%
%LPC*%
G36*
X364997Y528573D02*
X364997Y528573D01*
X364997Y531048D01*
X370652Y536703D01*
X373127Y536703D01*
X373127Y528573D01*
X364997Y528573D01*
G37*
%LPD*%
%LPC*%
G36*
X314197Y528573D02*
X314197Y528573D01*
X314197Y531048D01*
X319852Y536703D01*
X322327Y536703D01*
X322327Y528573D01*
X314197Y528573D01*
G37*
%LPD*%
%LPC*%
G36*
X130047Y528573D02*
X130047Y528573D01*
X130047Y531048D01*
X135702Y536703D01*
X138177Y536703D01*
X138177Y528573D01*
X130047Y528573D01*
G37*
%LPD*%
%LPC*%
G36*
X217423Y517397D02*
X217423Y517397D01*
X217423Y525527D01*
X225553Y525527D01*
X225553Y523052D01*
X219898Y517397D01*
X217423Y517397D01*
G37*
%LPD*%
%LPC*%
G36*
X192023Y517397D02*
X192023Y517397D01*
X192023Y525527D01*
X200153Y525527D01*
X200153Y523052D01*
X194498Y517397D01*
X192023Y517397D01*
G37*
%LPD*%
%LPC*%
G36*
X166623Y517397D02*
X166623Y517397D01*
X166623Y525527D01*
X174753Y525527D01*
X174753Y523052D01*
X169098Y517397D01*
X166623Y517397D01*
G37*
%LPD*%
%LPC*%
G36*
X350773Y517397D02*
X350773Y517397D01*
X350773Y525527D01*
X358903Y525527D01*
X358903Y523052D01*
X353248Y517397D01*
X350773Y517397D01*
G37*
%LPD*%
%LPC*%
G36*
X115823Y517397D02*
X115823Y517397D01*
X115823Y525527D01*
X123953Y525527D01*
X123953Y523052D01*
X118298Y517397D01*
X115823Y517397D01*
G37*
%LPD*%
%LPC*%
G36*
X426973Y517397D02*
X426973Y517397D01*
X426973Y525527D01*
X435103Y525527D01*
X435103Y523052D01*
X429448Y517397D01*
X426973Y517397D01*
G37*
%LPD*%
%LPC*%
G36*
X401573Y517397D02*
X401573Y517397D01*
X401573Y525527D01*
X409703Y525527D01*
X409703Y523052D01*
X404048Y517397D01*
X401573Y517397D01*
G37*
%LPD*%
%LPC*%
G36*
X376173Y517397D02*
X376173Y517397D01*
X376173Y525527D01*
X384303Y525527D01*
X384303Y523052D01*
X378648Y517397D01*
X376173Y517397D01*
G37*
%LPD*%
%LPC*%
G36*
X325373Y517397D02*
X325373Y517397D01*
X325373Y525527D01*
X333503Y525527D01*
X333503Y523052D01*
X327848Y517397D01*
X325373Y517397D01*
G37*
%LPD*%
%LPC*%
G36*
X141223Y517397D02*
X141223Y517397D01*
X141223Y525527D01*
X149353Y525527D01*
X149353Y523052D01*
X143698Y517397D01*
X141223Y517397D01*
G37*
%LPD*%
%LPC*%
G36*
X370652Y517397D02*
X370652Y517397D01*
X364997Y523052D01*
X364997Y525527D01*
X373127Y525527D01*
X373127Y517397D01*
X370652Y517397D01*
G37*
%LPD*%
%LPC*%
G36*
X396052Y517397D02*
X396052Y517397D01*
X390397Y523052D01*
X390397Y525527D01*
X398527Y525527D01*
X398527Y517397D01*
X396052Y517397D01*
G37*
%LPD*%
%LPC*%
G36*
X135702Y517397D02*
X135702Y517397D01*
X130047Y523052D01*
X130047Y525527D01*
X138177Y525527D01*
X138177Y517397D01*
X135702Y517397D01*
G37*
%LPD*%
%LPC*%
G36*
X421452Y517397D02*
X421452Y517397D01*
X415797Y523052D01*
X415797Y525527D01*
X423927Y525527D01*
X423927Y517397D01*
X421452Y517397D01*
G37*
%LPD*%
%LPC*%
G36*
X186502Y517397D02*
X186502Y517397D01*
X180847Y523052D01*
X180847Y525527D01*
X188977Y525527D01*
X188977Y517397D01*
X186502Y517397D01*
G37*
%LPD*%
%LPC*%
G36*
X319852Y517397D02*
X319852Y517397D01*
X314197Y523052D01*
X314197Y525527D01*
X322327Y525527D01*
X322327Y517397D01*
X319852Y517397D01*
G37*
%LPD*%
%LPC*%
G36*
X211902Y517397D02*
X211902Y517397D01*
X206247Y523052D01*
X206247Y525527D01*
X214377Y525527D01*
X214377Y517397D01*
X211902Y517397D01*
G37*
%LPD*%
%LPC*%
G36*
X345252Y517397D02*
X345252Y517397D01*
X339597Y523052D01*
X339597Y525527D01*
X347727Y525527D01*
X347727Y517397D01*
X345252Y517397D01*
G37*
%LPD*%
%LPC*%
G36*
X161102Y517397D02*
X161102Y517397D01*
X155447Y523052D01*
X155447Y525527D01*
X163577Y525527D01*
X163577Y517397D01*
X161102Y517397D01*
G37*
%LPD*%
%LPC*%
G36*
X110302Y517397D02*
X110302Y517397D01*
X104647Y523052D01*
X104647Y525527D01*
X112777Y525527D01*
X112777Y517397D01*
X110302Y517397D01*
G37*
%LPD*%
%LPC*%
G36*
X369823Y274573D02*
X369823Y274573D01*
X369823Y282195D01*
X372088Y282195D01*
X377445Y276838D01*
X377445Y274573D01*
X369823Y274573D01*
G37*
%LPD*%
%LPC*%
G36*
X179323Y274573D02*
X179323Y274573D01*
X179323Y282195D01*
X181588Y282195D01*
X186945Y276838D01*
X186945Y274573D01*
X179323Y274573D01*
G37*
%LPD*%
%LPC*%
G36*
X388873Y433323D02*
X388873Y433323D01*
X388873Y440945D01*
X391138Y440945D01*
X396495Y435588D01*
X396495Y433323D01*
X388873Y433323D01*
G37*
%LPD*%
%LPC*%
G36*
X388873Y287273D02*
X388873Y287273D01*
X388873Y294895D01*
X391138Y294895D01*
X396495Y289538D01*
X396495Y287273D01*
X388873Y287273D01*
G37*
%LPD*%
%LPC*%
G36*
X84073Y280923D02*
X84073Y280923D01*
X84073Y288545D01*
X86338Y288545D01*
X91695Y283188D01*
X91695Y280923D01*
X84073Y280923D01*
G37*
%LPD*%
%LPC*%
G36*
X274573Y274573D02*
X274573Y274573D01*
X274573Y282195D01*
X276838Y282195D01*
X282195Y276838D01*
X282195Y274573D01*
X274573Y274573D01*
G37*
%LPD*%
%LPC*%
G36*
X378205Y287273D02*
X378205Y287273D01*
X378205Y289538D01*
X383562Y294895D01*
X385827Y294895D01*
X385827Y287273D01*
X378205Y287273D01*
G37*
%LPD*%
%LPC*%
G36*
X378205Y433323D02*
X378205Y433323D01*
X378205Y435588D01*
X383562Y440945D01*
X385827Y440945D01*
X385827Y433323D01*
X378205Y433323D01*
G37*
%LPD*%
%LPC*%
G36*
X274573Y263905D02*
X274573Y263905D01*
X274573Y271527D01*
X282195Y271527D01*
X282195Y269262D01*
X276838Y263905D01*
X274573Y263905D01*
G37*
%LPD*%
%LPC*%
G36*
X84073Y270255D02*
X84073Y270255D01*
X84073Y277877D01*
X91695Y277877D01*
X91695Y275612D01*
X86338Y270255D01*
X84073Y270255D01*
G37*
%LPD*%
%LPC*%
G36*
X369823Y263905D02*
X369823Y263905D01*
X369823Y271527D01*
X377445Y271527D01*
X377445Y269262D01*
X372088Y263905D01*
X369823Y263905D01*
G37*
%LPD*%
%LPC*%
G36*
X168655Y274573D02*
X168655Y274573D01*
X168655Y276838D01*
X174012Y282195D01*
X176277Y282195D01*
X176277Y274573D01*
X168655Y274573D01*
G37*
%LPD*%
%LPC*%
G36*
X73405Y280923D02*
X73405Y280923D01*
X73405Y283188D01*
X78762Y288545D01*
X81027Y288545D01*
X81027Y280923D01*
X73405Y280923D01*
G37*
%LPD*%
%LPC*%
G36*
X263905Y274573D02*
X263905Y274573D01*
X263905Y276838D01*
X269262Y282195D01*
X271527Y282195D01*
X271527Y274573D01*
X263905Y274573D01*
G37*
%LPD*%
%LPC*%
G36*
X179323Y263905D02*
X179323Y263905D01*
X179323Y271527D01*
X186945Y271527D01*
X186945Y269262D01*
X181588Y263905D01*
X179323Y263905D01*
G37*
%LPD*%
%LPC*%
G36*
X388873Y422655D02*
X388873Y422655D01*
X388873Y430277D01*
X396495Y430277D01*
X396495Y428012D01*
X391138Y422655D01*
X388873Y422655D01*
G37*
%LPD*%
%LPC*%
G36*
X359155Y274573D02*
X359155Y274573D01*
X359155Y276838D01*
X364512Y282195D01*
X366777Y282195D01*
X366777Y274573D01*
X359155Y274573D01*
G37*
%LPD*%
%LPC*%
G36*
X388873Y276605D02*
X388873Y276605D01*
X388873Y284227D01*
X396495Y284227D01*
X396495Y281962D01*
X391138Y276605D01*
X388873Y276605D01*
G37*
%LPD*%
%LPC*%
G36*
X78762Y270255D02*
X78762Y270255D01*
X73405Y275612D01*
X73405Y277877D01*
X81027Y277877D01*
X81027Y270255D01*
X78762Y270255D01*
G37*
%LPD*%
%LPC*%
G36*
X269262Y263905D02*
X269262Y263905D01*
X263905Y269262D01*
X263905Y271527D01*
X271527Y271527D01*
X271527Y263905D01*
X269262Y263905D01*
G37*
%LPD*%
%LPC*%
G36*
X174012Y263905D02*
X174012Y263905D01*
X168655Y269262D01*
X168655Y271527D01*
X176277Y271527D01*
X176277Y263905D01*
X174012Y263905D01*
G37*
%LPD*%
%LPC*%
G36*
X364512Y263905D02*
X364512Y263905D01*
X359155Y269262D01*
X359155Y271527D01*
X366777Y271527D01*
X366777Y263905D01*
X364512Y263905D01*
G37*
%LPD*%
%LPC*%
G36*
X383562Y422655D02*
X383562Y422655D01*
X378205Y428012D01*
X378205Y430277D01*
X385827Y430277D01*
X385827Y422655D01*
X383562Y422655D01*
G37*
%LPD*%
%LPC*%
G36*
X383562Y276605D02*
X383562Y276605D01*
X378205Y281962D01*
X378205Y284227D01*
X385827Y284227D01*
X385827Y276605D01*
X383562Y276605D01*
G37*
%LPD*%
%LPC*%
G36*
X374649Y527049D02*
X374649Y527049D01*
X374649Y527051D01*
X374651Y527051D01*
X374651Y527049D01*
X374649Y527049D01*
G37*
%LPD*%
%LPC*%
G36*
X400049Y527049D02*
X400049Y527049D01*
X400049Y527051D01*
X400051Y527051D01*
X400051Y527049D01*
X400049Y527049D01*
G37*
%LPD*%
%LPC*%
G36*
X114299Y527049D02*
X114299Y527049D01*
X114299Y527051D01*
X114301Y527051D01*
X114301Y527049D01*
X114299Y527049D01*
G37*
%LPD*%
%LPC*%
G36*
X425449Y527049D02*
X425449Y527049D01*
X425449Y527051D01*
X425451Y527051D01*
X425451Y527049D01*
X425449Y527049D01*
G37*
%LPD*%
%LPC*%
G36*
X139699Y527049D02*
X139699Y527049D01*
X139699Y527051D01*
X139701Y527051D01*
X139701Y527049D01*
X139699Y527049D01*
G37*
%LPD*%
%LPC*%
G36*
X126999Y247649D02*
X126999Y247649D01*
X126999Y247651D01*
X127001Y247651D01*
X127001Y247649D01*
X126999Y247649D01*
G37*
%LPD*%
%LPC*%
G36*
X412749Y247649D02*
X412749Y247649D01*
X412749Y247651D01*
X412751Y247651D01*
X412751Y247649D01*
X412749Y247649D01*
G37*
%LPD*%
%LPC*%
G36*
X222249Y247649D02*
X222249Y247649D01*
X222249Y247651D01*
X222251Y247651D01*
X222251Y247649D01*
X222249Y247649D01*
G37*
%LPD*%
%LPC*%
G36*
X317499Y247649D02*
X317499Y247649D01*
X317499Y247651D01*
X317501Y247651D01*
X317501Y247649D01*
X317499Y247649D01*
G37*
%LPD*%
%LPC*%
G36*
X387349Y431799D02*
X387349Y431799D01*
X387349Y431801D01*
X387351Y431801D01*
X387351Y431799D01*
X387349Y431799D01*
G37*
%LPD*%
%LPC*%
G36*
X222249Y120649D02*
X222249Y120649D01*
X222249Y120651D01*
X222251Y120651D01*
X222251Y120649D01*
X222249Y120649D01*
G37*
%LPD*%
%LPC*%
G36*
X126999Y120649D02*
X126999Y120649D01*
X126999Y120651D01*
X127001Y120651D01*
X127001Y120649D01*
X126999Y120649D01*
G37*
%LPD*%
%LPC*%
G36*
X412749Y120649D02*
X412749Y120649D01*
X412749Y120651D01*
X412751Y120651D01*
X412751Y120649D01*
X412749Y120649D01*
G37*
%LPD*%
%LPC*%
G36*
X317499Y120649D02*
X317499Y120649D01*
X317499Y120651D01*
X317501Y120651D01*
X317501Y120649D01*
X317499Y120649D01*
G37*
%LPD*%
%LPC*%
G36*
X438149Y361949D02*
X438149Y361949D01*
X438149Y361951D01*
X438151Y361951D01*
X438151Y361949D01*
X438149Y361949D01*
G37*
%LPD*%
%LPC*%
G36*
X368299Y350519D02*
X368299Y350519D01*
X368299Y350521D01*
X368301Y350521D01*
X368301Y350519D01*
X368299Y350519D01*
G37*
%LPD*%
%LPC*%
G36*
X82549Y279399D02*
X82549Y279399D01*
X82549Y279401D01*
X82551Y279401D01*
X82551Y279399D01*
X82549Y279399D01*
G37*
%LPD*%
%LPC*%
G36*
X139699Y342899D02*
X139699Y342899D01*
X139699Y342901D01*
X139701Y342901D01*
X139701Y342899D01*
X139699Y342899D01*
G37*
%LPD*%
%LPC*%
G36*
X177799Y273049D02*
X177799Y273049D01*
X177799Y273051D01*
X177801Y273051D01*
X177801Y273049D01*
X177799Y273049D01*
G37*
%LPD*%
%LPC*%
G36*
X273049Y273049D02*
X273049Y273049D01*
X273049Y273051D01*
X273051Y273051D01*
X273051Y273049D01*
X273049Y273049D01*
G37*
%LPD*%
%LPC*%
G36*
X368299Y273049D02*
X368299Y273049D01*
X368299Y273051D01*
X368301Y273051D01*
X368301Y273049D01*
X368299Y273049D01*
G37*
%LPD*%
%LPC*%
G36*
X241299Y342899D02*
X241299Y342899D01*
X241299Y342901D01*
X241301Y342901D01*
X241301Y342899D01*
X241299Y342899D01*
G37*
%LPD*%
%LPC*%
G36*
X165099Y527049D02*
X165099Y527049D01*
X165099Y527051D01*
X165101Y527051D01*
X165101Y527049D01*
X165099Y527049D01*
G37*
%LPD*%
%LPC*%
G36*
X190499Y527049D02*
X190499Y527049D01*
X190499Y527051D01*
X190501Y527051D01*
X190501Y527049D01*
X190499Y527049D01*
G37*
%LPD*%
%LPC*%
G36*
X215899Y527049D02*
X215899Y527049D01*
X215899Y527051D01*
X215901Y527051D01*
X215901Y527049D01*
X215899Y527049D01*
G37*
%LPD*%
%LPC*%
G36*
X323849Y527049D02*
X323849Y527049D01*
X323849Y527051D01*
X323851Y527051D01*
X323851Y527049D01*
X323849Y527049D01*
G37*
%LPD*%
%LPC*%
G36*
X128523Y24637D02*
X128523Y24637D01*
X128523Y24639D01*
X128525Y24639D01*
X128525Y24637D01*
X128523Y24637D01*
G37*
%LPD*%
%LPC*%
G36*
X349249Y527049D02*
X349249Y527049D01*
X349249Y527051D01*
X349251Y527051D01*
X349251Y527049D01*
X349249Y527049D01*
G37*
%LPD*%
%LPC*%
G36*
X387349Y285749D02*
X387349Y285749D01*
X387349Y285751D01*
X387351Y285751D01*
X387351Y285749D01*
X387349Y285749D01*
G37*
%LPD*%
D10*
X405130Y247650D02*
X420370Y247650D01*
X420370Y222250D02*
X405130Y222250D01*
X405130Y196850D02*
X420370Y196850D01*
X420370Y171450D02*
X405130Y171450D01*
X405130Y146050D02*
X420370Y146050D01*
X420370Y120650D02*
X405130Y120650D01*
X325120Y247650D02*
X309880Y247650D01*
X309880Y222250D02*
X325120Y222250D01*
X325120Y196850D02*
X309880Y196850D01*
X309880Y171450D02*
X325120Y171450D01*
X325120Y146050D02*
X309880Y146050D01*
X309880Y120650D02*
X325120Y120650D01*
X229870Y247650D02*
X214630Y247650D01*
X214630Y222250D02*
X229870Y222250D01*
X229870Y196850D02*
X214630Y196850D01*
X214630Y171450D02*
X229870Y171450D01*
X229870Y146050D02*
X214630Y146050D01*
X214630Y120650D02*
X229870Y120650D01*
X134620Y247650D02*
X119380Y247650D01*
X119380Y222250D02*
X134620Y222250D01*
X134620Y196850D02*
X119380Y196850D01*
X119380Y171450D02*
X134620Y171450D01*
X134620Y146050D02*
X119380Y146050D01*
X119380Y120650D02*
X134620Y120650D01*
X430530Y387350D02*
X445770Y387350D01*
X445770Y361950D02*
X430530Y361950D01*
X430530Y336550D02*
X445770Y336550D01*
D11*
X387350Y431800D03*
X438150Y431800D03*
D12*
X368300Y350520D03*
D13*
X368300Y386080D03*
D14*
X438150Y285750D03*
X387350Y285750D03*
D10*
X136144Y24638D02*
X120904Y24638D01*
X120904Y50038D02*
X136144Y50038D01*
X136144Y75438D02*
X120904Y75438D01*
X132080Y393700D02*
X147320Y393700D01*
X147320Y368300D02*
X132080Y368300D01*
X132080Y342900D02*
X147320Y342900D01*
X233680Y393700D02*
X248920Y393700D01*
X248920Y368300D02*
X233680Y368300D01*
X233680Y342900D02*
X248920Y342900D01*
D15*
X215900Y527050D03*
X215900Y501650D03*
X190500Y527050D03*
X190500Y501650D03*
X165100Y527050D03*
X165100Y501650D03*
X139700Y527050D03*
X139700Y501650D03*
X114300Y527050D03*
X114300Y501650D03*
D16*
X508000Y241300D03*
X508000Y266700D03*
X508000Y292100D03*
X508000Y317500D03*
X508000Y342900D03*
X508000Y368300D03*
X508000Y419100D03*
X508000Y444500D03*
X508000Y469900D03*
X508000Y495300D03*
X508000Y520700D03*
X508000Y546100D03*
X25400Y546100D03*
X25400Y520700D03*
X25400Y495300D03*
X25400Y469900D03*
X25400Y444500D03*
X25400Y419100D03*
X25400Y393700D03*
X25400Y368300D03*
X25400Y330200D03*
X25400Y304800D03*
X25400Y279400D03*
X25400Y254000D03*
X25400Y228600D03*
X25400Y203200D03*
X25400Y177800D03*
X25400Y152400D03*
X25400Y127000D03*
X25400Y101600D03*
X508000Y215900D03*
X508000Y190500D03*
D15*
X425450Y527050D03*
X425450Y501650D03*
X400050Y527050D03*
X400050Y501650D03*
X374650Y527050D03*
X374650Y501650D03*
X349250Y527050D03*
X349250Y501650D03*
X323850Y527050D03*
X323850Y501650D03*
D17*
X368300Y273050D03*
X368300Y196850D03*
X273050Y273050D03*
X273050Y196850D03*
X177800Y273050D03*
X177800Y196850D03*
X82550Y279400D03*
X82550Y203200D03*
D18*
X107950Y393700D02*
X139700Y393700D01*
X107950Y393700D02*
X25400Y393700D01*
X25400Y419100D02*
X57150Y419100D01*
X209550Y419100D02*
X234950Y393700D01*
X241300Y393700D01*
X209550Y419100D02*
X57150Y419100D01*
X273050Y298450D02*
X304800Y330200D01*
X304800Y457200D01*
X349250Y501650D01*
X44450Y279400D02*
X25400Y279400D01*
X63500Y298450D02*
X273050Y298450D01*
X63500Y298450D02*
X44450Y279400D01*
X25400Y304800D02*
X31750Y311150D01*
X266700Y311150D01*
X285750Y330200D01*
X285750Y463550D01*
X323850Y501650D01*
M02*
