G04 EAGLE Gerber RS-274X export*
G75*
%MOMM*%
%FSLAX34Y34*%
%LPD*%
%INSilkscreen Top*%
%IPPOS*%
%AMOC8*
5,1,8,0,0,1.08239X$1,22.5*%
G01*
%ADD10C,0.203200*%
%ADD11C,0.076200*%
%ADD12C,0.152400*%
%ADD13C,0.127000*%
%ADD14C,0.254000*%
%ADD15C,0.177800*%
%ADD16R,0.762000X10.668000*%
%ADD17R,0.508000X1.905000*%
%ADD18R,0.508000X0.762000*%
%ADD19C,0.304800*%
%ADD20C,0.101600*%
%ADD21C,0.050800*%
%ADD22R,0.508000X0.381000*%


D10*
X204216Y87904D02*
X204216Y64516D01*
X219808Y64516D01*
X227604Y64516D02*
X227604Y80108D01*
X235400Y87904D01*
X243196Y80108D01*
X243196Y64516D01*
X243196Y76210D02*
X227604Y76210D01*
X250992Y64516D02*
X258788Y64516D01*
X254890Y64516D02*
X254890Y87904D01*
X250992Y87904D02*
X258788Y87904D01*
X266584Y80108D02*
X266584Y64516D01*
X266584Y80108D02*
X274380Y87904D01*
X282176Y80108D01*
X282176Y64516D01*
X282176Y76210D02*
X266584Y76210D01*
X209560Y43454D02*
X201764Y43454D01*
X197866Y39556D01*
X197866Y23964D01*
X201764Y20066D01*
X209560Y20066D01*
X213458Y23964D01*
X213458Y39556D01*
X209560Y43454D01*
X221254Y35658D02*
X221254Y12270D01*
X221254Y35658D02*
X232948Y35658D01*
X236846Y31760D01*
X236846Y23964D01*
X232948Y20066D01*
X221254Y20066D01*
X248540Y20066D02*
X256336Y20066D01*
X248540Y20066D02*
X244642Y23964D01*
X244642Y31760D01*
X248540Y35658D01*
X256336Y35658D01*
X260234Y31760D01*
X260234Y27862D01*
X244642Y27862D01*
X268030Y20066D02*
X268030Y35658D01*
X279724Y35658D01*
X283622Y31760D01*
X283622Y20066D01*
X307010Y39556D02*
X303112Y43454D01*
X295316Y43454D01*
X291418Y39556D01*
X291418Y23964D01*
X295316Y20066D01*
X303112Y20066D01*
X307010Y23964D01*
X326500Y20066D02*
X326500Y43454D01*
X314806Y31760D01*
X330398Y31760D01*
X338194Y43454D02*
X338194Y20066D01*
X349888Y20066D01*
X353786Y23964D01*
X353786Y39556D01*
X349888Y43454D01*
X338194Y43454D01*
X396664Y43454D02*
X400562Y39556D01*
X396664Y43454D02*
X388868Y43454D01*
X384970Y39556D01*
X384970Y35658D01*
X388868Y31760D01*
X396664Y31760D01*
X400562Y27862D01*
X400562Y23964D01*
X396664Y20066D01*
X388868Y20066D01*
X384970Y23964D01*
X408358Y20066D02*
X408358Y43454D01*
X412256Y35658D02*
X408358Y31760D01*
X412256Y35658D02*
X420052Y35658D01*
X423950Y31760D01*
X423950Y20066D01*
X431746Y35658D02*
X435644Y35658D01*
X435644Y20066D01*
X431746Y20066D02*
X439542Y20066D01*
X435644Y43454D02*
X435644Y47352D01*
X451236Y20066D02*
X459032Y20066D01*
X451236Y20066D02*
X447338Y23964D01*
X447338Y31760D01*
X451236Y35658D01*
X459032Y35658D01*
X462930Y31760D01*
X462930Y27862D01*
X447338Y27862D01*
X470726Y43454D02*
X474624Y43454D01*
X474624Y20066D01*
X470726Y20066D02*
X478522Y20066D01*
X501910Y20066D02*
X501910Y43454D01*
X501910Y20066D02*
X490216Y20066D01*
X486318Y23964D01*
X486318Y31760D01*
X490216Y35658D01*
X501910Y35658D01*
D11*
X170396Y50975D02*
X169167Y52203D01*
X166710Y52203D01*
X165481Y50975D01*
X165481Y49746D01*
X166710Y48517D01*
X169167Y48517D01*
X170396Y47288D01*
X170396Y46060D01*
X169167Y44831D01*
X166710Y44831D01*
X165481Y46060D01*
X176651Y52203D02*
X177880Y50975D01*
X176651Y52203D02*
X174194Y52203D01*
X172965Y50975D01*
X172965Y46060D01*
X174194Y44831D01*
X176651Y44831D01*
X177880Y46060D01*
X180449Y44831D02*
X180449Y52203D01*
X180449Y44831D02*
X185364Y44831D01*
X170396Y76375D02*
X169167Y77603D01*
X166710Y77603D01*
X165481Y76375D01*
X165481Y75146D01*
X166710Y73917D01*
X169167Y73917D01*
X170396Y72688D01*
X170396Y71460D01*
X169167Y70231D01*
X166710Y70231D01*
X165481Y71460D01*
X172965Y70231D02*
X172965Y77603D01*
X172965Y70231D02*
X176651Y70231D01*
X177880Y71460D01*
X177880Y76375D01*
X176651Y77603D01*
X172965Y77603D01*
X180449Y75146D02*
X180449Y70231D01*
X180449Y75146D02*
X182907Y77603D01*
X185364Y75146D01*
X185364Y70231D01*
X185364Y73917D02*
X180449Y73917D01*
X169167Y26803D02*
X170396Y25575D01*
X169167Y26803D02*
X166710Y26803D01*
X165481Y25575D01*
X165481Y20660D01*
X166710Y19431D01*
X169167Y19431D01*
X170396Y20660D01*
X170396Y23117D01*
X167938Y23117D01*
X172965Y19431D02*
X172965Y26803D01*
X177880Y19431D01*
X177880Y26803D01*
X180449Y26803D02*
X180449Y19431D01*
X184135Y19431D01*
X185364Y20660D01*
X185364Y25575D01*
X184135Y26803D01*
X180449Y26803D01*
X362615Y126625D02*
X363843Y125397D01*
X362615Y126625D02*
X360157Y126625D01*
X358929Y125397D01*
X358929Y120482D01*
X360157Y119253D01*
X362615Y119253D01*
X363843Y120482D01*
X363843Y122939D01*
X361386Y122939D01*
X366413Y119253D02*
X366413Y126625D01*
X371328Y119253D01*
X371328Y126625D01*
X373897Y126625D02*
X373897Y119253D01*
X377583Y119253D01*
X378812Y120482D01*
X378812Y125397D01*
X377583Y126625D01*
X373897Y126625D01*
X78093Y125397D02*
X76865Y126625D01*
X74407Y126625D01*
X73179Y125397D01*
X73179Y120482D01*
X74407Y119253D01*
X76865Y119253D01*
X78093Y120482D01*
X78093Y122939D01*
X75636Y122939D01*
X80663Y119253D02*
X80663Y126625D01*
X85578Y119253D01*
X85578Y126625D01*
X88147Y126625D02*
X88147Y119253D01*
X91833Y119253D01*
X93062Y120482D01*
X93062Y125397D01*
X91833Y126625D01*
X88147Y126625D01*
X172115Y126625D02*
X173343Y125397D01*
X172115Y126625D02*
X169657Y126625D01*
X168429Y125397D01*
X168429Y120482D01*
X169657Y119253D01*
X172115Y119253D01*
X173343Y120482D01*
X173343Y122939D01*
X170886Y122939D01*
X175913Y119253D02*
X175913Y126625D01*
X180828Y119253D01*
X180828Y126625D01*
X183397Y126625D02*
X183397Y119253D01*
X187083Y119253D01*
X188312Y120482D01*
X188312Y125397D01*
X187083Y126625D01*
X183397Y126625D01*
X267365Y126625D02*
X268593Y125397D01*
X267365Y126625D02*
X264907Y126625D01*
X263679Y125397D01*
X263679Y120482D01*
X264907Y119253D01*
X267365Y119253D01*
X268593Y120482D01*
X268593Y122939D01*
X266136Y122939D01*
X271163Y119253D02*
X271163Y126625D01*
X276078Y119253D01*
X276078Y126625D01*
X278647Y126625D02*
X278647Y119253D01*
X282333Y119253D01*
X283562Y120482D01*
X283562Y125397D01*
X282333Y126625D01*
X278647Y126625D01*
X358929Y148339D02*
X363843Y148339D01*
X361386Y145882D02*
X361386Y150797D01*
X366413Y145882D02*
X367641Y144653D01*
X370099Y144653D01*
X371328Y145882D01*
X371328Y150797D01*
X370099Y152025D01*
X367641Y152025D01*
X366413Y150797D01*
X366413Y149568D01*
X367641Y148339D01*
X371328Y148339D01*
X373897Y147110D02*
X373897Y152025D01*
X373897Y147110D02*
X376354Y144653D01*
X378812Y147110D01*
X378812Y152025D01*
X78093Y148339D02*
X73179Y148339D01*
X75636Y145882D02*
X75636Y150797D01*
X80663Y145882D02*
X81891Y144653D01*
X84349Y144653D01*
X85578Y145882D01*
X85578Y150797D01*
X84349Y152025D01*
X81891Y152025D01*
X80663Y150797D01*
X80663Y149568D01*
X81891Y148339D01*
X85578Y148339D01*
X88147Y147110D02*
X88147Y152025D01*
X88147Y147110D02*
X90604Y144653D01*
X93062Y147110D01*
X93062Y152025D01*
X168429Y148339D02*
X173343Y148339D01*
X170886Y145882D02*
X170886Y150797D01*
X175913Y145882D02*
X177141Y144653D01*
X179599Y144653D01*
X180828Y145882D01*
X180828Y150797D01*
X179599Y152025D01*
X177141Y152025D01*
X175913Y150797D01*
X175913Y149568D01*
X177141Y148339D01*
X180828Y148339D01*
X183397Y147110D02*
X183397Y152025D01*
X183397Y147110D02*
X185854Y144653D01*
X188312Y147110D01*
X188312Y152025D01*
X263679Y148339D02*
X268593Y148339D01*
X266136Y145882D02*
X266136Y150797D01*
X271163Y145882D02*
X272391Y144653D01*
X274849Y144653D01*
X276078Y145882D01*
X276078Y150797D01*
X274849Y152025D01*
X272391Y152025D01*
X271163Y150797D01*
X271163Y149568D01*
X272391Y148339D01*
X276078Y148339D01*
X278647Y147110D02*
X278647Y152025D01*
X278647Y147110D02*
X281104Y144653D01*
X283562Y147110D01*
X283562Y152025D01*
X85578Y176197D02*
X84349Y177425D01*
X81891Y177425D01*
X80663Y176197D01*
X80663Y171282D01*
X81891Y170053D01*
X84349Y170053D01*
X85578Y171282D01*
X91833Y177425D02*
X93062Y176197D01*
X91833Y177425D02*
X89376Y177425D01*
X88147Y176197D01*
X88147Y174968D01*
X89376Y173739D01*
X91833Y173739D01*
X93062Y172510D01*
X93062Y171282D01*
X91833Y170053D01*
X89376Y170053D01*
X88147Y171282D01*
X179599Y177425D02*
X180828Y176197D01*
X179599Y177425D02*
X177141Y177425D01*
X175913Y176197D01*
X175913Y171282D01*
X177141Y170053D01*
X179599Y170053D01*
X180828Y171282D01*
X187083Y177425D02*
X188312Y176197D01*
X187083Y177425D02*
X184626Y177425D01*
X183397Y176197D01*
X183397Y174968D01*
X184626Y173739D01*
X187083Y173739D01*
X188312Y172510D01*
X188312Y171282D01*
X187083Y170053D01*
X184626Y170053D01*
X183397Y171282D01*
X274849Y177425D02*
X276078Y176197D01*
X274849Y177425D02*
X272391Y177425D01*
X271163Y176197D01*
X271163Y171282D01*
X272391Y170053D01*
X274849Y170053D01*
X276078Y171282D01*
X282333Y177425D02*
X283562Y176197D01*
X282333Y177425D02*
X279876Y177425D01*
X278647Y176197D01*
X278647Y174968D01*
X279876Y173739D01*
X282333Y173739D01*
X283562Y172510D01*
X283562Y171282D01*
X282333Y170053D01*
X279876Y170053D01*
X278647Y171282D01*
X370099Y177425D02*
X371328Y176197D01*
X370099Y177425D02*
X367641Y177425D01*
X366413Y176197D01*
X366413Y171282D01*
X367641Y170053D01*
X370099Y170053D01*
X371328Y171282D01*
X377583Y177425D02*
X378812Y176197D01*
X377583Y177425D02*
X375126Y177425D01*
X373897Y176197D01*
X373897Y174968D01*
X375126Y173739D01*
X377583Y173739D01*
X378812Y172510D01*
X378812Y171282D01*
X377583Y170053D01*
X375126Y170053D01*
X373897Y171282D01*
X84443Y341297D02*
X83215Y342525D01*
X80757Y342525D01*
X79529Y341297D01*
X79529Y336382D01*
X80757Y335153D01*
X83215Y335153D01*
X84443Y336382D01*
X84443Y338839D01*
X81986Y338839D01*
X87013Y335153D02*
X87013Y342525D01*
X91928Y335153D01*
X91928Y342525D01*
X94497Y342525D02*
X94497Y335153D01*
X98183Y335153D01*
X99412Y336382D01*
X99412Y341297D01*
X98183Y342525D01*
X94497Y342525D01*
X184815Y342525D02*
X186043Y341297D01*
X184815Y342525D02*
X182357Y342525D01*
X181129Y341297D01*
X181129Y336382D01*
X182357Y335153D01*
X184815Y335153D01*
X186043Y336382D01*
X186043Y338839D01*
X183586Y338839D01*
X188613Y335153D02*
X188613Y342525D01*
X193528Y335153D01*
X193528Y342525D01*
X196097Y342525D02*
X196097Y335153D01*
X199783Y335153D01*
X201012Y336382D01*
X201012Y341297D01*
X199783Y342525D01*
X196097Y342525D01*
X181129Y360553D02*
X181129Y365468D01*
X183586Y367925D01*
X186043Y365468D01*
X186043Y360553D01*
X186043Y364239D02*
X181129Y364239D01*
X188613Y367925D02*
X188613Y360553D01*
X192299Y360553D01*
X193528Y361782D01*
X193528Y366697D01*
X192299Y367925D01*
X188613Y367925D01*
X199783Y367925D02*
X201012Y366697D01*
X199783Y367925D02*
X197326Y367925D01*
X196097Y366697D01*
X196097Y361782D01*
X197326Y360553D01*
X199783Y360553D01*
X201012Y361782D01*
X79529Y360553D02*
X79529Y365468D01*
X81986Y367925D01*
X84443Y365468D01*
X84443Y360553D01*
X84443Y364239D02*
X79529Y364239D01*
X87013Y367925D02*
X87013Y360553D01*
X90699Y360553D01*
X91928Y361782D01*
X91928Y366697D01*
X90699Y367925D01*
X87013Y367925D01*
X98183Y367925D02*
X99412Y366697D01*
X98183Y367925D02*
X95726Y367925D01*
X94497Y366697D01*
X94497Y361782D01*
X95726Y360553D01*
X98183Y360553D01*
X99412Y361782D01*
X181129Y385953D02*
X181129Y393325D01*
X184815Y393325D01*
X186043Y392097D01*
X186043Y389639D01*
X184815Y388410D01*
X181129Y388410D01*
X188613Y385953D02*
X188613Y393325D01*
X191070Y388410D02*
X188613Y385953D01*
X191070Y388410D02*
X193528Y385953D01*
X193528Y393325D01*
X196097Y393325D02*
X196097Y385953D01*
X198554Y390868D02*
X196097Y393325D01*
X198554Y390868D02*
X201012Y393325D01*
X201012Y385953D01*
X79529Y385953D02*
X79529Y393325D01*
X83215Y393325D01*
X84443Y392097D01*
X84443Y389639D01*
X83215Y388410D01*
X79529Y388410D01*
X87013Y385953D02*
X87013Y393325D01*
X89470Y388410D02*
X87013Y385953D01*
X89470Y388410D02*
X91928Y385953D01*
X91928Y393325D01*
X94497Y393325D02*
X94497Y385953D01*
X96954Y390868D02*
X94497Y393325D01*
X96954Y390868D02*
X99412Y393325D01*
X99412Y385953D01*
X324225Y448963D02*
X331597Y448963D01*
X331597Y452649D01*
X330368Y453878D01*
X325453Y453878D01*
X324225Y452649D01*
X324225Y448963D01*
X330368Y456447D02*
X331597Y457676D01*
X331597Y460133D01*
X330368Y461362D01*
X325453Y461362D01*
X324225Y460133D01*
X324225Y457676D01*
X325453Y456447D01*
X326682Y456447D01*
X327911Y457676D01*
X327911Y461362D01*
X142538Y569347D02*
X140081Y566890D01*
X142538Y569347D02*
X142538Y561975D01*
X140081Y561975D02*
X144996Y561975D01*
X147565Y559518D02*
X150023Y561975D01*
X150023Y563204D01*
X148794Y563204D01*
X148794Y561975D01*
X150023Y561975D01*
X152555Y568119D02*
X153783Y569347D01*
X156241Y569347D01*
X157469Y568119D01*
X157469Y566890D01*
X156241Y565661D01*
X155012Y565661D01*
X156241Y565661D02*
X157469Y564432D01*
X157469Y563204D01*
X156241Y561975D01*
X153783Y561975D01*
X152555Y563204D01*
X160039Y559518D02*
X162496Y561975D01*
X162496Y563204D01*
X161267Y563204D01*
X161267Y561975D01*
X162496Y561975D01*
X165028Y569347D02*
X169943Y569347D01*
X165028Y569347D02*
X165028Y565661D01*
X167486Y566890D01*
X168714Y566890D01*
X169943Y565661D01*
X169943Y563204D01*
X168714Y561975D01*
X166257Y561975D01*
X165028Y563204D01*
X172512Y559518D02*
X174970Y561975D01*
X174970Y563204D01*
X173741Y563204D01*
X173741Y561975D01*
X174970Y561975D01*
X177502Y569347D02*
X182417Y569347D01*
X182417Y568119D01*
X177502Y563204D01*
X177502Y561975D01*
X184986Y559518D02*
X187443Y561975D01*
X187443Y563204D01*
X186215Y563204D01*
X186215Y561975D01*
X187443Y561975D01*
X189975Y563204D02*
X191204Y561975D01*
X193662Y561975D01*
X194890Y563204D01*
X194890Y568119D01*
X193662Y569347D01*
X191204Y569347D01*
X189975Y568119D01*
X189975Y566890D01*
X191204Y565661D01*
X194890Y565661D01*
X197460Y565661D02*
X202374Y565661D01*
X208630Y569347D02*
X209859Y568119D01*
X208630Y569347D02*
X206172Y569347D01*
X204944Y568119D01*
X204944Y563204D01*
X206172Y561975D01*
X208630Y561975D01*
X209859Y563204D01*
X209859Y565661D01*
X207401Y565661D01*
X212428Y561975D02*
X212428Y569347D01*
X217343Y561975D01*
X217343Y569347D01*
X219912Y569347D02*
X219912Y561975D01*
X223598Y561975D01*
X224827Y563204D01*
X224827Y568119D01*
X223598Y569347D01*
X219912Y569347D01*
X428282Y448963D02*
X433197Y448963D01*
X428282Y448963D02*
X425825Y451420D01*
X428282Y453878D01*
X433197Y453878D01*
X429511Y453878D02*
X429511Y448963D01*
X433197Y460133D02*
X425825Y460133D01*
X429511Y456447D01*
X429511Y461362D01*
X407797Y448963D02*
X402882Y448963D01*
X400425Y451420D01*
X402882Y453878D01*
X407797Y453878D01*
X404111Y453878D02*
X404111Y448963D01*
X401653Y456447D02*
X400425Y457676D01*
X400425Y460133D01*
X401653Y461362D01*
X402882Y461362D01*
X404111Y460133D01*
X404111Y458904D01*
X404111Y460133D02*
X405340Y461362D01*
X406568Y461362D01*
X407797Y460133D01*
X407797Y457676D01*
X406568Y456447D01*
X382397Y448963D02*
X377482Y448963D01*
X375025Y451420D01*
X377482Y453878D01*
X382397Y453878D01*
X378711Y453878D02*
X378711Y448963D01*
X382397Y456447D02*
X382397Y461362D01*
X382397Y456447D02*
X377482Y461362D01*
X376253Y461362D01*
X375025Y460133D01*
X375025Y457676D01*
X376253Y456447D01*
X141097Y451420D02*
X133725Y451420D01*
X133725Y448963D02*
X133725Y453878D01*
X133725Y456447D02*
X141097Y461362D01*
X141097Y456447D02*
X133725Y461362D01*
X115697Y448963D02*
X108325Y448963D01*
X108325Y452649D01*
X109553Y453878D01*
X112011Y453878D01*
X113240Y452649D01*
X113240Y448963D01*
X113240Y451420D02*
X115697Y453878D01*
X115697Y461362D02*
X108325Y456447D01*
X108325Y461362D02*
X115697Y456447D01*
X349625Y441479D02*
X356997Y441479D01*
X356997Y445165D01*
X355768Y446393D01*
X350853Y446393D01*
X349625Y445165D01*
X349625Y441479D01*
X352082Y448963D02*
X349625Y451420D01*
X356997Y451420D01*
X356997Y448963D02*
X356997Y453878D01*
X355768Y456447D02*
X350853Y456447D01*
X349625Y457676D01*
X349625Y460133D01*
X350853Y461362D01*
X355768Y461362D01*
X356997Y460133D01*
X356997Y457676D01*
X355768Y456447D01*
X350853Y461362D01*
X404997Y316446D02*
X404997Y311531D01*
X404997Y316446D02*
X406225Y316446D01*
X411140Y311531D01*
X412369Y311531D01*
X406225Y319015D02*
X404997Y320244D01*
X404997Y322701D01*
X406225Y323930D01*
X407454Y323930D01*
X408683Y322701D01*
X409912Y323930D01*
X411140Y323930D01*
X412369Y322701D01*
X412369Y320244D01*
X411140Y319015D01*
X409912Y319015D01*
X408683Y320244D01*
X407454Y319015D01*
X406225Y319015D01*
X408683Y320244D02*
X408683Y322701D01*
X411140Y326499D02*
X406225Y326499D01*
X404997Y327728D01*
X404997Y330185D01*
X406225Y331414D01*
X411140Y331414D01*
X412369Y330185D01*
X412369Y327728D01*
X411140Y326499D01*
X406225Y331414D01*
X411140Y333983D02*
X412369Y335212D01*
X412369Y337670D01*
X411140Y338898D01*
X406225Y338898D01*
X404997Y337670D01*
X404997Y335212D01*
X406225Y333983D01*
X407454Y333983D01*
X408683Y335212D01*
X408683Y338898D01*
X349631Y566763D02*
X352088Y569220D01*
X352088Y561848D01*
X349631Y561848D02*
X354546Y561848D01*
X357115Y559391D02*
X359573Y561848D01*
X359573Y563077D01*
X358344Y563077D01*
X358344Y561848D01*
X359573Y561848D01*
X362105Y567992D02*
X363333Y569220D01*
X365791Y569220D01*
X367019Y567992D01*
X367019Y566763D01*
X365791Y565534D01*
X364562Y565534D01*
X365791Y565534D02*
X367019Y564305D01*
X367019Y563077D01*
X365791Y561848D01*
X363333Y561848D01*
X362105Y563077D01*
X369589Y559391D02*
X372046Y561848D01*
X372046Y563077D01*
X370817Y563077D01*
X370817Y561848D01*
X372046Y561848D01*
X374578Y569220D02*
X379493Y569220D01*
X374578Y569220D02*
X374578Y565534D01*
X377036Y566763D01*
X378264Y566763D01*
X379493Y565534D01*
X379493Y563077D01*
X378264Y561848D01*
X375807Y561848D01*
X374578Y563077D01*
X382062Y559391D02*
X384520Y561848D01*
X384520Y563077D01*
X383291Y563077D01*
X383291Y561848D01*
X384520Y561848D01*
X387052Y569220D02*
X391967Y569220D01*
X391967Y567992D01*
X387052Y563077D01*
X387052Y561848D01*
X394536Y559391D02*
X396993Y561848D01*
X396993Y563077D01*
X395765Y563077D01*
X395765Y561848D01*
X396993Y561848D01*
X399525Y563077D02*
X400754Y561848D01*
X403212Y561848D01*
X404440Y563077D01*
X404440Y567992D01*
X403212Y569220D01*
X400754Y569220D01*
X399525Y567992D01*
X399525Y566763D01*
X400754Y565534D01*
X404440Y565534D01*
X407010Y565534D02*
X411924Y565534D01*
X418180Y569220D02*
X419409Y567992D01*
X418180Y569220D02*
X415722Y569220D01*
X414494Y567992D01*
X414494Y563077D01*
X415722Y561848D01*
X418180Y561848D01*
X419409Y563077D01*
X419409Y565534D01*
X416951Y565534D01*
X421978Y561848D02*
X421978Y569220D01*
X426893Y561848D01*
X426893Y569220D01*
X429462Y569220D02*
X429462Y561848D01*
X433148Y561848D01*
X434377Y563077D01*
X434377Y567992D01*
X433148Y569220D01*
X429462Y569220D01*
D12*
X503668Y56985D02*
X509091Y51562D01*
X503668Y56985D02*
X519938Y56985D01*
X519938Y51562D02*
X519938Y62409D01*
X517226Y67934D02*
X506380Y67934D01*
X503668Y70645D01*
X503668Y76069D01*
X506380Y78780D01*
X517226Y78780D01*
X519938Y76069D01*
X519938Y70645D01*
X517226Y67934D01*
X506380Y78780D01*
X519938Y84305D02*
X503668Y95152D01*
X519938Y100677D02*
X519938Y111523D01*
X519938Y100677D02*
X509091Y111523D01*
X506380Y111523D01*
X503668Y108812D01*
X503668Y103388D01*
X506380Y100677D01*
X506380Y117048D02*
X517226Y117048D01*
X506380Y117048D02*
X503668Y119760D01*
X503668Y125183D01*
X506380Y127895D01*
X517226Y127895D01*
X519938Y125183D01*
X519938Y119760D01*
X517226Y117048D01*
X506380Y127895D01*
X519938Y133420D02*
X519938Y144266D01*
X519938Y133420D02*
X509091Y144266D01*
X506380Y144266D01*
X503668Y141555D01*
X503668Y136131D01*
X506380Y133420D01*
X509091Y149791D02*
X503668Y155215D01*
X519938Y155215D01*
X519938Y160638D02*
X519938Y149791D01*
D11*
X191897Y436489D02*
X191897Y438947D01*
X191897Y437718D02*
X184525Y437718D01*
X184525Y436489D02*
X184525Y438947D01*
X184525Y441479D02*
X191897Y441479D01*
X191897Y446393D02*
X184525Y441479D01*
X184525Y446393D02*
X191897Y446393D01*
X191897Y451420D02*
X184525Y451420D01*
X184525Y448963D02*
X184525Y453878D01*
X191897Y456447D02*
X191897Y461362D01*
X191897Y456447D02*
X186982Y461362D01*
X185753Y461362D01*
X184525Y460133D01*
X184525Y457676D01*
X185753Y456447D01*
X217297Y438947D02*
X217297Y436489D01*
X217297Y437718D02*
X209925Y437718D01*
X209925Y436489D02*
X209925Y438947D01*
X209925Y441479D02*
X217297Y441479D01*
X217297Y446393D02*
X209925Y441479D01*
X209925Y446393D02*
X217297Y446393D01*
X217297Y451420D02*
X209925Y451420D01*
X209925Y448963D02*
X209925Y453878D01*
X211153Y456447D02*
X209925Y457676D01*
X209925Y460133D01*
X211153Y461362D01*
X212382Y461362D01*
X213611Y460133D01*
X213611Y458904D01*
X213611Y460133D02*
X214840Y461362D01*
X216068Y461362D01*
X217297Y460133D01*
X217297Y457676D01*
X216068Y456447D01*
X166497Y448963D02*
X161582Y448963D01*
X159125Y451420D01*
X161582Y453878D01*
X166497Y453878D01*
X162811Y453878D02*
X162811Y448963D01*
X159125Y456447D02*
X159125Y461362D01*
X159125Y456447D02*
X162811Y456447D01*
X161582Y458904D01*
X161582Y460133D01*
X162811Y461362D01*
X165268Y461362D01*
X166497Y460133D01*
X166497Y457676D01*
X165268Y456447D01*
X453688Y181785D02*
X456146Y183013D01*
X453688Y181785D02*
X451231Y179327D01*
X451231Y176870D01*
X452460Y175641D01*
X454917Y175641D01*
X456146Y176870D01*
X456146Y178098D01*
X454917Y179327D01*
X451231Y179327D01*
X466199Y179327D02*
X471114Y179327D01*
X484854Y183013D02*
X486082Y181785D01*
X484854Y183013D02*
X482396Y183013D01*
X481168Y181785D01*
X481168Y176870D01*
X482396Y175641D01*
X484854Y175641D01*
X486082Y176870D01*
X486082Y179327D01*
X483625Y179327D01*
X488652Y175641D02*
X488652Y183013D01*
X493567Y175641D01*
X493567Y183013D01*
X496136Y183013D02*
X496136Y175641D01*
X499822Y175641D01*
X501051Y176870D01*
X501051Y181785D01*
X499822Y183013D01*
X496136Y183013D01*
X456146Y170821D02*
X451231Y170821D01*
X451231Y167135D01*
X453688Y168364D01*
X454917Y168364D01*
X456146Y167135D01*
X456146Y164678D01*
X454917Y163449D01*
X452460Y163449D01*
X451231Y164678D01*
X466199Y167135D02*
X471114Y167135D01*
X484854Y170821D02*
X486082Y169593D01*
X484854Y170821D02*
X482396Y170821D01*
X481168Y169593D01*
X481168Y168364D01*
X482396Y167135D01*
X484854Y167135D01*
X486082Y165906D01*
X486082Y164678D01*
X484854Y163449D01*
X482396Y163449D01*
X481168Y164678D01*
X492338Y170821D02*
X493567Y169593D01*
X492338Y170821D02*
X489880Y170821D01*
X488652Y169593D01*
X488652Y164678D01*
X489880Y163449D01*
X492338Y163449D01*
X493567Y164678D01*
X496136Y163449D02*
X496136Y170821D01*
X496136Y163449D02*
X501051Y163449D01*
X454917Y158629D02*
X454917Y151257D01*
X451231Y154943D02*
X454917Y158629D01*
X456146Y154943D02*
X451231Y154943D01*
X466199Y154943D02*
X471114Y154943D01*
X484854Y158629D02*
X486082Y157401D01*
X484854Y158629D02*
X482396Y158629D01*
X481168Y157401D01*
X481168Y156172D01*
X482396Y154943D01*
X484854Y154943D01*
X486082Y153714D01*
X486082Y152486D01*
X484854Y151257D01*
X482396Y151257D01*
X481168Y152486D01*
X488652Y151257D02*
X488652Y158629D01*
X488652Y151257D02*
X492338Y151257D01*
X493567Y152486D01*
X493567Y157401D01*
X492338Y158629D01*
X488652Y158629D01*
X496136Y156172D02*
X501051Y151257D01*
X496136Y151257D02*
X501051Y156172D01*
X452460Y146437D02*
X451231Y145209D01*
X452460Y146437D02*
X454917Y146437D01*
X456146Y145209D01*
X456146Y143980D01*
X454917Y142751D01*
X453688Y142751D01*
X454917Y142751D02*
X456146Y141522D01*
X456146Y140294D01*
X454917Y139065D01*
X452460Y139065D01*
X451231Y140294D01*
X466199Y142751D02*
X471114Y142751D01*
X484854Y146437D02*
X486082Y145209D01*
X484854Y146437D02*
X482396Y146437D01*
X481168Y145209D01*
X481168Y140294D01*
X482396Y139065D01*
X484854Y139065D01*
X486082Y140294D01*
X492338Y146437D02*
X493567Y145209D01*
X492338Y146437D02*
X489880Y146437D01*
X488652Y145209D01*
X488652Y143980D01*
X489880Y142751D01*
X492338Y142751D01*
X493567Y141522D01*
X493567Y140294D01*
X492338Y139065D01*
X489880Y139065D01*
X488652Y140294D01*
X456146Y126873D02*
X451231Y126873D01*
X456146Y131788D01*
X456146Y133017D01*
X454917Y134245D01*
X452460Y134245D01*
X451231Y133017D01*
X466199Y130559D02*
X471114Y130559D01*
X481168Y128102D02*
X482396Y126873D01*
X484854Y126873D01*
X486082Y128102D01*
X486082Y133017D01*
X484854Y134245D01*
X482396Y134245D01*
X481168Y133017D01*
X481168Y131788D01*
X482396Y130559D01*
X486082Y130559D01*
X488652Y129330D02*
X488652Y134245D01*
X488652Y129330D02*
X491109Y126873D01*
X493567Y129330D01*
X493567Y134245D01*
X453688Y122053D02*
X451231Y119596D01*
X453688Y122053D02*
X453688Y114681D01*
X451231Y114681D02*
X456146Y114681D01*
X466199Y118367D02*
X471114Y118367D01*
X484854Y122053D02*
X486082Y120825D01*
X484854Y122053D02*
X482396Y122053D01*
X481168Y120825D01*
X481168Y115910D01*
X482396Y114681D01*
X484854Y114681D01*
X486082Y115910D01*
X486082Y118367D01*
X483625Y118367D01*
X488652Y114681D02*
X488652Y122053D01*
X493567Y114681D01*
X493567Y122053D01*
X496136Y122053D02*
X496136Y114681D01*
X499822Y114681D01*
X501051Y115910D01*
X501051Y120825D01*
X499822Y122053D01*
X496136Y122053D01*
D12*
X477012Y36082D02*
X477012Y25235D01*
X482435Y19812D01*
X487859Y25235D01*
X487859Y36082D01*
X493384Y19812D02*
X504230Y19812D01*
X493384Y19812D02*
X504230Y30659D01*
X504230Y33370D01*
X501519Y36082D01*
X496095Y36082D01*
X493384Y33370D01*
D13*
X441960Y247650D02*
X438150Y247650D01*
D14*
X441960Y260350D02*
X412750Y260350D01*
X441960Y260350D02*
X441960Y247650D01*
X441960Y245110D01*
X441960Y184150D01*
X441960Y107950D02*
X412750Y107950D01*
X441960Y107950D02*
X441960Y184150D01*
X412750Y260350D02*
X383540Y260350D01*
X383540Y185420D01*
X383540Y107950D02*
X412750Y107950D01*
X383540Y107950D02*
X383540Y185420D01*
X383540Y254000D02*
X383540Y257810D01*
X383540Y254000D02*
X389890Y254000D01*
X389890Y241300D01*
X383540Y241300D01*
X383540Y228600D01*
X389890Y228600D01*
X389890Y215900D01*
X383540Y215900D01*
X383540Y203200D01*
X389890Y203200D01*
X389890Y190500D01*
X383540Y190500D01*
X383540Y177800D01*
X389890Y177800D01*
X389890Y165100D01*
X383540Y165100D01*
X383540Y152400D01*
X389890Y152400D01*
X389890Y139700D01*
X383540Y139700D01*
X383540Y127000D01*
X389890Y127000D01*
X389890Y114300D01*
X383540Y114300D01*
X383540Y107950D01*
X431800Y247650D02*
X441960Y247650D01*
X431800Y247650D02*
X431800Y245110D01*
X431800Y123190D01*
X431800Y120650D01*
X441960Y120650D01*
X426720Y245110D02*
X431800Y247650D01*
X431800Y245110D02*
X441960Y245110D01*
X426720Y245110D02*
X426720Y123190D01*
X431800Y120650D01*
X431800Y123190D02*
X441960Y123190D01*
D15*
X413702Y93604D02*
X410059Y97248D01*
X420990Y97248D01*
X420990Y93604D02*
X420990Y100892D01*
X411119Y264888D02*
X409297Y268532D01*
X411119Y264888D02*
X414762Y261244D01*
X418406Y261244D01*
X420228Y263066D01*
X420228Y266710D01*
X418406Y268532D01*
X416584Y268532D01*
X414762Y266710D01*
X414762Y261244D01*
X392462Y85833D02*
X392462Y75834D01*
X392462Y85833D02*
X397461Y90833D01*
X402461Y85833D01*
X402461Y75834D01*
X402461Y83333D02*
X392462Y83333D01*
X407898Y90833D02*
X407898Y75834D01*
X415397Y75834D01*
X417897Y78334D01*
X417897Y88333D01*
X415397Y90833D01*
X407898Y90833D01*
X423334Y88333D02*
X423334Y78334D01*
X423334Y88333D02*
X425834Y90833D01*
X430833Y90833D01*
X433333Y88333D01*
X433333Y78334D01*
X430833Y75834D01*
X425834Y75834D01*
X423334Y78334D01*
X433333Y88333D01*
D13*
X346710Y247650D02*
X342900Y247650D01*
D14*
X346710Y260350D02*
X317500Y260350D01*
X346710Y260350D02*
X346710Y247650D01*
X346710Y245110D01*
X346710Y184150D01*
X346710Y107950D02*
X317500Y107950D01*
X346710Y107950D02*
X346710Y184150D01*
X317500Y260350D02*
X288290Y260350D01*
X288290Y185420D01*
X288290Y107950D02*
X317500Y107950D01*
X288290Y107950D02*
X288290Y185420D01*
X288290Y254000D02*
X288290Y257810D01*
X288290Y254000D02*
X294640Y254000D01*
X294640Y241300D01*
X288290Y241300D01*
X288290Y228600D01*
X294640Y228600D01*
X294640Y215900D01*
X288290Y215900D01*
X288290Y203200D01*
X294640Y203200D01*
X294640Y190500D01*
X288290Y190500D01*
X288290Y177800D01*
X294640Y177800D01*
X294640Y165100D01*
X288290Y165100D01*
X288290Y152400D01*
X294640Y152400D01*
X294640Y139700D01*
X288290Y139700D01*
X288290Y127000D01*
X294640Y127000D01*
X294640Y114300D01*
X288290Y114300D01*
X288290Y107950D01*
X336550Y247650D02*
X346710Y247650D01*
X336550Y247650D02*
X336550Y245110D01*
X336550Y123190D01*
X336550Y120650D01*
X346710Y120650D01*
X331470Y245110D02*
X336550Y247650D01*
X336550Y245110D02*
X346710Y245110D01*
X331470Y245110D02*
X331470Y123190D01*
X336550Y120650D01*
X336550Y123190D02*
X346710Y123190D01*
D15*
X318452Y93604D02*
X314809Y97248D01*
X325740Y97248D01*
X325740Y93604D02*
X325740Y100892D01*
X315869Y264888D02*
X314047Y268532D01*
X315869Y264888D02*
X319512Y261244D01*
X323156Y261244D01*
X324978Y263066D01*
X324978Y266710D01*
X323156Y268532D01*
X321334Y268532D01*
X319512Y266710D01*
X319512Y261244D01*
X288055Y278018D02*
X288055Y288695D01*
X293394Y294034D01*
X298732Y288695D01*
X298732Y278018D01*
X298732Y286026D02*
X288055Y286026D01*
X304427Y294034D02*
X304427Y278018D01*
X312435Y278018D01*
X315104Y280687D01*
X315104Y291364D01*
X312435Y294034D01*
X304427Y294034D01*
X320798Y288695D02*
X326137Y294034D01*
X326137Y278018D01*
X320798Y278018D02*
X331476Y278018D01*
D13*
X251460Y247650D02*
X247650Y247650D01*
D14*
X251460Y260350D02*
X222250Y260350D01*
X251460Y260350D02*
X251460Y247650D01*
X251460Y245110D01*
X251460Y184150D01*
X251460Y107950D02*
X222250Y107950D01*
X251460Y107950D02*
X251460Y184150D01*
X222250Y260350D02*
X193040Y260350D01*
X193040Y185420D01*
X193040Y107950D02*
X222250Y107950D01*
X193040Y107950D02*
X193040Y185420D01*
X193040Y254000D02*
X193040Y257810D01*
X193040Y254000D02*
X199390Y254000D01*
X199390Y241300D01*
X193040Y241300D01*
X193040Y228600D01*
X199390Y228600D01*
X199390Y215900D01*
X193040Y215900D01*
X193040Y203200D01*
X199390Y203200D01*
X199390Y190500D01*
X193040Y190500D01*
X193040Y177800D01*
X199390Y177800D01*
X199390Y165100D01*
X193040Y165100D01*
X193040Y152400D01*
X199390Y152400D01*
X199390Y139700D01*
X193040Y139700D01*
X193040Y127000D01*
X199390Y127000D01*
X199390Y114300D01*
X193040Y114300D01*
X193040Y107950D01*
X241300Y247650D02*
X251460Y247650D01*
X241300Y247650D02*
X241300Y245110D01*
X241300Y123190D01*
X241300Y120650D01*
X251460Y120650D01*
X236220Y245110D02*
X241300Y247650D01*
X241300Y245110D02*
X251460Y245110D01*
X236220Y245110D02*
X236220Y123190D01*
X241300Y120650D01*
X241300Y123190D02*
X251460Y123190D01*
D15*
X223202Y93604D02*
X219559Y97248D01*
X230490Y97248D01*
X230490Y93604D02*
X230490Y100892D01*
X220619Y264888D02*
X218797Y268532D01*
X220619Y264888D02*
X224262Y261244D01*
X227906Y261244D01*
X229728Y263066D01*
X229728Y266710D01*
X227906Y268532D01*
X226084Y268532D01*
X224262Y266710D01*
X224262Y261244D01*
X199155Y278018D02*
X199155Y288695D01*
X204494Y294034D01*
X209832Y288695D01*
X209832Y278018D01*
X209832Y286026D02*
X199155Y286026D01*
X215527Y294034D02*
X215527Y278018D01*
X223535Y278018D01*
X226204Y280687D01*
X226204Y291364D01*
X223535Y294034D01*
X215527Y294034D01*
X231898Y278018D02*
X242576Y278018D01*
X242576Y288695D02*
X231898Y278018D01*
X242576Y288695D02*
X242576Y291364D01*
X239906Y294034D01*
X234568Y294034D01*
X231898Y291364D01*
D13*
X156210Y247650D02*
X152400Y247650D01*
D14*
X156210Y260350D02*
X127000Y260350D01*
X156210Y260350D02*
X156210Y247650D01*
X156210Y245110D01*
X156210Y184150D01*
X156210Y107950D02*
X127000Y107950D01*
X156210Y107950D02*
X156210Y184150D01*
X127000Y260350D02*
X97790Y260350D01*
X97790Y185420D01*
X97790Y107950D02*
X127000Y107950D01*
X97790Y107950D02*
X97790Y185420D01*
X97790Y254000D02*
X97790Y257810D01*
X97790Y254000D02*
X104140Y254000D01*
X104140Y241300D01*
X97790Y241300D01*
X97790Y228600D01*
X104140Y228600D01*
X104140Y215900D01*
X97790Y215900D01*
X97790Y203200D01*
X104140Y203200D01*
X104140Y190500D01*
X97790Y190500D01*
X97790Y177800D01*
X104140Y177800D01*
X104140Y165100D01*
X97790Y165100D01*
X97790Y152400D01*
X104140Y152400D01*
X104140Y139700D01*
X97790Y139700D01*
X97790Y127000D01*
X104140Y127000D01*
X104140Y114300D01*
X97790Y114300D01*
X97790Y107950D01*
X146050Y247650D02*
X156210Y247650D01*
X146050Y247650D02*
X146050Y245110D01*
X146050Y123190D01*
X146050Y120650D01*
X156210Y120650D01*
X140970Y245110D02*
X146050Y247650D01*
X146050Y245110D02*
X156210Y245110D01*
X140970Y245110D02*
X140970Y123190D01*
X146050Y120650D01*
X146050Y123190D02*
X156210Y123190D01*
D15*
X127952Y93604D02*
X124309Y97248D01*
X135240Y97248D01*
X135240Y93604D02*
X135240Y100892D01*
X125369Y264888D02*
X123547Y268532D01*
X125369Y264888D02*
X129012Y261244D01*
X132656Y261244D01*
X134478Y263066D01*
X134478Y266710D01*
X132656Y268532D01*
X130834Y268532D01*
X129012Y266710D01*
X129012Y261244D01*
X103905Y278018D02*
X103905Y288695D01*
X109244Y294034D01*
X114582Y288695D01*
X114582Y278018D01*
X114582Y286026D02*
X103905Y286026D01*
X120277Y294034D02*
X120277Y278018D01*
X128285Y278018D01*
X130954Y280687D01*
X130954Y291364D01*
X128285Y294034D01*
X120277Y294034D01*
X136648Y291364D02*
X139318Y294034D01*
X144656Y294034D01*
X147326Y291364D01*
X147326Y288695D01*
X144656Y286026D01*
X141987Y286026D01*
X144656Y286026D02*
X147326Y283357D01*
X147326Y280687D01*
X144656Y278018D01*
X139318Y278018D01*
X136648Y280687D01*
D13*
X422910Y312420D02*
X452120Y311150D01*
X422910Y312420D02*
X420370Y314960D01*
X420370Y408940D01*
X422910Y411480D01*
X452120Y412750D01*
X423926Y406908D02*
X423928Y407008D01*
X423934Y407109D01*
X423944Y407208D01*
X423958Y407308D01*
X423975Y407407D01*
X423997Y407505D01*
X424023Y407602D01*
X424052Y407698D01*
X424085Y407792D01*
X424122Y407886D01*
X424162Y407978D01*
X424206Y408068D01*
X424254Y408156D01*
X424305Y408243D01*
X424359Y408327D01*
X424417Y408409D01*
X424478Y408489D01*
X424542Y408566D01*
X424609Y408641D01*
X424679Y408713D01*
X424752Y408782D01*
X424827Y408848D01*
X424905Y408912D01*
X424985Y408972D01*
X425068Y409029D01*
X425153Y409082D01*
X425240Y409132D01*
X425329Y409179D01*
X425419Y409222D01*
X425511Y409262D01*
X425605Y409298D01*
X425700Y409330D01*
X425796Y409358D01*
X425894Y409383D01*
X425992Y409403D01*
X426091Y409420D01*
X426191Y409433D01*
X426290Y409442D01*
X426391Y409447D01*
X426491Y409448D01*
X426591Y409445D01*
X426692Y409438D01*
X426791Y409427D01*
X426891Y409412D01*
X426989Y409394D01*
X427087Y409371D01*
X427184Y409344D01*
X427279Y409314D01*
X427374Y409280D01*
X427467Y409242D01*
X427558Y409201D01*
X427648Y409156D01*
X427736Y409108D01*
X427822Y409056D01*
X427906Y409001D01*
X427987Y408942D01*
X428066Y408880D01*
X428143Y408816D01*
X428217Y408748D01*
X428288Y408677D01*
X428357Y408604D01*
X428422Y408528D01*
X428485Y408449D01*
X428544Y408368D01*
X428600Y408285D01*
X428653Y408200D01*
X428702Y408112D01*
X428748Y408023D01*
X428790Y407932D01*
X428829Y407839D01*
X428864Y407745D01*
X428895Y407650D01*
X428923Y407553D01*
X428946Y407456D01*
X428966Y407357D01*
X428982Y407258D01*
X428994Y407159D01*
X429002Y407058D01*
X429006Y406958D01*
X429006Y406858D01*
X429002Y406758D01*
X428994Y406657D01*
X428982Y406558D01*
X428966Y406459D01*
X428946Y406360D01*
X428923Y406263D01*
X428895Y406166D01*
X428864Y406071D01*
X428829Y405977D01*
X428790Y405884D01*
X428748Y405793D01*
X428702Y405704D01*
X428653Y405616D01*
X428600Y405531D01*
X428544Y405448D01*
X428485Y405367D01*
X428422Y405288D01*
X428357Y405212D01*
X428288Y405139D01*
X428217Y405068D01*
X428143Y405000D01*
X428066Y404936D01*
X427987Y404874D01*
X427906Y404815D01*
X427822Y404760D01*
X427736Y404708D01*
X427648Y404660D01*
X427558Y404615D01*
X427467Y404574D01*
X427374Y404536D01*
X427279Y404502D01*
X427184Y404472D01*
X427087Y404445D01*
X426989Y404422D01*
X426891Y404404D01*
X426791Y404389D01*
X426692Y404378D01*
X426591Y404371D01*
X426491Y404368D01*
X426391Y404369D01*
X426290Y404374D01*
X426191Y404383D01*
X426091Y404396D01*
X425992Y404413D01*
X425894Y404433D01*
X425796Y404458D01*
X425700Y404486D01*
X425605Y404518D01*
X425511Y404554D01*
X425419Y404594D01*
X425329Y404637D01*
X425240Y404684D01*
X425153Y404734D01*
X425068Y404787D01*
X424985Y404844D01*
X424905Y404904D01*
X424827Y404968D01*
X424752Y405034D01*
X424679Y405103D01*
X424609Y405175D01*
X424542Y405250D01*
X424478Y405327D01*
X424417Y405407D01*
X424359Y405489D01*
X424305Y405573D01*
X424254Y405660D01*
X424206Y405748D01*
X424162Y405838D01*
X424122Y405930D01*
X424085Y406024D01*
X424052Y406118D01*
X424023Y406214D01*
X423997Y406311D01*
X423975Y406409D01*
X423958Y406508D01*
X423944Y406608D01*
X423934Y406707D01*
X423928Y406808D01*
X423926Y406908D01*
D16*
X459740Y361950D03*
D17*
X453390Y405765D03*
D18*
X453390Y374650D03*
X453390Y349250D03*
D17*
X453390Y318135D03*
D13*
X478663Y382201D02*
X478663Y386014D01*
X478663Y384108D02*
X467223Y384108D01*
X467223Y386014D02*
X467223Y382201D01*
X467223Y395717D02*
X469130Y397624D01*
X467223Y395717D02*
X467223Y391904D01*
X469130Y389997D01*
X476756Y389997D01*
X478663Y391904D01*
X478663Y395717D01*
X476756Y397624D01*
X478663Y401691D02*
X478663Y409317D01*
X478663Y401691D02*
X471037Y409317D01*
X469130Y409317D01*
X467223Y407411D01*
X467223Y403598D01*
X469130Y401691D01*
D19*
X409702Y431800D02*
X409702Y438150D01*
X409702Y431800D02*
X409702Y425450D01*
D12*
X409702Y431800D02*
X397510Y431800D01*
D19*
X416052Y431800D02*
X416052Y438150D01*
X416052Y431800D02*
X416052Y425450D01*
D12*
X416052Y431800D02*
X427990Y431800D01*
X375920Y441960D02*
X375920Y421640D01*
X378460Y419100D02*
X447040Y419100D01*
X449580Y421640D02*
X449580Y441960D01*
X447040Y444500D02*
X378460Y444500D01*
X447040Y444500D02*
X447140Y444498D01*
X447239Y444492D01*
X447339Y444482D01*
X447437Y444469D01*
X447536Y444451D01*
X447633Y444430D01*
X447729Y444405D01*
X447825Y444376D01*
X447919Y444343D01*
X448012Y444307D01*
X448103Y444267D01*
X448193Y444223D01*
X448281Y444176D01*
X448367Y444126D01*
X448451Y444072D01*
X448533Y444015D01*
X448612Y443955D01*
X448690Y443891D01*
X448764Y443825D01*
X448836Y443756D01*
X448905Y443684D01*
X448971Y443610D01*
X449035Y443532D01*
X449095Y443453D01*
X449152Y443371D01*
X449206Y443287D01*
X449256Y443201D01*
X449303Y443113D01*
X449347Y443023D01*
X449387Y442932D01*
X449423Y442839D01*
X449456Y442745D01*
X449485Y442649D01*
X449510Y442553D01*
X449531Y442456D01*
X449549Y442357D01*
X449562Y442259D01*
X449572Y442159D01*
X449578Y442060D01*
X449580Y441960D01*
X449580Y421640D02*
X449578Y421540D01*
X449572Y421441D01*
X449562Y421341D01*
X449549Y421243D01*
X449531Y421144D01*
X449510Y421047D01*
X449485Y420951D01*
X449456Y420855D01*
X449423Y420761D01*
X449387Y420668D01*
X449347Y420577D01*
X449303Y420487D01*
X449256Y420399D01*
X449206Y420313D01*
X449152Y420229D01*
X449095Y420147D01*
X449035Y420068D01*
X448971Y419990D01*
X448905Y419916D01*
X448836Y419844D01*
X448764Y419775D01*
X448690Y419709D01*
X448612Y419645D01*
X448533Y419585D01*
X448451Y419528D01*
X448367Y419474D01*
X448281Y419424D01*
X448193Y419377D01*
X448103Y419333D01*
X448012Y419293D01*
X447919Y419257D01*
X447825Y419224D01*
X447729Y419195D01*
X447633Y419170D01*
X447536Y419149D01*
X447437Y419131D01*
X447339Y419118D01*
X447239Y419108D01*
X447140Y419102D01*
X447040Y419100D01*
X378460Y419100D02*
X378360Y419102D01*
X378261Y419108D01*
X378161Y419118D01*
X378063Y419131D01*
X377964Y419149D01*
X377867Y419170D01*
X377771Y419195D01*
X377675Y419224D01*
X377581Y419257D01*
X377488Y419293D01*
X377397Y419333D01*
X377307Y419377D01*
X377219Y419424D01*
X377133Y419474D01*
X377049Y419528D01*
X376967Y419585D01*
X376888Y419645D01*
X376810Y419709D01*
X376736Y419775D01*
X376664Y419844D01*
X376595Y419916D01*
X376529Y419990D01*
X376465Y420068D01*
X376405Y420147D01*
X376348Y420229D01*
X376294Y420313D01*
X376244Y420399D01*
X376197Y420487D01*
X376153Y420577D01*
X376113Y420668D01*
X376077Y420761D01*
X376044Y420855D01*
X376015Y420951D01*
X375990Y421047D01*
X375969Y421144D01*
X375951Y421243D01*
X375938Y421341D01*
X375928Y421441D01*
X375922Y421540D01*
X375920Y421640D01*
X375920Y441960D02*
X375922Y442060D01*
X375928Y442159D01*
X375938Y442259D01*
X375951Y442357D01*
X375969Y442456D01*
X375990Y442553D01*
X376015Y442649D01*
X376044Y442745D01*
X376077Y442839D01*
X376113Y442932D01*
X376153Y443023D01*
X376197Y443113D01*
X376244Y443201D01*
X376294Y443287D01*
X376348Y443371D01*
X376405Y443453D01*
X376465Y443532D01*
X376529Y443610D01*
X376595Y443684D01*
X376664Y443756D01*
X376736Y443825D01*
X376810Y443891D01*
X376888Y443955D01*
X376967Y444015D01*
X377049Y444072D01*
X377133Y444126D01*
X377219Y444176D01*
X377307Y444223D01*
X377397Y444267D01*
X377488Y444307D01*
X377581Y444343D01*
X377675Y444376D01*
X377771Y444405D01*
X377867Y444430D01*
X377964Y444451D01*
X378063Y444469D01*
X378161Y444482D01*
X378261Y444492D01*
X378360Y444498D01*
X378460Y444500D01*
D13*
X354322Y424822D02*
X352415Y422915D01*
X352415Y419102D01*
X354322Y417195D01*
X361948Y417195D01*
X363855Y419102D01*
X363855Y422915D01*
X361948Y424822D01*
X356229Y428889D02*
X352415Y432702D01*
X363855Y432702D01*
X363855Y428889D02*
X363855Y436515D01*
D12*
X379730Y402590D02*
X379730Y394970D01*
X375920Y398780D02*
X383540Y398780D01*
X327660Y368300D02*
X327672Y369297D01*
X327709Y370294D01*
X327770Y371290D01*
X327856Y372283D01*
X327966Y373275D01*
X328100Y374263D01*
X328258Y375248D01*
X328441Y376228D01*
X328647Y377204D01*
X328878Y378175D01*
X329132Y379139D01*
X329410Y380097D01*
X329711Y381048D01*
X330036Y381991D01*
X330383Y382926D01*
X330754Y383852D01*
X331147Y384769D01*
X331562Y385676D01*
X331999Y386572D01*
X332459Y387458D01*
X332940Y388331D01*
X333442Y389193D01*
X333965Y390042D01*
X334509Y390878D01*
X335073Y391701D01*
X335658Y392509D01*
X336262Y393303D01*
X336885Y394082D01*
X337527Y394845D01*
X338188Y395592D01*
X338867Y396323D01*
X339563Y397037D01*
X340277Y397733D01*
X341008Y398412D01*
X341755Y399073D01*
X342518Y399715D01*
X343297Y400338D01*
X344091Y400942D01*
X344899Y401527D01*
X345722Y402091D01*
X346558Y402635D01*
X347407Y403158D01*
X348269Y403660D01*
X349142Y404141D01*
X350028Y404601D01*
X350924Y405038D01*
X351831Y405453D01*
X352748Y405846D01*
X353674Y406217D01*
X354609Y406564D01*
X355552Y406889D01*
X356503Y407190D01*
X357461Y407468D01*
X358425Y407722D01*
X359396Y407953D01*
X360372Y408159D01*
X361352Y408342D01*
X362337Y408500D01*
X363325Y408634D01*
X364317Y408744D01*
X365310Y408830D01*
X366306Y408891D01*
X367303Y408928D01*
X368300Y408940D01*
X369297Y408928D01*
X370294Y408891D01*
X371290Y408830D01*
X372283Y408744D01*
X373275Y408634D01*
X374263Y408500D01*
X375248Y408342D01*
X376228Y408159D01*
X377204Y407953D01*
X378175Y407722D01*
X379139Y407468D01*
X380097Y407190D01*
X381048Y406889D01*
X381991Y406564D01*
X382926Y406217D01*
X383852Y405846D01*
X384769Y405453D01*
X385676Y405038D01*
X386572Y404601D01*
X387458Y404141D01*
X388331Y403660D01*
X389193Y403158D01*
X390042Y402635D01*
X390878Y402091D01*
X391701Y401527D01*
X392509Y400942D01*
X393303Y400338D01*
X394082Y399715D01*
X394845Y399073D01*
X395592Y398412D01*
X396323Y397733D01*
X397037Y397037D01*
X397733Y396323D01*
X398412Y395592D01*
X399073Y394845D01*
X399715Y394082D01*
X400338Y393303D01*
X400942Y392509D01*
X401527Y391701D01*
X402091Y390878D01*
X402635Y390042D01*
X403158Y389193D01*
X403660Y388331D01*
X404141Y387458D01*
X404601Y386572D01*
X405038Y385676D01*
X405453Y384769D01*
X405846Y383852D01*
X406217Y382926D01*
X406564Y381991D01*
X406889Y381048D01*
X407190Y380097D01*
X407468Y379139D01*
X407722Y378175D01*
X407953Y377204D01*
X408159Y376228D01*
X408342Y375248D01*
X408500Y374263D01*
X408634Y373275D01*
X408744Y372283D01*
X408830Y371290D01*
X408891Y370294D01*
X408928Y369297D01*
X408940Y368300D01*
X408928Y367303D01*
X408891Y366306D01*
X408830Y365310D01*
X408744Y364317D01*
X408634Y363325D01*
X408500Y362337D01*
X408342Y361352D01*
X408159Y360372D01*
X407953Y359396D01*
X407722Y358425D01*
X407468Y357461D01*
X407190Y356503D01*
X406889Y355552D01*
X406564Y354609D01*
X406217Y353674D01*
X405846Y352748D01*
X405453Y351831D01*
X405038Y350924D01*
X404601Y350028D01*
X404141Y349142D01*
X403660Y348269D01*
X403158Y347407D01*
X402635Y346558D01*
X402091Y345722D01*
X401527Y344899D01*
X400942Y344091D01*
X400338Y343297D01*
X399715Y342518D01*
X399073Y341755D01*
X398412Y341008D01*
X397733Y340277D01*
X397037Y339563D01*
X396323Y338867D01*
X395592Y338188D01*
X394845Y337527D01*
X394082Y336885D01*
X393303Y336262D01*
X392509Y335658D01*
X391701Y335073D01*
X390878Y334509D01*
X390042Y333965D01*
X389193Y333442D01*
X388331Y332940D01*
X387458Y332459D01*
X386572Y331999D01*
X385676Y331562D01*
X384769Y331147D01*
X383852Y330754D01*
X382926Y330383D01*
X381991Y330036D01*
X381048Y329711D01*
X380097Y329410D01*
X379139Y329132D01*
X378175Y328878D01*
X377204Y328647D01*
X376228Y328441D01*
X375248Y328258D01*
X374263Y328100D01*
X373275Y327966D01*
X372283Y327856D01*
X371290Y327770D01*
X370294Y327709D01*
X369297Y327672D01*
X368300Y327660D01*
X367303Y327672D01*
X366306Y327709D01*
X365310Y327770D01*
X364317Y327856D01*
X363325Y327966D01*
X362337Y328100D01*
X361352Y328258D01*
X360372Y328441D01*
X359396Y328647D01*
X358425Y328878D01*
X357461Y329132D01*
X356503Y329410D01*
X355552Y329711D01*
X354609Y330036D01*
X353674Y330383D01*
X352748Y330754D01*
X351831Y331147D01*
X350924Y331562D01*
X350028Y331999D01*
X349142Y332459D01*
X348269Y332940D01*
X347407Y333442D01*
X346558Y333965D01*
X345722Y334509D01*
X344899Y335073D01*
X344091Y335658D01*
X343297Y336262D01*
X342518Y336885D01*
X341755Y337527D01*
X341008Y338188D01*
X340277Y338867D01*
X339563Y339563D01*
X338867Y340277D01*
X338188Y341008D01*
X337527Y341755D01*
X336885Y342518D01*
X336262Y343297D01*
X335658Y344091D01*
X335073Y344899D01*
X334509Y345722D01*
X333965Y346558D01*
X333442Y347407D01*
X332940Y348269D01*
X332459Y349142D01*
X331999Y350028D01*
X331562Y350924D01*
X331147Y351831D01*
X330754Y352748D01*
X330383Y353674D01*
X330036Y354609D01*
X329711Y355552D01*
X329410Y356503D01*
X329132Y357461D01*
X328878Y358425D01*
X328647Y359396D01*
X328441Y360372D01*
X328258Y361352D01*
X328100Y362337D01*
X327966Y363325D01*
X327856Y364317D01*
X327770Y365310D01*
X327709Y366306D01*
X327672Y367303D01*
X327660Y368300D01*
D13*
X316222Y345554D02*
X314315Y343647D01*
X314315Y339834D01*
X316222Y337927D01*
X323848Y337927D01*
X325755Y339834D01*
X325755Y343647D01*
X323848Y345554D01*
X325755Y349621D02*
X325755Y357248D01*
X318129Y357248D02*
X325755Y349621D01*
X318129Y357248D02*
X316222Y357248D01*
X314315Y355341D01*
X314315Y351528D01*
X316222Y349621D01*
D19*
X415798Y285750D02*
X415798Y279400D01*
X415798Y285750D02*
X415798Y292100D01*
D12*
X415798Y285750D02*
X427990Y285750D01*
D19*
X409448Y285750D02*
X409448Y279400D01*
X409448Y285750D02*
X409448Y292100D01*
D12*
X409448Y285750D02*
X397510Y285750D01*
X449580Y275590D02*
X449580Y295910D01*
X447040Y298450D02*
X378460Y298450D01*
X375920Y295910D02*
X375920Y275590D01*
X378460Y273050D02*
X447040Y273050D01*
X378460Y273050D02*
X378360Y273052D01*
X378261Y273058D01*
X378161Y273068D01*
X378063Y273081D01*
X377964Y273099D01*
X377867Y273120D01*
X377771Y273145D01*
X377675Y273174D01*
X377581Y273207D01*
X377488Y273243D01*
X377397Y273283D01*
X377307Y273327D01*
X377219Y273374D01*
X377133Y273424D01*
X377049Y273478D01*
X376967Y273535D01*
X376888Y273595D01*
X376810Y273659D01*
X376736Y273725D01*
X376664Y273794D01*
X376595Y273866D01*
X376529Y273940D01*
X376465Y274018D01*
X376405Y274097D01*
X376348Y274179D01*
X376294Y274263D01*
X376244Y274349D01*
X376197Y274437D01*
X376153Y274527D01*
X376113Y274618D01*
X376077Y274711D01*
X376044Y274805D01*
X376015Y274901D01*
X375990Y274997D01*
X375969Y275094D01*
X375951Y275193D01*
X375938Y275291D01*
X375928Y275391D01*
X375922Y275490D01*
X375920Y275590D01*
X375920Y295910D02*
X375922Y296010D01*
X375928Y296109D01*
X375938Y296209D01*
X375951Y296307D01*
X375969Y296406D01*
X375990Y296503D01*
X376015Y296599D01*
X376044Y296695D01*
X376077Y296789D01*
X376113Y296882D01*
X376153Y296973D01*
X376197Y297063D01*
X376244Y297151D01*
X376294Y297237D01*
X376348Y297321D01*
X376405Y297403D01*
X376465Y297482D01*
X376529Y297560D01*
X376595Y297634D01*
X376664Y297706D01*
X376736Y297775D01*
X376810Y297841D01*
X376888Y297905D01*
X376967Y297965D01*
X377049Y298022D01*
X377133Y298076D01*
X377219Y298126D01*
X377307Y298173D01*
X377397Y298217D01*
X377488Y298257D01*
X377581Y298293D01*
X377675Y298326D01*
X377771Y298355D01*
X377867Y298380D01*
X377964Y298401D01*
X378063Y298419D01*
X378161Y298432D01*
X378261Y298442D01*
X378360Y298448D01*
X378460Y298450D01*
X447040Y298450D02*
X447140Y298448D01*
X447239Y298442D01*
X447339Y298432D01*
X447437Y298419D01*
X447536Y298401D01*
X447633Y298380D01*
X447729Y298355D01*
X447825Y298326D01*
X447919Y298293D01*
X448012Y298257D01*
X448103Y298217D01*
X448193Y298173D01*
X448281Y298126D01*
X448367Y298076D01*
X448451Y298022D01*
X448533Y297965D01*
X448612Y297905D01*
X448690Y297841D01*
X448764Y297775D01*
X448836Y297706D01*
X448905Y297634D01*
X448971Y297560D01*
X449035Y297482D01*
X449095Y297403D01*
X449152Y297321D01*
X449206Y297237D01*
X449256Y297151D01*
X449303Y297063D01*
X449347Y296973D01*
X449387Y296882D01*
X449423Y296789D01*
X449456Y296695D01*
X449485Y296599D01*
X449510Y296503D01*
X449531Y296406D01*
X449549Y296307D01*
X449562Y296209D01*
X449572Y296109D01*
X449578Y296010D01*
X449580Y295910D01*
X449580Y275590D02*
X449578Y275490D01*
X449572Y275391D01*
X449562Y275291D01*
X449549Y275193D01*
X449531Y275094D01*
X449510Y274997D01*
X449485Y274901D01*
X449456Y274805D01*
X449423Y274711D01*
X449387Y274618D01*
X449347Y274527D01*
X449303Y274437D01*
X449256Y274349D01*
X449206Y274263D01*
X449152Y274179D01*
X449095Y274097D01*
X449035Y274018D01*
X448971Y273940D01*
X448905Y273866D01*
X448836Y273794D01*
X448764Y273725D01*
X448690Y273659D01*
X448612Y273595D01*
X448533Y273535D01*
X448451Y273478D01*
X448367Y273424D01*
X448281Y273374D01*
X448193Y273327D01*
X448103Y273283D01*
X448012Y273243D01*
X447919Y273207D01*
X447825Y273174D01*
X447729Y273145D01*
X447633Y273120D01*
X447536Y273099D01*
X447437Y273081D01*
X447339Y273068D01*
X447239Y273058D01*
X447140Y273052D01*
X447040Y273050D01*
D13*
X386722Y312428D02*
X384815Y314335D01*
X381002Y314335D01*
X379095Y312428D01*
X379095Y304802D01*
X381002Y302895D01*
X384815Y302895D01*
X386722Y304802D01*
X390789Y312428D02*
X392696Y314335D01*
X396509Y314335D01*
X398415Y312428D01*
X398415Y310522D01*
X396509Y308615D01*
X394602Y308615D01*
X396509Y308615D02*
X398415Y306708D01*
X398415Y304802D01*
X396509Y302895D01*
X392696Y302895D01*
X390789Y304802D01*
X103124Y24638D02*
X99314Y24638D01*
D14*
X99314Y11938D02*
X128524Y11938D01*
X99314Y11938D02*
X99314Y24638D01*
D13*
X99314Y27178D01*
D14*
X99314Y24638D02*
X99314Y37338D01*
X99314Y88138D02*
X128524Y88138D01*
X99314Y88138D02*
X99314Y37338D01*
X128524Y11938D02*
X157734Y11938D01*
D13*
X157734Y37338D01*
D14*
X157734Y88138D02*
X128524Y88138D01*
X157734Y81788D02*
X157734Y69088D01*
X157734Y56388D02*
X157734Y43688D01*
D13*
X157734Y37338D01*
D14*
X157734Y18288D02*
X157734Y14478D01*
X157734Y18288D02*
X151384Y18288D01*
X151384Y30988D01*
X157734Y30988D01*
X157734Y18288D01*
X157734Y30988D02*
X157734Y43688D01*
X151384Y43688D01*
X151384Y56388D01*
X157734Y56388D01*
X157734Y69088D01*
X151384Y69088D01*
X151384Y81788D01*
X157734Y81788D01*
X157734Y88138D01*
X109474Y24638D02*
X99314Y24638D01*
X109474Y24638D02*
X109474Y27178D01*
X109474Y72898D01*
X109474Y75438D01*
X99314Y75438D01*
X114554Y27178D02*
X109474Y24638D01*
X109474Y27178D02*
X99314Y27178D01*
X114554Y27178D02*
X114554Y72898D01*
X109474Y75438D01*
X109474Y72898D02*
X99314Y72898D01*
D15*
X124085Y98752D02*
X127728Y95108D01*
X124085Y98752D02*
X135016Y98752D01*
X135016Y95108D02*
X135016Y102396D01*
X123577Y2950D02*
X125399Y1128D01*
X123577Y2950D02*
X123577Y6594D01*
X125399Y8416D01*
X127220Y8416D01*
X129042Y6594D01*
X129042Y4772D01*
X129042Y6594D02*
X130864Y8416D01*
X132686Y8416D01*
X134508Y6594D01*
X134508Y2950D01*
X132686Y1128D01*
D20*
X88377Y12630D02*
X88377Y15680D01*
X88377Y14155D02*
X79225Y14155D01*
X79225Y12630D02*
X79225Y15680D01*
X88377Y18867D02*
X88377Y24968D01*
X88377Y18867D02*
X82276Y24968D01*
X80751Y24968D01*
X79225Y23443D01*
X79225Y20392D01*
X80751Y18867D01*
X79225Y32798D02*
X80751Y34323D01*
X79225Y32798D02*
X79225Y29747D01*
X80751Y28222D01*
X86852Y28222D01*
X88377Y29747D01*
X88377Y32798D01*
X86852Y34323D01*
D13*
X165100Y393700D02*
X168910Y393700D01*
D14*
X168910Y406400D02*
X139700Y406400D01*
X168910Y406400D02*
X168910Y393700D01*
D13*
X168910Y391160D01*
D14*
X168910Y393700D02*
X168910Y381000D01*
X168910Y330200D02*
X139700Y330200D01*
X168910Y330200D02*
X168910Y381000D01*
X139700Y406400D02*
X110490Y406400D01*
D13*
X110490Y381000D01*
D14*
X110490Y330200D02*
X139700Y330200D01*
X110490Y336550D02*
X110490Y349250D01*
X110490Y361950D02*
X110490Y374650D01*
D13*
X110490Y381000D01*
D14*
X110490Y400050D02*
X110490Y403860D01*
X110490Y400050D02*
X116840Y400050D01*
X116840Y387350D01*
X110490Y387350D01*
X110490Y400050D01*
X110490Y387350D02*
X110490Y374650D01*
X116840Y374650D01*
X116840Y361950D01*
X110490Y361950D01*
X110490Y349250D01*
X116840Y349250D01*
X116840Y336550D01*
X110490Y336550D01*
X110490Y330200D01*
X158750Y393700D02*
X168910Y393700D01*
X158750Y393700D02*
X158750Y391160D01*
X158750Y345440D01*
X158750Y342900D01*
X168910Y342900D01*
X153670Y391160D02*
X158750Y393700D01*
X158750Y391160D02*
X168910Y391160D01*
X153670Y391160D02*
X153670Y345440D01*
X158750Y342900D01*
X158750Y345440D02*
X168910Y345440D01*
D15*
X136842Y313314D02*
X133199Y316958D01*
X144130Y316958D01*
X144130Y313314D02*
X144130Y320602D01*
X135529Y407294D02*
X133707Y409116D01*
X133707Y412760D01*
X135529Y414582D01*
X137350Y414582D01*
X139172Y412760D01*
X139172Y410938D01*
X139172Y412760D02*
X140994Y414582D01*
X142816Y414582D01*
X144638Y412760D01*
X144638Y409116D01*
X142816Y407294D01*
D20*
X130828Y420609D02*
X130828Y429761D01*
X133878Y429761D02*
X127777Y429761D01*
X137132Y429761D02*
X137132Y420609D01*
X140183Y426710D02*
X137132Y429761D01*
X140183Y426710D02*
X143233Y429761D01*
X143233Y420609D01*
X146487Y422134D02*
X146487Y428236D01*
X148013Y429761D01*
X151063Y429761D01*
X152589Y428236D01*
X152589Y422134D01*
X151063Y420609D01*
X148013Y420609D01*
X146487Y422134D01*
X152589Y428236D01*
D13*
X266700Y393700D02*
X270510Y393700D01*
D14*
X270510Y406400D02*
X241300Y406400D01*
X270510Y406400D02*
X270510Y393700D01*
D13*
X270510Y391160D01*
D14*
X270510Y393700D02*
X270510Y381000D01*
X270510Y330200D02*
X241300Y330200D01*
X270510Y330200D02*
X270510Y381000D01*
X241300Y406400D02*
X212090Y406400D01*
D13*
X212090Y381000D01*
D14*
X212090Y330200D02*
X241300Y330200D01*
X212090Y336550D02*
X212090Y349250D01*
X212090Y361950D02*
X212090Y374650D01*
D13*
X212090Y381000D01*
D14*
X212090Y400050D02*
X212090Y403860D01*
X212090Y400050D02*
X218440Y400050D01*
X218440Y387350D01*
X212090Y387350D01*
X212090Y400050D01*
X212090Y387350D02*
X212090Y374650D01*
X218440Y374650D01*
X218440Y361950D01*
X212090Y361950D01*
X212090Y349250D01*
X218440Y349250D01*
X218440Y336550D01*
X212090Y336550D01*
X212090Y330200D01*
X260350Y393700D02*
X270510Y393700D01*
X260350Y393700D02*
X260350Y391160D01*
X260350Y345440D01*
X260350Y342900D01*
X270510Y342900D01*
X255270Y391160D02*
X260350Y393700D01*
X260350Y391160D02*
X270510Y391160D01*
X255270Y391160D02*
X255270Y345440D01*
X260350Y342900D01*
X260350Y345440D02*
X270510Y345440D01*
D15*
X238442Y313314D02*
X234799Y316958D01*
X245730Y316958D01*
X245730Y313314D02*
X245730Y320602D01*
X237129Y407294D02*
X235307Y409116D01*
X235307Y412760D01*
X237129Y414582D01*
X238950Y414582D01*
X240772Y412760D01*
X240772Y410938D01*
X240772Y412760D02*
X242594Y414582D01*
X244416Y414582D01*
X246238Y412760D01*
X246238Y409116D01*
X244416Y407294D01*
D20*
X232428Y420609D02*
X232428Y429761D01*
X235478Y429761D02*
X229377Y429761D01*
X238732Y429761D02*
X238732Y420609D01*
X241783Y426710D02*
X238732Y429761D01*
X241783Y426710D02*
X244833Y429761D01*
X244833Y420609D01*
X248087Y426710D02*
X251138Y429761D01*
X251138Y420609D01*
X248087Y420609D02*
X254189Y420609D01*
D13*
X254000Y482600D02*
X76200Y482600D01*
X76200Y546100D01*
X254000Y546100D02*
X254000Y482600D01*
X254000Y469900D02*
X266700Y469900D01*
X110490Y558800D02*
X63500Y558800D01*
X63500Y469900D01*
X266700Y469900D02*
X266700Y558800D01*
X119380Y546100D02*
X76200Y546100D01*
X144780Y538480D02*
X185420Y538480D01*
X185420Y546100D01*
X254000Y546100D01*
X185420Y546100D02*
X185420Y548640D01*
X144780Y546100D02*
X144780Y538480D01*
X144780Y546100D02*
X144780Y548640D01*
X76200Y469900D02*
X76200Y467360D01*
X88900Y467360D01*
X88900Y469900D01*
X76200Y469900D02*
X63500Y469900D01*
X158750Y467360D02*
X171450Y467360D01*
X158750Y467360D02*
X158750Y469900D01*
X88900Y469900D01*
X171450Y469900D02*
X171450Y467360D01*
X241300Y467360D02*
X254000Y467360D01*
X254000Y469900D01*
X241300Y469900D02*
X241300Y467360D01*
X241300Y469900D02*
X171450Y469900D01*
X144780Y558800D02*
X143510Y558800D01*
X144780Y558800D02*
X185420Y558800D01*
X134620Y548640D02*
X134620Y546100D01*
X144780Y546100D01*
X119380Y546100D02*
X119380Y548640D01*
X119380Y546100D02*
X134620Y546100D01*
X139700Y553720D02*
X143510Y558800D01*
X114300Y553720D02*
X110490Y558800D01*
X114300Y553720D02*
X119380Y553720D01*
D21*
X134620Y548640D02*
X144780Y548640D01*
D13*
X144780Y558800D01*
D21*
X119380Y548640D02*
X73660Y548640D01*
X73660Y480060D01*
X256540Y480060D01*
X256540Y548640D01*
X185420Y548640D01*
D13*
X185420Y558800D01*
X134620Y553720D02*
X134620Y548640D01*
X134620Y553720D02*
X139700Y553720D01*
X119380Y553720D02*
X119380Y548640D01*
X119380Y553720D02*
X134620Y553720D01*
X185420Y558800D02*
X209550Y558800D01*
X209550Y557530D01*
X222250Y557530D01*
X222250Y558800D01*
X266700Y558800D01*
X156320Y554365D02*
X152507Y550552D01*
X156320Y554365D02*
X156320Y542925D01*
X152507Y542925D02*
X160134Y542925D01*
X164201Y544832D02*
X164201Y552458D01*
X166108Y554365D01*
X169921Y554365D01*
X171828Y552458D01*
X171828Y544832D01*
X169921Y542925D01*
X166108Y542925D01*
X164201Y544832D01*
X171828Y552458D01*
X230241Y528962D02*
X234054Y532775D01*
X234054Y521335D01*
X230241Y521335D02*
X237868Y521335D01*
X237868Y495935D02*
X230241Y495935D01*
X237868Y503562D01*
X237868Y505468D01*
X235961Y507375D01*
X232148Y507375D01*
X230241Y505468D01*
D20*
X231533Y463049D02*
X226279Y463049D01*
X226279Y455168D01*
X231533Y455168D01*
X228906Y459108D02*
X226279Y459108D01*
X234465Y463049D02*
X239719Y455168D01*
X234465Y455168D02*
X239719Y463049D01*
X245278Y463049D02*
X245278Y455168D01*
X247904Y463049D02*
X242651Y463049D01*
X250836Y459108D02*
X256090Y459108D01*
X259022Y456481D02*
X259022Y461735D01*
X260336Y463049D01*
X262963Y463049D01*
X264276Y461735D01*
X264276Y456481D01*
X262963Y455168D01*
X260336Y455168D01*
X259022Y456481D01*
X264276Y461735D01*
D12*
X471175Y321825D02*
X472616Y320385D01*
X471175Y321825D02*
X468294Y321825D01*
X466853Y320385D01*
X466853Y314623D01*
X468294Y313182D01*
X471175Y313182D01*
X472616Y314623D01*
X472616Y317504D01*
X469735Y317504D01*
X476209Y321825D02*
X476209Y313182D01*
X481971Y313182D02*
X476209Y321825D01*
X481971Y321825D02*
X481971Y313182D01*
X485564Y313182D02*
X485564Y321825D01*
X485564Y313182D02*
X489886Y313182D01*
X491326Y314623D01*
X491326Y320385D01*
X489886Y321825D01*
X485564Y321825D01*
X472616Y345785D02*
X471175Y347225D01*
X468294Y347225D01*
X466853Y345785D01*
X466853Y340023D01*
X468294Y338582D01*
X471175Y338582D01*
X472616Y340023D01*
X472616Y342904D01*
X469735Y342904D01*
X476209Y347225D02*
X476209Y338582D01*
X481971Y338582D02*
X476209Y347225D01*
X481971Y347225D02*
X481971Y338582D01*
X485564Y338582D02*
X485564Y347225D01*
X485564Y338582D02*
X489886Y338582D01*
X491326Y340023D01*
X491326Y345785D01*
X489886Y347225D01*
X485564Y347225D01*
X472616Y292104D02*
X466853Y292104D01*
X469735Y294985D02*
X469735Y289223D01*
X476209Y296425D02*
X481971Y296425D01*
X476209Y296425D02*
X476209Y292104D01*
X479090Y293544D01*
X480530Y293544D01*
X481971Y292104D01*
X481971Y289223D01*
X480530Y287782D01*
X477649Y287782D01*
X476209Y289223D01*
X485564Y290663D02*
X485564Y296425D01*
X485564Y290663D02*
X488445Y287782D01*
X491326Y290663D01*
X491326Y296425D01*
X466853Y245625D02*
X466853Y236982D01*
X466853Y245625D02*
X471175Y245625D01*
X472616Y244185D01*
X472616Y241304D01*
X471175Y239863D01*
X466853Y239863D01*
X469735Y239863D02*
X472616Y236982D01*
X480530Y245625D02*
X481971Y244185D01*
X480530Y245625D02*
X477649Y245625D01*
X476209Y244185D01*
X476209Y242744D01*
X477649Y241304D01*
X480530Y241304D01*
X481971Y239863D01*
X481971Y238423D01*
X480530Y236982D01*
X477649Y236982D01*
X476209Y238423D01*
X488445Y236982D02*
X488445Y245625D01*
X485564Y245625D02*
X491326Y245625D01*
X469972Y366863D02*
X469972Y372625D01*
X469972Y366863D02*
X472853Y363982D01*
X475734Y366863D01*
X475734Y372625D01*
X479327Y363982D02*
X482208Y363982D01*
X480768Y363982D02*
X480768Y372625D01*
X482208Y372625D02*
X479327Y372625D01*
X485564Y372625D02*
X485564Y363982D01*
X491326Y363982D02*
X485564Y372625D01*
X491326Y372625D02*
X491326Y363982D01*
X458583Y266704D02*
X452821Y266704D01*
X455702Y269585D02*
X455702Y263823D01*
X462176Y269585D02*
X463616Y271025D01*
X466498Y271025D01*
X467938Y269585D01*
X467938Y268144D01*
X466498Y266704D01*
X465057Y266704D01*
X466498Y266704D02*
X467938Y265263D01*
X467938Y263823D01*
X466498Y262382D01*
X463616Y262382D01*
X462176Y263823D01*
X471531Y263823D02*
X471531Y262382D01*
X471531Y263823D02*
X472972Y263823D01*
X472972Y262382D01*
X471531Y262382D01*
X476209Y269585D02*
X477649Y271025D01*
X480530Y271025D01*
X481971Y269585D01*
X481971Y268144D01*
X480530Y266704D01*
X479090Y266704D01*
X480530Y266704D02*
X481971Y265263D01*
X481971Y263823D01*
X480530Y262382D01*
X477649Y262382D01*
X476209Y263823D01*
X485564Y265263D02*
X485564Y271025D01*
X485564Y265263D02*
X488445Y262382D01*
X491326Y265263D01*
X491326Y271025D01*
X485564Y416223D02*
X485564Y421985D01*
X487004Y423425D01*
X489886Y423425D01*
X491326Y421985D01*
X491326Y416223D01*
X489886Y414782D01*
X487004Y414782D01*
X485564Y416223D01*
X491326Y421985D01*
X485564Y445944D02*
X488445Y448825D01*
X488445Y440182D01*
X485564Y440182D02*
X491326Y440182D01*
X491326Y465582D02*
X485564Y465582D01*
X491326Y471344D01*
X491326Y472785D01*
X489886Y474225D01*
X487004Y474225D01*
X485564Y472785D01*
X485564Y498185D02*
X487004Y499625D01*
X489886Y499625D01*
X491326Y498185D01*
X491326Y496744D01*
X489886Y495304D01*
X488445Y495304D01*
X489886Y495304D02*
X491326Y493863D01*
X491326Y492423D01*
X489886Y490982D01*
X487004Y490982D01*
X485564Y492423D01*
X489886Y516382D02*
X489886Y525025D01*
X485564Y520704D01*
X491326Y520704D01*
X491326Y550425D02*
X485564Y550425D01*
X485564Y546104D01*
X488445Y547544D01*
X489886Y547544D01*
X491326Y546104D01*
X491326Y543223D01*
X489886Y541782D01*
X487004Y541782D01*
X485564Y543223D01*
X44624Y180685D02*
X43184Y182125D01*
X40303Y182125D01*
X38862Y180685D01*
X38862Y174923D01*
X40303Y173482D01*
X43184Y173482D01*
X44624Y174923D01*
X44624Y177804D01*
X41743Y177804D01*
X48217Y182125D02*
X48217Y173482D01*
X53979Y173482D02*
X48217Y182125D01*
X53979Y182125D02*
X53979Y173482D01*
X57572Y173482D02*
X57572Y182125D01*
X57572Y173482D02*
X61894Y173482D01*
X63335Y174923D01*
X63335Y180685D01*
X61894Y182125D01*
X57572Y182125D01*
X38862Y204644D02*
X41743Y207525D01*
X41743Y198882D01*
X38862Y198882D02*
X44624Y198882D01*
X48217Y206085D02*
X49658Y207525D01*
X52539Y207525D01*
X53979Y206085D01*
X53979Y204644D01*
X52539Y203204D01*
X51098Y203204D01*
X52539Y203204D02*
X53979Y201763D01*
X53979Y200323D01*
X52539Y198882D01*
X49658Y198882D01*
X48217Y200323D01*
X38862Y230044D02*
X41743Y232925D01*
X41743Y224282D01*
X38862Y224282D02*
X44624Y224282D01*
X48217Y224282D02*
X53979Y224282D01*
X48217Y224282D02*
X53979Y230044D01*
X53979Y231485D01*
X52539Y232925D01*
X49658Y232925D01*
X48217Y231485D01*
X38862Y255444D02*
X41743Y258325D01*
X41743Y249682D01*
X38862Y249682D02*
X44624Y249682D01*
X48217Y255444D02*
X51098Y258325D01*
X51098Y249682D01*
X48217Y249682D02*
X53979Y249682D01*
X38862Y153844D02*
X38862Y148082D01*
X38862Y153844D02*
X41743Y156725D01*
X44624Y153844D01*
X44624Y148082D01*
X44624Y152404D02*
X38862Y152404D01*
X48217Y156725D02*
X48217Y148082D01*
X48217Y156725D02*
X52539Y156725D01*
X53979Y155285D01*
X53979Y152404D01*
X52539Y150963D01*
X48217Y150963D01*
X51098Y150963D02*
X53979Y148082D01*
X57572Y156725D02*
X63335Y156725D01*
X57572Y156725D02*
X57572Y148082D01*
X63335Y148082D01*
X60454Y152404D02*
X57572Y152404D01*
X66928Y156725D02*
X66928Y148082D01*
X66928Y156725D02*
X72690Y156725D01*
X69809Y152404D02*
X66928Y152404D01*
X38862Y280844D02*
X41743Y283725D01*
X41743Y275082D01*
X38862Y275082D02*
X44624Y275082D01*
X48217Y276523D02*
X48217Y282285D01*
X49658Y283725D01*
X52539Y283725D01*
X53979Y282285D01*
X53979Y276523D01*
X52539Y275082D01*
X49658Y275082D01*
X48217Y276523D01*
X53979Y282285D01*
X40303Y300482D02*
X38862Y301923D01*
X40303Y300482D02*
X43184Y300482D01*
X44624Y301923D01*
X44624Y307685D01*
X43184Y309125D01*
X40303Y309125D01*
X38862Y307685D01*
X38862Y306244D01*
X40303Y304804D01*
X44624Y304804D01*
X38862Y333085D02*
X40303Y334525D01*
X43184Y334525D01*
X44624Y333085D01*
X44624Y331644D01*
X43184Y330204D01*
X44624Y328763D01*
X44624Y327323D01*
X43184Y325882D01*
X40303Y325882D01*
X38862Y327323D01*
X38862Y328763D01*
X40303Y330204D01*
X38862Y331644D01*
X38862Y333085D01*
X40303Y330204D02*
X43184Y330204D01*
X44624Y372625D02*
X38862Y372625D01*
X44624Y372625D02*
X44624Y371185D01*
X38862Y365423D01*
X38862Y363982D01*
X41743Y396585D02*
X44624Y398025D01*
X41743Y396585D02*
X38862Y393704D01*
X38862Y390823D01*
X40303Y389382D01*
X43184Y389382D01*
X44624Y390823D01*
X44624Y392263D01*
X43184Y393704D01*
X38862Y393704D01*
X38862Y423425D02*
X44624Y423425D01*
X38862Y423425D02*
X38862Y419104D01*
X41743Y420544D01*
X43184Y420544D01*
X44624Y419104D01*
X44624Y416223D01*
X43184Y414782D01*
X40303Y414782D01*
X38862Y416223D01*
X43184Y440182D02*
X43184Y448825D01*
X38862Y444504D01*
X44624Y444504D01*
X38862Y472785D02*
X40303Y474225D01*
X43184Y474225D01*
X44624Y472785D01*
X44624Y471344D01*
X43184Y469904D01*
X41743Y469904D01*
X43184Y469904D02*
X44624Y468463D01*
X44624Y467023D01*
X43184Y465582D01*
X40303Y465582D01*
X38862Y467023D01*
X38862Y490982D02*
X44624Y490982D01*
X38862Y490982D02*
X44624Y496744D01*
X44624Y498185D01*
X43184Y499625D01*
X40303Y499625D01*
X38862Y498185D01*
X41743Y516382D02*
X41743Y525025D01*
X38862Y525025D02*
X44624Y525025D01*
X48217Y525025D02*
X53979Y516382D01*
X48217Y516382D02*
X53979Y525025D01*
X38862Y541782D02*
X38862Y550425D01*
X43184Y550425D01*
X44624Y548985D01*
X44624Y546104D01*
X43184Y544663D01*
X38862Y544663D01*
X41743Y544663D02*
X44624Y541782D01*
X53979Y541782D02*
X48217Y550425D01*
X53979Y550425D02*
X48217Y541782D01*
X43184Y131325D02*
X44624Y129885D01*
X43184Y131325D02*
X40303Y131325D01*
X38862Y129885D01*
X38862Y128444D01*
X40303Y127004D01*
X43184Y127004D01*
X44624Y125563D01*
X44624Y124123D01*
X43184Y122682D01*
X40303Y122682D01*
X38862Y124123D01*
X48217Y122682D02*
X48217Y131325D01*
X48217Y122682D02*
X52539Y122682D01*
X53979Y124123D01*
X53979Y129885D01*
X52539Y131325D01*
X48217Y131325D01*
X57572Y128444D02*
X57572Y122682D01*
X57572Y128444D02*
X60454Y131325D01*
X63335Y128444D01*
X63335Y122682D01*
X63335Y127004D02*
X57572Y127004D01*
X43184Y105925D02*
X44624Y104485D01*
X43184Y105925D02*
X40303Y105925D01*
X38862Y104485D01*
X38862Y103044D01*
X40303Y101604D01*
X43184Y101604D01*
X44624Y100163D01*
X44624Y98723D01*
X43184Y97282D01*
X40303Y97282D01*
X38862Y98723D01*
X52539Y105925D02*
X53979Y104485D01*
X52539Y105925D02*
X49658Y105925D01*
X48217Y104485D01*
X48217Y98723D01*
X49658Y97282D01*
X52539Y97282D01*
X53979Y98723D01*
X57572Y97282D02*
X57572Y105925D01*
X57572Y97282D02*
X63335Y97282D01*
X451261Y211582D02*
X454143Y211582D01*
X452702Y211582D02*
X452702Y220225D01*
X451261Y220225D02*
X454143Y220225D01*
X458939Y220225D02*
X461820Y220225D01*
X458939Y220225D02*
X457498Y218785D01*
X457498Y213023D01*
X458939Y211582D01*
X461820Y211582D01*
X463260Y213023D01*
X463260Y218785D01*
X461820Y220225D01*
X466853Y220225D02*
X466853Y211582D01*
X466853Y220225D02*
X471175Y220225D01*
X472616Y218785D01*
X472616Y215904D01*
X471175Y214463D01*
X466853Y214463D01*
X469735Y214463D02*
X472616Y211582D01*
X476209Y220225D02*
X481971Y220225D01*
X476209Y220225D02*
X476209Y211582D01*
X481971Y211582D01*
X479090Y215904D02*
X476209Y215904D01*
X485564Y220225D02*
X485564Y211582D01*
X485564Y220225D02*
X491326Y220225D01*
X488445Y215904D02*
X485564Y215904D01*
D13*
X463550Y482600D02*
X285750Y482600D01*
X285750Y546100D01*
X463550Y546100D02*
X463550Y482600D01*
X463550Y469900D02*
X476250Y469900D01*
X320040Y558800D02*
X273050Y558800D01*
X273050Y469900D01*
X476250Y469900D02*
X476250Y558800D01*
X328930Y546100D02*
X285750Y546100D01*
X354330Y538480D02*
X394970Y538480D01*
X394970Y546100D01*
X463550Y546100D01*
X394970Y546100D02*
X394970Y548640D01*
X354330Y546100D02*
X354330Y538480D01*
X354330Y546100D02*
X354330Y548640D01*
X285750Y469900D02*
X285750Y467360D01*
X298450Y467360D01*
X298450Y469900D01*
X285750Y469900D02*
X273050Y469900D01*
X368300Y467360D02*
X381000Y467360D01*
X368300Y467360D02*
X368300Y469900D01*
X298450Y469900D01*
X381000Y469900D02*
X381000Y467360D01*
X450850Y467360D02*
X463550Y467360D01*
X463550Y469900D01*
X450850Y469900D02*
X450850Y467360D01*
X450850Y469900D02*
X381000Y469900D01*
X354330Y558800D02*
X353060Y558800D01*
X354330Y558800D02*
X394970Y558800D01*
X344170Y548640D02*
X344170Y546100D01*
X354330Y546100D01*
X328930Y546100D02*
X328930Y548640D01*
X328930Y546100D02*
X344170Y546100D01*
X349250Y553720D02*
X353060Y558800D01*
X323850Y553720D02*
X320040Y558800D01*
X323850Y553720D02*
X328930Y553720D01*
D21*
X344170Y548640D02*
X354330Y548640D01*
D13*
X354330Y558800D01*
D21*
X328930Y548640D02*
X283210Y548640D01*
X283210Y480060D01*
X466090Y480060D01*
X466090Y548640D01*
X394970Y548640D01*
D13*
X394970Y558800D01*
X344170Y553720D02*
X344170Y548640D01*
X344170Y553720D02*
X349250Y553720D01*
X328930Y553720D02*
X328930Y548640D01*
X328930Y553720D02*
X344170Y553720D01*
X394970Y558800D02*
X419100Y558800D01*
X419100Y557530D01*
X431800Y557530D01*
X431800Y558800D01*
X476250Y558800D01*
X365870Y554365D02*
X362057Y550552D01*
X365870Y554365D02*
X365870Y542925D01*
X362057Y542925D02*
X369684Y542925D01*
X373751Y544832D02*
X373751Y552458D01*
X375658Y554365D01*
X379471Y554365D01*
X381378Y552458D01*
X381378Y544832D01*
X379471Y542925D01*
X375658Y542925D01*
X373751Y544832D01*
X381378Y552458D01*
X439791Y528962D02*
X443604Y532775D01*
X443604Y521335D01*
X439791Y521335D02*
X447418Y521335D01*
X447418Y495935D02*
X439791Y495935D01*
X447418Y503562D01*
X447418Y505468D01*
X445511Y507375D01*
X441698Y507375D01*
X439791Y505468D01*
D20*
X441083Y463049D02*
X435829Y463049D01*
X435829Y455168D01*
X441083Y455168D01*
X438456Y459108D02*
X435829Y459108D01*
X444015Y463049D02*
X449269Y455168D01*
X444015Y455168D02*
X449269Y463049D01*
X454828Y463049D02*
X454828Y455168D01*
X457454Y463049D02*
X452201Y463049D01*
X460386Y459108D02*
X465640Y459108D01*
X468572Y460422D02*
X471199Y463049D01*
X471199Y455168D01*
X468572Y455168D02*
X473826Y455168D01*
D12*
X375920Y260350D02*
X376020Y260348D01*
X376119Y260342D01*
X376219Y260332D01*
X376317Y260319D01*
X376416Y260301D01*
X376513Y260280D01*
X376609Y260255D01*
X376705Y260226D01*
X376799Y260193D01*
X376892Y260157D01*
X376983Y260117D01*
X377073Y260073D01*
X377161Y260026D01*
X377247Y259976D01*
X377331Y259922D01*
X377413Y259865D01*
X377492Y259805D01*
X377570Y259741D01*
X377644Y259675D01*
X377716Y259606D01*
X377785Y259534D01*
X377851Y259460D01*
X377915Y259382D01*
X377975Y259303D01*
X378032Y259221D01*
X378086Y259137D01*
X378136Y259051D01*
X378183Y258963D01*
X378227Y258873D01*
X378267Y258782D01*
X378303Y258689D01*
X378336Y258595D01*
X378365Y258499D01*
X378390Y258403D01*
X378411Y258306D01*
X378429Y258207D01*
X378442Y258109D01*
X378452Y258009D01*
X378458Y257910D01*
X378460Y257810D01*
X360680Y260350D02*
X360580Y260348D01*
X360481Y260342D01*
X360381Y260332D01*
X360283Y260319D01*
X360184Y260301D01*
X360087Y260280D01*
X359991Y260255D01*
X359895Y260226D01*
X359801Y260193D01*
X359708Y260157D01*
X359617Y260117D01*
X359527Y260073D01*
X359439Y260026D01*
X359353Y259976D01*
X359269Y259922D01*
X359187Y259865D01*
X359108Y259805D01*
X359030Y259741D01*
X358956Y259675D01*
X358884Y259606D01*
X358815Y259534D01*
X358749Y259460D01*
X358685Y259382D01*
X358625Y259303D01*
X358568Y259221D01*
X358514Y259137D01*
X358464Y259051D01*
X358417Y258963D01*
X358373Y258873D01*
X358333Y258782D01*
X358297Y258689D01*
X358264Y258595D01*
X358235Y258499D01*
X358210Y258403D01*
X358189Y258306D01*
X358171Y258207D01*
X358158Y258109D01*
X358148Y258009D01*
X358142Y257910D01*
X358140Y257810D01*
X358140Y212090D02*
X358142Y211990D01*
X358148Y211891D01*
X358158Y211791D01*
X358171Y211693D01*
X358189Y211594D01*
X358210Y211497D01*
X358235Y211401D01*
X358264Y211305D01*
X358297Y211211D01*
X358333Y211118D01*
X358373Y211027D01*
X358417Y210937D01*
X358464Y210849D01*
X358514Y210763D01*
X358568Y210679D01*
X358625Y210597D01*
X358685Y210518D01*
X358749Y210440D01*
X358815Y210366D01*
X358884Y210294D01*
X358956Y210225D01*
X359030Y210159D01*
X359108Y210095D01*
X359187Y210035D01*
X359269Y209978D01*
X359353Y209924D01*
X359439Y209874D01*
X359527Y209827D01*
X359617Y209783D01*
X359708Y209743D01*
X359801Y209707D01*
X359895Y209674D01*
X359991Y209645D01*
X360087Y209620D01*
X360184Y209599D01*
X360283Y209581D01*
X360381Y209568D01*
X360481Y209558D01*
X360580Y209552D01*
X360680Y209550D01*
X375920Y209550D02*
X376020Y209552D01*
X376119Y209558D01*
X376219Y209568D01*
X376317Y209581D01*
X376416Y209599D01*
X376513Y209620D01*
X376609Y209645D01*
X376705Y209674D01*
X376799Y209707D01*
X376892Y209743D01*
X376983Y209783D01*
X377073Y209827D01*
X377161Y209874D01*
X377247Y209924D01*
X377331Y209978D01*
X377413Y210035D01*
X377492Y210095D01*
X377570Y210159D01*
X377644Y210225D01*
X377716Y210294D01*
X377785Y210366D01*
X377851Y210440D01*
X377915Y210518D01*
X377975Y210597D01*
X378032Y210679D01*
X378086Y210763D01*
X378136Y210849D01*
X378183Y210937D01*
X378227Y211027D01*
X378267Y211118D01*
X378303Y211211D01*
X378336Y211305D01*
X378365Y211401D01*
X378390Y211497D01*
X378411Y211594D01*
X378429Y211693D01*
X378442Y211791D01*
X378452Y211891D01*
X378458Y211990D01*
X378460Y212090D01*
X375920Y260350D02*
X360680Y260350D01*
X378460Y257810D02*
X378460Y254000D01*
X377190Y252730D01*
X358140Y254000D02*
X358140Y257810D01*
X358140Y254000D02*
X359410Y252730D01*
X377190Y217170D02*
X378460Y215900D01*
X377190Y217170D02*
X377190Y252730D01*
X359410Y217170D02*
X358140Y215900D01*
X359410Y217170D02*
X359410Y252730D01*
X378460Y215900D02*
X378460Y212090D01*
X358140Y212090D02*
X358140Y215900D01*
X360680Y209550D02*
X375920Y209550D01*
D22*
X368300Y207645D03*
X368300Y262255D03*
D20*
X362458Y286512D02*
X362458Y295410D01*
X366907Y295410D01*
X368390Y293927D01*
X368390Y290961D01*
X366907Y289478D01*
X362458Y289478D01*
X365424Y289478D02*
X368390Y286512D01*
X371579Y292444D02*
X374545Y295410D01*
X374545Y286512D01*
X371579Y286512D02*
X377511Y286512D01*
D12*
X283210Y257810D02*
X283208Y257910D01*
X283202Y258009D01*
X283192Y258109D01*
X283179Y258207D01*
X283161Y258306D01*
X283140Y258403D01*
X283115Y258499D01*
X283086Y258595D01*
X283053Y258689D01*
X283017Y258782D01*
X282977Y258873D01*
X282933Y258963D01*
X282886Y259051D01*
X282836Y259137D01*
X282782Y259221D01*
X282725Y259303D01*
X282665Y259382D01*
X282601Y259460D01*
X282535Y259534D01*
X282466Y259606D01*
X282394Y259675D01*
X282320Y259741D01*
X282242Y259805D01*
X282163Y259865D01*
X282081Y259922D01*
X281997Y259976D01*
X281911Y260026D01*
X281823Y260073D01*
X281733Y260117D01*
X281642Y260157D01*
X281549Y260193D01*
X281455Y260226D01*
X281359Y260255D01*
X281263Y260280D01*
X281166Y260301D01*
X281067Y260319D01*
X280969Y260332D01*
X280869Y260342D01*
X280770Y260348D01*
X280670Y260350D01*
X265430Y260350D02*
X265330Y260348D01*
X265231Y260342D01*
X265131Y260332D01*
X265033Y260319D01*
X264934Y260301D01*
X264837Y260280D01*
X264741Y260255D01*
X264645Y260226D01*
X264551Y260193D01*
X264458Y260157D01*
X264367Y260117D01*
X264277Y260073D01*
X264189Y260026D01*
X264103Y259976D01*
X264019Y259922D01*
X263937Y259865D01*
X263858Y259805D01*
X263780Y259741D01*
X263706Y259675D01*
X263634Y259606D01*
X263565Y259534D01*
X263499Y259460D01*
X263435Y259382D01*
X263375Y259303D01*
X263318Y259221D01*
X263264Y259137D01*
X263214Y259051D01*
X263167Y258963D01*
X263123Y258873D01*
X263083Y258782D01*
X263047Y258689D01*
X263014Y258595D01*
X262985Y258499D01*
X262960Y258403D01*
X262939Y258306D01*
X262921Y258207D01*
X262908Y258109D01*
X262898Y258009D01*
X262892Y257910D01*
X262890Y257810D01*
X262890Y212090D02*
X262892Y211990D01*
X262898Y211891D01*
X262908Y211791D01*
X262921Y211693D01*
X262939Y211594D01*
X262960Y211497D01*
X262985Y211401D01*
X263014Y211305D01*
X263047Y211211D01*
X263083Y211118D01*
X263123Y211027D01*
X263167Y210937D01*
X263214Y210849D01*
X263264Y210763D01*
X263318Y210679D01*
X263375Y210597D01*
X263435Y210518D01*
X263499Y210440D01*
X263565Y210366D01*
X263634Y210294D01*
X263706Y210225D01*
X263780Y210159D01*
X263858Y210095D01*
X263937Y210035D01*
X264019Y209978D01*
X264103Y209924D01*
X264189Y209874D01*
X264277Y209827D01*
X264367Y209783D01*
X264458Y209743D01*
X264551Y209707D01*
X264645Y209674D01*
X264741Y209645D01*
X264837Y209620D01*
X264934Y209599D01*
X265033Y209581D01*
X265131Y209568D01*
X265231Y209558D01*
X265330Y209552D01*
X265430Y209550D01*
X280670Y209550D02*
X280770Y209552D01*
X280869Y209558D01*
X280969Y209568D01*
X281067Y209581D01*
X281166Y209599D01*
X281263Y209620D01*
X281359Y209645D01*
X281455Y209674D01*
X281549Y209707D01*
X281642Y209743D01*
X281733Y209783D01*
X281823Y209827D01*
X281911Y209874D01*
X281997Y209924D01*
X282081Y209978D01*
X282163Y210035D01*
X282242Y210095D01*
X282320Y210159D01*
X282394Y210225D01*
X282466Y210294D01*
X282535Y210366D01*
X282601Y210440D01*
X282665Y210518D01*
X282725Y210597D01*
X282782Y210679D01*
X282836Y210763D01*
X282886Y210849D01*
X282933Y210937D01*
X282977Y211027D01*
X283017Y211118D01*
X283053Y211211D01*
X283086Y211305D01*
X283115Y211401D01*
X283140Y211497D01*
X283161Y211594D01*
X283179Y211693D01*
X283192Y211791D01*
X283202Y211891D01*
X283208Y211990D01*
X283210Y212090D01*
X280670Y260350D02*
X265430Y260350D01*
X283210Y257810D02*
X283210Y254000D01*
X281940Y252730D01*
X262890Y254000D02*
X262890Y257810D01*
X262890Y254000D02*
X264160Y252730D01*
X281940Y217170D02*
X283210Y215900D01*
X281940Y217170D02*
X281940Y252730D01*
X264160Y217170D02*
X262890Y215900D01*
X264160Y217170D02*
X264160Y252730D01*
X283210Y215900D02*
X283210Y212090D01*
X262890Y212090D02*
X262890Y215900D01*
X265430Y209550D02*
X280670Y209550D01*
D22*
X273050Y207645D03*
X273050Y262255D03*
D20*
X267208Y286512D02*
X267208Y295410D01*
X271657Y295410D01*
X273140Y293927D01*
X273140Y290961D01*
X271657Y289478D01*
X267208Y289478D01*
X270174Y289478D02*
X273140Y286512D01*
X276329Y286512D02*
X282261Y286512D01*
X276329Y286512D02*
X282261Y292444D01*
X282261Y293927D01*
X280778Y295410D01*
X277812Y295410D01*
X276329Y293927D01*
D12*
X187960Y257810D02*
X187958Y257910D01*
X187952Y258009D01*
X187942Y258109D01*
X187929Y258207D01*
X187911Y258306D01*
X187890Y258403D01*
X187865Y258499D01*
X187836Y258595D01*
X187803Y258689D01*
X187767Y258782D01*
X187727Y258873D01*
X187683Y258963D01*
X187636Y259051D01*
X187586Y259137D01*
X187532Y259221D01*
X187475Y259303D01*
X187415Y259382D01*
X187351Y259460D01*
X187285Y259534D01*
X187216Y259606D01*
X187144Y259675D01*
X187070Y259741D01*
X186992Y259805D01*
X186913Y259865D01*
X186831Y259922D01*
X186747Y259976D01*
X186661Y260026D01*
X186573Y260073D01*
X186483Y260117D01*
X186392Y260157D01*
X186299Y260193D01*
X186205Y260226D01*
X186109Y260255D01*
X186013Y260280D01*
X185916Y260301D01*
X185817Y260319D01*
X185719Y260332D01*
X185619Y260342D01*
X185520Y260348D01*
X185420Y260350D01*
X170180Y260350D02*
X170080Y260348D01*
X169981Y260342D01*
X169881Y260332D01*
X169783Y260319D01*
X169684Y260301D01*
X169587Y260280D01*
X169491Y260255D01*
X169395Y260226D01*
X169301Y260193D01*
X169208Y260157D01*
X169117Y260117D01*
X169027Y260073D01*
X168939Y260026D01*
X168853Y259976D01*
X168769Y259922D01*
X168687Y259865D01*
X168608Y259805D01*
X168530Y259741D01*
X168456Y259675D01*
X168384Y259606D01*
X168315Y259534D01*
X168249Y259460D01*
X168185Y259382D01*
X168125Y259303D01*
X168068Y259221D01*
X168014Y259137D01*
X167964Y259051D01*
X167917Y258963D01*
X167873Y258873D01*
X167833Y258782D01*
X167797Y258689D01*
X167764Y258595D01*
X167735Y258499D01*
X167710Y258403D01*
X167689Y258306D01*
X167671Y258207D01*
X167658Y258109D01*
X167648Y258009D01*
X167642Y257910D01*
X167640Y257810D01*
X167640Y212090D02*
X167642Y211990D01*
X167648Y211891D01*
X167658Y211791D01*
X167671Y211693D01*
X167689Y211594D01*
X167710Y211497D01*
X167735Y211401D01*
X167764Y211305D01*
X167797Y211211D01*
X167833Y211118D01*
X167873Y211027D01*
X167917Y210937D01*
X167964Y210849D01*
X168014Y210763D01*
X168068Y210679D01*
X168125Y210597D01*
X168185Y210518D01*
X168249Y210440D01*
X168315Y210366D01*
X168384Y210294D01*
X168456Y210225D01*
X168530Y210159D01*
X168608Y210095D01*
X168687Y210035D01*
X168769Y209978D01*
X168853Y209924D01*
X168939Y209874D01*
X169027Y209827D01*
X169117Y209783D01*
X169208Y209743D01*
X169301Y209707D01*
X169395Y209674D01*
X169491Y209645D01*
X169587Y209620D01*
X169684Y209599D01*
X169783Y209581D01*
X169881Y209568D01*
X169981Y209558D01*
X170080Y209552D01*
X170180Y209550D01*
X185420Y209550D02*
X185520Y209552D01*
X185619Y209558D01*
X185719Y209568D01*
X185817Y209581D01*
X185916Y209599D01*
X186013Y209620D01*
X186109Y209645D01*
X186205Y209674D01*
X186299Y209707D01*
X186392Y209743D01*
X186483Y209783D01*
X186573Y209827D01*
X186661Y209874D01*
X186747Y209924D01*
X186831Y209978D01*
X186913Y210035D01*
X186992Y210095D01*
X187070Y210159D01*
X187144Y210225D01*
X187216Y210294D01*
X187285Y210366D01*
X187351Y210440D01*
X187415Y210518D01*
X187475Y210597D01*
X187532Y210679D01*
X187586Y210763D01*
X187636Y210849D01*
X187683Y210937D01*
X187727Y211027D01*
X187767Y211118D01*
X187803Y211211D01*
X187836Y211305D01*
X187865Y211401D01*
X187890Y211497D01*
X187911Y211594D01*
X187929Y211693D01*
X187942Y211791D01*
X187952Y211891D01*
X187958Y211990D01*
X187960Y212090D01*
X185420Y260350D02*
X170180Y260350D01*
X187960Y257810D02*
X187960Y254000D01*
X186690Y252730D01*
X167640Y254000D02*
X167640Y257810D01*
X167640Y254000D02*
X168910Y252730D01*
X186690Y217170D02*
X187960Y215900D01*
X186690Y217170D02*
X186690Y252730D01*
X168910Y217170D02*
X167640Y215900D01*
X168910Y217170D02*
X168910Y252730D01*
X187960Y215900D02*
X187960Y212090D01*
X167640Y212090D02*
X167640Y215900D01*
X170180Y209550D02*
X185420Y209550D01*
D22*
X177800Y207645D03*
X177800Y262255D03*
D20*
X171958Y286512D02*
X171958Y295410D01*
X176407Y295410D01*
X177890Y293927D01*
X177890Y290961D01*
X176407Y289478D01*
X171958Y289478D01*
X174924Y289478D02*
X177890Y286512D01*
X181079Y293927D02*
X182562Y295410D01*
X185528Y295410D01*
X187011Y293927D01*
X187011Y292444D01*
X185528Y290961D01*
X184045Y290961D01*
X185528Y290961D02*
X187011Y289478D01*
X187011Y287995D01*
X185528Y286512D01*
X182562Y286512D01*
X181079Y287995D01*
D12*
X92710Y264160D02*
X92708Y264260D01*
X92702Y264359D01*
X92692Y264459D01*
X92679Y264557D01*
X92661Y264656D01*
X92640Y264753D01*
X92615Y264849D01*
X92586Y264945D01*
X92553Y265039D01*
X92517Y265132D01*
X92477Y265223D01*
X92433Y265313D01*
X92386Y265401D01*
X92336Y265487D01*
X92282Y265571D01*
X92225Y265653D01*
X92165Y265732D01*
X92101Y265810D01*
X92035Y265884D01*
X91966Y265956D01*
X91894Y266025D01*
X91820Y266091D01*
X91742Y266155D01*
X91663Y266215D01*
X91581Y266272D01*
X91497Y266326D01*
X91411Y266376D01*
X91323Y266423D01*
X91233Y266467D01*
X91142Y266507D01*
X91049Y266543D01*
X90955Y266576D01*
X90859Y266605D01*
X90763Y266630D01*
X90666Y266651D01*
X90567Y266669D01*
X90469Y266682D01*
X90369Y266692D01*
X90270Y266698D01*
X90170Y266700D01*
X74930Y266700D02*
X74830Y266698D01*
X74731Y266692D01*
X74631Y266682D01*
X74533Y266669D01*
X74434Y266651D01*
X74337Y266630D01*
X74241Y266605D01*
X74145Y266576D01*
X74051Y266543D01*
X73958Y266507D01*
X73867Y266467D01*
X73777Y266423D01*
X73689Y266376D01*
X73603Y266326D01*
X73519Y266272D01*
X73437Y266215D01*
X73358Y266155D01*
X73280Y266091D01*
X73206Y266025D01*
X73134Y265956D01*
X73065Y265884D01*
X72999Y265810D01*
X72935Y265732D01*
X72875Y265653D01*
X72818Y265571D01*
X72764Y265487D01*
X72714Y265401D01*
X72667Y265313D01*
X72623Y265223D01*
X72583Y265132D01*
X72547Y265039D01*
X72514Y264945D01*
X72485Y264849D01*
X72460Y264753D01*
X72439Y264656D01*
X72421Y264557D01*
X72408Y264459D01*
X72398Y264359D01*
X72392Y264260D01*
X72390Y264160D01*
X72390Y218440D02*
X72392Y218340D01*
X72398Y218241D01*
X72408Y218141D01*
X72421Y218043D01*
X72439Y217944D01*
X72460Y217847D01*
X72485Y217751D01*
X72514Y217655D01*
X72547Y217561D01*
X72583Y217468D01*
X72623Y217377D01*
X72667Y217287D01*
X72714Y217199D01*
X72764Y217113D01*
X72818Y217029D01*
X72875Y216947D01*
X72935Y216868D01*
X72999Y216790D01*
X73065Y216716D01*
X73134Y216644D01*
X73206Y216575D01*
X73280Y216509D01*
X73358Y216445D01*
X73437Y216385D01*
X73519Y216328D01*
X73603Y216274D01*
X73689Y216224D01*
X73777Y216177D01*
X73867Y216133D01*
X73958Y216093D01*
X74051Y216057D01*
X74145Y216024D01*
X74241Y215995D01*
X74337Y215970D01*
X74434Y215949D01*
X74533Y215931D01*
X74631Y215918D01*
X74731Y215908D01*
X74830Y215902D01*
X74930Y215900D01*
X90170Y215900D02*
X90270Y215902D01*
X90369Y215908D01*
X90469Y215918D01*
X90567Y215931D01*
X90666Y215949D01*
X90763Y215970D01*
X90859Y215995D01*
X90955Y216024D01*
X91049Y216057D01*
X91142Y216093D01*
X91233Y216133D01*
X91323Y216177D01*
X91411Y216224D01*
X91497Y216274D01*
X91581Y216328D01*
X91663Y216385D01*
X91742Y216445D01*
X91820Y216509D01*
X91894Y216575D01*
X91966Y216644D01*
X92035Y216716D01*
X92101Y216790D01*
X92165Y216868D01*
X92225Y216947D01*
X92282Y217029D01*
X92336Y217113D01*
X92386Y217199D01*
X92433Y217287D01*
X92477Y217377D01*
X92517Y217468D01*
X92553Y217561D01*
X92586Y217655D01*
X92615Y217751D01*
X92640Y217847D01*
X92661Y217944D01*
X92679Y218043D01*
X92692Y218141D01*
X92702Y218241D01*
X92708Y218340D01*
X92710Y218440D01*
X90170Y266700D02*
X74930Y266700D01*
X92710Y264160D02*
X92710Y260350D01*
X91440Y259080D01*
X72390Y260350D02*
X72390Y264160D01*
X72390Y260350D02*
X73660Y259080D01*
X91440Y223520D02*
X92710Y222250D01*
X91440Y223520D02*
X91440Y259080D01*
X73660Y223520D02*
X72390Y222250D01*
X73660Y223520D02*
X73660Y259080D01*
X92710Y222250D02*
X92710Y218440D01*
X72390Y218440D02*
X72390Y222250D01*
X74930Y215900D02*
X90170Y215900D01*
D22*
X82550Y213995D03*
X82550Y268605D03*
D20*
X76708Y292862D02*
X76708Y301760D01*
X81157Y301760D01*
X82640Y300277D01*
X82640Y297311D01*
X81157Y295828D01*
X76708Y295828D01*
X79674Y295828D02*
X82640Y292862D01*
X90278Y292862D02*
X90278Y301760D01*
X85829Y297311D01*
X91761Y297311D01*
M02*
