G04 EAGLE Gerber RS-274X export*
G75*
%MOMM*%
%FSLAX34Y34*%
%LPD*%
%INSoldermask Bottom*%
%IPPOS*%
%AMOC8*
5,1,8,0,0,1.08239X$1,22.5*%
G01*
%ADD10C,1.727200*%
%ADD11P,1.649562X8X22.500000*%
%ADD12P,1.951982X8X292.500000*%
%ADD13C,1.803400*%
%ADD14P,1.649562X8X202.500000*%
%ADD15P,1.759533X8X202.500000*%
%ADD16C,2.082800*%
%ADD17P,1.649562X8X292.500000*%


D10*
X405130Y247650D02*
X420370Y247650D01*
X420370Y222250D02*
X405130Y222250D01*
X405130Y196850D02*
X420370Y196850D01*
X420370Y171450D02*
X405130Y171450D01*
X405130Y146050D02*
X420370Y146050D01*
X420370Y120650D02*
X405130Y120650D01*
X325120Y247650D02*
X309880Y247650D01*
X309880Y222250D02*
X325120Y222250D01*
X325120Y196850D02*
X309880Y196850D01*
X309880Y171450D02*
X325120Y171450D01*
X325120Y146050D02*
X309880Y146050D01*
X309880Y120650D02*
X325120Y120650D01*
X229870Y247650D02*
X214630Y247650D01*
X214630Y222250D02*
X229870Y222250D01*
X229870Y196850D02*
X214630Y196850D01*
X214630Y171450D02*
X229870Y171450D01*
X229870Y146050D02*
X214630Y146050D01*
X214630Y120650D02*
X229870Y120650D01*
X134620Y247650D02*
X119380Y247650D01*
X119380Y222250D02*
X134620Y222250D01*
X134620Y196850D02*
X119380Y196850D01*
X119380Y171450D02*
X134620Y171450D01*
X134620Y146050D02*
X119380Y146050D01*
X119380Y120650D02*
X134620Y120650D01*
X430530Y387350D02*
X445770Y387350D01*
X445770Y361950D02*
X430530Y361950D01*
X430530Y336550D02*
X445770Y336550D01*
D11*
X387350Y431800D03*
X438150Y431800D03*
D12*
X368300Y350520D03*
D13*
X368300Y386080D03*
D14*
X438150Y285750D03*
X387350Y285750D03*
D10*
X136144Y24638D02*
X120904Y24638D01*
X120904Y50038D02*
X136144Y50038D01*
X136144Y75438D02*
X120904Y75438D01*
X132080Y393700D02*
X147320Y393700D01*
X147320Y368300D02*
X132080Y368300D01*
X132080Y342900D02*
X147320Y342900D01*
X233680Y393700D02*
X248920Y393700D01*
X248920Y368300D02*
X233680Y368300D01*
X233680Y342900D02*
X248920Y342900D01*
D15*
X215900Y527050D03*
X215900Y501650D03*
X190500Y527050D03*
X190500Y501650D03*
X165100Y527050D03*
X165100Y501650D03*
X139700Y527050D03*
X139700Y501650D03*
X114300Y527050D03*
X114300Y501650D03*
D16*
X508000Y241300D03*
X508000Y266700D03*
X508000Y292100D03*
X508000Y317500D03*
X508000Y342900D03*
X508000Y368300D03*
X508000Y419100D03*
X508000Y444500D03*
X508000Y469900D03*
X508000Y495300D03*
X508000Y520700D03*
X508000Y546100D03*
X25400Y546100D03*
X25400Y520700D03*
X25400Y495300D03*
X25400Y469900D03*
X25400Y444500D03*
X25400Y419100D03*
X25400Y393700D03*
X25400Y368300D03*
X25400Y330200D03*
X25400Y304800D03*
X25400Y279400D03*
X25400Y254000D03*
X25400Y228600D03*
X25400Y203200D03*
X25400Y177800D03*
X25400Y152400D03*
X25400Y127000D03*
X25400Y101600D03*
X508000Y215900D03*
X508000Y190500D03*
D15*
X425450Y527050D03*
X425450Y501650D03*
X400050Y527050D03*
X400050Y501650D03*
X374650Y527050D03*
X374650Y501650D03*
X349250Y527050D03*
X349250Y501650D03*
X323850Y527050D03*
X323850Y501650D03*
D17*
X368300Y273050D03*
X368300Y196850D03*
X273050Y273050D03*
X273050Y196850D03*
X177800Y273050D03*
X177800Y196850D03*
X82550Y279400D03*
X82550Y203200D03*
M02*
