G04 DipTrace 3.3.1.3*
G04 Bottom.gbr*
%MOIN*%
G04 #@! TF.FileFunction,Copper,L2,Bot*
G04 #@! TF.Part,Single*
G04 #@! TA.AperFunction,Conductor*
%ADD10C,0.009843*%
%ADD13C,0.011811*%
G04 #@! TA.AperFunction,ComponentPad*
%ADD15C,0.019685*%
G04 #@! TA.AperFunction,CopperBalancing*
%ADD17C,0.007992*%
%ADD19C,0.007874*%
G04 #@! TA.AperFunction,ComponentPad*
%ADD21C,0.059055*%
%ADD30C,0.042992*%
%ADD31C,0.098425*%
%ADD32C,0.043307*%
%FSLAX26Y26*%
G04*
G70*
G90*
G75*
G01*
G04 Bottom*
%LPD*%
X1455774Y1876050D2*
D15*
X806667D1*
X510000Y2172717D1*
X591260D2*
D10*
X666260D1*
D15*
X672979D1*
Y2155276D1*
X766732Y2061522D1*
X1504318D1*
X1541824Y2024016D1*
Y1805249D1*
X1341535D1*
X1329790Y1816995D1*
X473058Y1680144D2*
Y1767638D1*
X460551Y1780144D1*
Y1817638D1*
Y1911391D1*
X491798Y1942638D1*
X466798Y1411391D2*
X879304D1*
Y1623885D1*
X779304Y1723885D1*
X716811D1*
X629094Y1811601D1*
X622835D1*
X491798Y1942638D1*
X473058Y1680144D2*
X491798Y1698885D1*
Y1798898D1*
X483451Y1807244D1*
X473058Y1817638D1*
X460551D1*
X473058Y1767638D2*
X468320Y1772375D1*
Y1792113D1*
X483451Y1807244D1*
X629094Y1811601D2*
D13*
X1510459D1*
X1573071Y1748990D1*
Y1936509D1*
X1510564Y1999016D1*
X948255D1*
X839961D1*
X666260Y2172717D1*
X1616798Y2180144D2*
X1129383D1*
X948255Y1999016D1*
X1610551Y1430144D2*
Y2180144D1*
X1616798D1*
X1180801Y1596890D2*
D15*
X1094803D1*
X932808Y1434895D1*
X861286Y1748097D2*
X999094D1*
X1150302Y1596890D1*
X1094803D1*
X535564Y2819475D2*
Y2545853D1*
X716667Y2364751D1*
X1441076Y3100932D2*
X1482415D1*
X1519816D1*
X817060Y2600971D2*
X928307D1*
X972572D1*
X1021785Y2551759D1*
X928307Y2600971D2*
Y3022231D1*
D10*
X1482415D1*
D15*
Y3100932D1*
X1637927Y2333255D2*
D13*
Y2952940D1*
X1573163Y3017703D1*
X1494724D1*
X1482415Y3030013D1*
D10*
Y3022231D1*
X1637927Y2333255D2*
D13*
X1240289D1*
X1021785Y2551759D1*
X461037Y3132822D2*
D17*
X1332192D1*
X1392493D2*
X1568333D1*
X1628753D2*
X1648320D1*
X460906Y3124961D2*
X1325459D1*
X1399226D2*
X1561719D1*
X1635499D2*
X1648320D1*
X460906Y3117100D2*
X1321339D1*
X1403346D2*
X1557480D1*
X1639619D2*
X1648320D1*
X460906Y3109239D2*
X1318963D1*
X1405722D2*
X1555223D1*
X1641864D2*
X1648320D1*
X460774Y3101378D2*
X1318215D1*
X1406470D2*
X1554357D1*
X1642743D2*
X1648320D1*
X460774Y3093517D2*
X1318832D1*
X1405853D2*
X1555105D1*
X1642113D2*
X1648320D1*
X460656Y3085656D2*
X1320958D1*
X1403727D2*
X1557231D1*
X1639869D2*
X1648320D1*
X460656Y3077795D2*
X1324829D1*
X1399856D2*
X1561089D1*
X1635997D2*
X1648320D1*
X460525Y3069934D2*
X1331194D1*
X1393491D2*
X1567467D1*
X1629633D2*
X1648320D1*
X460525Y3062073D2*
X1342310D1*
X1382375D2*
X1578583D1*
X1618635D2*
X1648320D1*
X460407Y3054213D2*
X1648320D1*
X460407Y3046352D2*
X1648320D1*
X460276Y3038491D2*
X1648320D1*
X460276Y3030630D2*
X1648320D1*
X460276Y3022769D2*
X1648320D1*
X460157Y3014908D2*
X1648320D1*
X460157Y3007047D2*
X1648320D1*
X460026Y2999186D2*
X1648320D1*
X460026Y2991325D2*
X1648320D1*
X459908Y2983465D2*
X1648320D1*
X459908Y2975604D2*
X1648320D1*
X459777Y2967743D2*
X1648320D1*
X459777Y2959882D2*
X1648320D1*
X459659Y2952021D2*
X1648320D1*
X459659Y2944160D2*
X1648320D1*
X459659Y2936299D2*
X1648320D1*
X459528Y2928438D2*
X1648320D1*
X459528Y2920577D2*
X1648320D1*
X459409Y2912717D2*
X1648320D1*
X459409Y2904856D2*
X1648320D1*
X459278Y2896995D2*
X1648320D1*
X459278Y2889134D2*
X1648320D1*
X459160Y2881273D2*
X1648320D1*
X459160Y2873412D2*
X1648320D1*
X459160Y2865551D2*
X1648320D1*
X459029Y2857690D2*
X1648320D1*
X459029Y2849829D2*
X516745D1*
X554436D2*
X1648320D1*
X458911Y2841969D2*
X507507D1*
X563556D2*
X1648320D1*
X458911Y2834108D2*
X502638D1*
X568543D2*
X1648320D1*
X458780Y2826247D2*
X500144D1*
X571050D2*
X1648320D1*
X458780Y2818386D2*
X499514D1*
X571667D2*
X1648320D1*
X458661Y2810525D2*
X500643D1*
X570551D2*
X1648320D1*
X458661Y2802664D2*
X503635D1*
X567428D2*
X1648320D1*
X458530Y2794803D2*
X509501D1*
X561680D2*
X1648320D1*
X458530Y2786942D2*
X511129D1*
X560052D2*
X1648320D1*
X458412Y2779081D2*
X511129D1*
X560052D2*
X1648320D1*
X458412Y2771220D2*
X511129D1*
X560052D2*
X1648320D1*
X458412Y2763360D2*
X511129D1*
X560052D2*
X1648320D1*
X458281Y2755499D2*
X511129D1*
X560052D2*
X1648320D1*
X458281Y2747638D2*
X511129D1*
X560052D2*
X1648320D1*
X458163Y2739777D2*
X511129D1*
X560052D2*
X1648320D1*
X458163Y2731916D2*
X511129D1*
X560052D2*
X1648320D1*
X458031Y2724055D2*
X511129D1*
X560052D2*
X1648320D1*
X458031Y2716194D2*
X511129D1*
X560052D2*
X1648320D1*
X457913Y2708333D2*
X511129D1*
X560052D2*
X1648320D1*
X457913Y2700472D2*
X511129D1*
X560052D2*
X1648320D1*
X457782Y2692612D2*
X511129D1*
X560052D2*
X1648320D1*
X457782Y2684751D2*
X511129D1*
X560052D2*
X1648320D1*
X457782Y2676890D2*
X511129D1*
X560052D2*
X1648320D1*
X457664Y2669029D2*
X511129D1*
X560052D2*
X1648320D1*
X457664Y2661168D2*
X511129D1*
X560052D2*
X1648320D1*
X457533Y2653307D2*
X511129D1*
X560052D2*
X1648320D1*
X457533Y2645446D2*
X511129D1*
X560052D2*
X1648320D1*
X457402Y2637585D2*
X511129D1*
X560052D2*
X1437100D1*
X1504003D2*
X1648320D1*
X457402Y2629724D2*
X511129D1*
X560052D2*
X1399633D1*
X1541339D2*
X1648320D1*
X457283Y2621864D2*
X511129D1*
X560052D2*
X1383766D1*
X1557323D2*
X1648320D1*
X457283Y2614003D2*
X511129D1*
X560052D2*
X1367913D1*
X1573189D2*
X1648320D1*
X457165Y2606142D2*
X511129D1*
X560052D2*
X1351929D1*
X1589173D2*
X1648320D1*
X457165Y2598281D2*
X511129D1*
X560052D2*
X1342060D1*
X1599029D2*
X1648320D1*
X457165Y2590420D2*
X511129D1*
X560052D2*
X1333950D1*
X1607152D2*
X1648320D1*
X457034Y2582559D2*
X511129D1*
X560052D2*
X1325827D1*
X1615262D2*
X1648320D1*
X457034Y2574698D2*
X511129D1*
X560052D2*
X1317717D1*
X1623386D2*
X1648320D1*
X456916Y2566837D2*
X511129D1*
X560052D2*
X1309593D1*
X1631496D2*
X1648320D1*
X456916Y2558976D2*
X511129D1*
X560052D2*
X1301982D1*
X1638990D2*
X1648320D1*
X456785Y2551115D2*
X511129D1*
X564554D2*
X1297861D1*
X1643241D2*
X1648320D1*
X456785Y2543255D2*
X511260D1*
X572415D2*
X1293740D1*
X456654Y2535394D2*
X513504D1*
X580289D2*
X1289619D1*
X456654Y2527533D2*
X519619D1*
X588150D2*
X1285499D1*
X456535Y2519672D2*
X527493D1*
X596024D2*
X1281247D1*
X456535Y2511811D2*
X535354D1*
X603885D2*
X1277126D1*
X456535Y2503950D2*
X543228D1*
X611759D2*
X1273255D1*
X456404Y2496089D2*
X551089D1*
X619619D2*
X1271759D1*
X456404Y2488228D2*
X558963D1*
X627493D2*
X1270381D1*
X456286Y2480367D2*
X566824D1*
X635354D2*
X1269134D1*
X456286Y2472507D2*
X574567D1*
X643228D2*
X1267887D1*
X456155Y2464646D2*
X582441D1*
X651089D2*
X1266640D1*
X456155Y2456785D2*
X590302D1*
X658832D2*
X1265262D1*
X456037Y2448924D2*
X598176D1*
X666706D2*
X1264016D1*
X456037Y2441063D2*
X606037D1*
X674567D2*
X1263018D1*
X455906Y2433202D2*
X613911D1*
X682441D2*
X1264134D1*
X455906Y2425341D2*
X621772D1*
X690302D2*
X1265512D1*
X455906Y2417480D2*
X629633D1*
X698176D2*
X1266759D1*
X455787Y2409619D2*
X637507D1*
X706037D2*
X1268005D1*
X455787Y2401759D2*
X645381D1*
X713911D2*
X1269383D1*
X455656Y2393898D2*
X653241D1*
X737388D2*
X1270630D1*
X455656Y2386037D2*
X477415D1*
X518845D2*
X661102D1*
X745630D2*
X1271877D1*
X455538Y2378176D2*
X469173D1*
X527087D2*
X668976D1*
X750118D2*
X1273635D1*
X455538Y2370315D2*
X464672D1*
X531588D2*
X676837D1*
X752362D2*
X1277756D1*
X455407Y2362454D2*
X462428D1*
X533832D2*
X680591D1*
X752743D2*
X1281877D1*
X455407Y2354593D2*
X462060D1*
X534213D2*
X682087D1*
X751247D2*
X1285997D1*
X455289Y2346732D2*
X463556D1*
X532835D2*
X685459D1*
X747874D2*
X1290118D1*
X455289Y2338871D2*
X466929D1*
X529344D2*
X691824D1*
X741509D2*
X1294239D1*
X455289Y2331010D2*
X473294D1*
X522966D2*
X705315D1*
X728018D2*
X1298360D1*
X455157Y2323150D2*
X486785D1*
X509488D2*
X1302848D1*
X455157Y2315289D2*
X1310722D1*
X1405512Y3096942D2*
X1404055Y3089094D1*
X1401181Y3081654D1*
X1396982Y3074856D1*
X1391627Y3068950D1*
X1385262Y3064134D1*
X1378136Y3060551D1*
X1370459Y3058333D1*
X1362520Y3057572D1*
X1354567Y3058268D1*
X1346877Y3060420D1*
X1339724Y3063937D1*
X1333320Y3068701D1*
X1327913Y3074567D1*
X1323661Y3081325D1*
X1320722Y3088740D1*
X1319186Y3096575D1*
X1319121Y3104554D1*
X1320512Y3112415D1*
X1323320Y3119882D1*
X1327454Y3126706D1*
X1332769Y3132664D1*
X1339081Y3137546D1*
X1344029Y3140197D1*
X460367Y3138688D1*
X460157Y3122677D1*
X454331Y2314619D1*
X598163Y2314672D1*
X1312073D1*
X1304843Y2321759D1*
X1302218Y2325249D1*
X1274816Y2377388D1*
X1273412Y2381588D1*
X1263963Y2439383D1*
Y2443845D1*
X1273412Y2501627D1*
X1274816Y2505840D1*
X1302218Y2557966D1*
X1304843Y2561470D1*
X1347520Y2602835D1*
X1351024Y2605315D1*
X1404803Y2631877D1*
X1408819Y2633150D1*
X1468438Y2642297D1*
X1472638D1*
X1532257Y2633150D1*
X1536286Y2631877D1*
X1590052Y2605315D1*
X1593570Y2602835D1*
X1636247Y2561470D1*
X1638858Y2557966D1*
X1651811Y2533320D1*
X1650906Y2898097D1*
X1650315Y3140682D1*
X1615971Y3140617D1*
X1620853Y3138123D1*
X1627297Y3133412D1*
X1632756Y3127598D1*
X1637060Y3120879D1*
X1640066Y3113491D1*
X1641667Y3105669D1*
X1641916Y3100932D1*
X1641181Y3092992D1*
X1639016Y3085315D1*
X1635459Y3078163D1*
X1630669Y3071785D1*
X1624777Y3066391D1*
X1618005Y3062178D1*
X1610577Y3059265D1*
X1602730Y3057769D1*
X1594751Y3057730D1*
X1586903Y3059160D1*
X1579436Y3062008D1*
X1572625Y3066168D1*
X1566693Y3071509D1*
X1561850Y3077848D1*
X1558241Y3084961D1*
X1555997Y3092625D1*
X1555197Y3100564D1*
X1555853Y3108517D1*
X1557966Y3116207D1*
X1561457Y3123386D1*
X1566194Y3129803D1*
X1572034Y3135249D1*
X1578780Y3139528D1*
X1581155Y3140617D1*
X1380709Y3140223D1*
X1384633Y3138123D1*
X1391076Y3133412D1*
X1396535Y3127598D1*
X1400840Y3120879D1*
X1403845Y3113491D1*
X1405446Y3105669D1*
X1405696Y3100932D1*
X1405512Y3096942D1*
X570669Y2815486D2*
X570000Y2811549D1*
X568885Y2807717D1*
X567349Y2804029D1*
X565407Y2800538D1*
X563071Y2797297D1*
X559186Y2793255D1*
X559239Y2707585D1*
Y2555604D1*
X714869Y2400026D1*
X721942Y2399685D1*
X725853Y2398871D1*
X729646Y2397612D1*
X733268Y2395932D1*
X736693Y2393858D1*
X739843Y2391417D1*
X742703Y2388635D1*
X745236Y2385538D1*
X747402Y2382192D1*
X749173Y2378609D1*
X750525Y2374856D1*
X751457Y2370958D1*
X752008Y2364751D1*
X751785Y2360761D1*
X751102Y2356824D1*
X749987Y2352992D1*
X748451Y2349304D1*
X746509Y2345814D1*
X744173Y2342572D1*
X741496Y2339606D1*
X738504Y2336955D1*
X735236Y2334672D1*
X731719Y2332769D1*
X728018Y2331273D1*
X724160Y2330210D1*
X720223Y2329593D1*
X716234Y2329409D1*
X712244Y2329685D1*
X708320Y2330407D1*
X704501Y2331562D1*
X700827Y2333150D1*
X697362Y2335144D1*
X694147Y2337507D1*
X691220Y2340223D1*
X688622Y2343255D1*
X686365Y2346549D1*
X684514Y2350092D1*
X683058Y2353806D1*
X682047Y2357677D1*
X681470Y2361627D1*
X681404Y2366483D1*
X518819Y2529108D1*
X516247Y2532152D1*
X514213Y2535591D1*
X512795Y2539318D1*
X512008Y2543386D1*
X511877Y2561837D1*
Y2793228D1*
X507520Y2797979D1*
X505262Y2801273D1*
X503412Y2804816D1*
X501955Y2808530D1*
X500945Y2812402D1*
X500367Y2816352D1*
X500236Y2820341D1*
X500564Y2824318D1*
X501325Y2828241D1*
X502533Y2832047D1*
X504173Y2835696D1*
X506194Y2839134D1*
X508609Y2842323D1*
X511352Y2845210D1*
X514423Y2847782D1*
X517743Y2849987D1*
X521299Y2851798D1*
X525039Y2853202D1*
X528911Y2854173D1*
X532874Y2854711D1*
X536864Y2854790D1*
X540840Y2854409D1*
X544751Y2853596D1*
X548543Y2852336D1*
X552165Y2850656D1*
X555591Y2848596D1*
X558740Y2846142D1*
X561601Y2843360D1*
X564134Y2840262D1*
X566299Y2836916D1*
X568071Y2833333D1*
X569423Y2829580D1*
X570354Y2825696D1*
X570906Y2819475D1*
X570669Y2815486D1*
X533268Y2352887D2*
X532598Y2348950D1*
X531483Y2345118D1*
X529948Y2341430D1*
X528005Y2337940D1*
X525669Y2334698D1*
X522992Y2331732D1*
X520000Y2329081D1*
X516732Y2326798D1*
X513215Y2324895D1*
X509514Y2323399D1*
X505656Y2322336D1*
X501719Y2321706D1*
X497730Y2321535D1*
X493740Y2321811D1*
X489816Y2322533D1*
X485997Y2323701D1*
X482323Y2325276D1*
X478858Y2327270D1*
X475643Y2329633D1*
X472717Y2332349D1*
X470105Y2335381D1*
X467861Y2338675D1*
X466010Y2342218D1*
X464554Y2345932D1*
X463543Y2349803D1*
X462966Y2353753D1*
X462835Y2357743D1*
X463163Y2361719D1*
X463924Y2365643D1*
X465131Y2369449D1*
X466772Y2373097D1*
X468793Y2376535D1*
X471207Y2379724D1*
X473950Y2382612D1*
X477008Y2385184D1*
X480341Y2387388D1*
X483898Y2389199D1*
X487638Y2390604D1*
X491509Y2391575D1*
X495472Y2392113D1*
X499462Y2392192D1*
X503438Y2391811D1*
X507349Y2390997D1*
X511142Y2389738D1*
X514764Y2388058D1*
X518189Y2385997D1*
X521339Y2383543D1*
X524199Y2380761D1*
X526732Y2377664D1*
X528898Y2374318D1*
X530669Y2370735D1*
X532021Y2366982D1*
X532953Y2363084D1*
X533504Y2356877D1*
X533268Y2352887D1*
X456562Y2208858D2*
D19*
X481509D1*
X588766D2*
X718963D1*
X776024D2*
X794003D1*
X851063D2*
X862782D1*
X919843D2*
X1647848D1*
X456562Y2201115D2*
X473635D1*
X594055D2*
X711089D1*
X927717D2*
X1647848D1*
X456562Y2193373D2*
X468583D1*
X597874D2*
X706168D1*
X932638D2*
X1647848D1*
X456562Y2185630D2*
X465512D1*
X599843D2*
X702966D1*
X935709D2*
X1647848D1*
X456562Y2177887D2*
X463911D1*
X601063D2*
X701483D1*
X937310D2*
X1647848D1*
X456562Y2170144D2*
X463661D1*
X600827D2*
X701247D1*
X937559D2*
X1647848D1*
X456562Y2162402D2*
X464777D1*
X599593D2*
X702349D1*
X936457D2*
X1647717D1*
X456562Y2154659D2*
X467362D1*
X597008D2*
X704934D1*
X933871D2*
X1647717D1*
X456562Y2146916D2*
X471667D1*
X593189D2*
X709121D1*
X929685D2*
X1647717D1*
X456562Y2139173D2*
X478307D1*
X587047D2*
X715879D1*
X779213D2*
X790801D1*
X854147D2*
X859580D1*
X922913D2*
X1647717D1*
X456562Y2131430D2*
X489869D1*
X588635D2*
X727441D1*
X767651D2*
X802375D1*
X842572D2*
X871142D1*
X911352D2*
X1647717D1*
X456562Y2123688D2*
X521614D1*
X596391D2*
X1647717D1*
X456562Y2115945D2*
X529370D1*
X604147D2*
X1647598D1*
X456562Y2108202D2*
X537113D1*
X611890D2*
X1647598D1*
X456562Y2100459D2*
X544869D1*
X619646D2*
X1647598D1*
X456562Y2092717D2*
X552612D1*
X627402D2*
X1647598D1*
X456562Y2084974D2*
X560367D1*
X635144D2*
X1647598D1*
X456562Y2077231D2*
X568123D1*
X642900D2*
X1647598D1*
X456562Y2069488D2*
X575866D1*
X650643D2*
X1647598D1*
X456562Y2061745D2*
X583504D1*
X658399D2*
X1647480D1*
X456562Y2054003D2*
X591247D1*
X666155D2*
X1647480D1*
X456562Y2046260D2*
X599003D1*
X673898D2*
X1647480D1*
X456562Y2038517D2*
X606745D1*
X681654D2*
X1647480D1*
X456562Y2030774D2*
X614501D1*
X689278D2*
X1647480D1*
X456562Y2023031D2*
X622257D1*
X697034D2*
X1647480D1*
X456562Y2015289D2*
X630000D1*
X704777D2*
X1647480D1*
X456562Y2007546D2*
X637756D1*
X712533D2*
X1647349D1*
X456562Y1999803D2*
X645512D1*
X720289D2*
X1647349D1*
X456562Y1992060D2*
X653255D1*
X728031D2*
X1647349D1*
X456562Y1984318D2*
X661010D1*
X735787D2*
X1647349D1*
X456562Y1976575D2*
X668766D1*
X743543D2*
X1647349D1*
X456562Y1968832D2*
X676509D1*
X751286D2*
X1647349D1*
X456562Y1961089D2*
X684265D1*
X759042D2*
X1647231D1*
X456562Y1953346D2*
X692008D1*
X766785D2*
X1647231D1*
X456562Y1945604D2*
X699646D1*
X774541D2*
X1647231D1*
X456562Y1937861D2*
X707388D1*
X782297D2*
X1647231D1*
X456562Y1930118D2*
X715144D1*
X790039D2*
X1647231D1*
X456562Y1922375D2*
X722900D1*
X797795D2*
X1647231D1*
X456562Y1914633D2*
X730643D1*
X805420D2*
X1647231D1*
X456562Y1906890D2*
X738399D1*
X813176D2*
X1433281D1*
X1478281D2*
X1647100D1*
X456562Y1899147D2*
X746142D1*
X1486404D2*
X1647100D1*
X456562Y1891404D2*
X753898D1*
X1490958D2*
X1647100D1*
X456562Y1883661D2*
X761654D1*
X1493543D2*
X1647100D1*
X456562Y1875919D2*
X769396D1*
X1494278D2*
X1647100D1*
X456562Y1868176D2*
X777152D1*
X1493412D2*
X1647100D1*
X456562Y1860433D2*
X784908D1*
X1490827D2*
X1647100D1*
X456562Y1852690D2*
X794751D1*
X1486155D2*
X1646982D1*
X456562Y1844948D2*
X1433648D1*
X1477913D2*
X1646982D1*
X456562Y1837205D2*
X1646982D1*
X456562Y1829462D2*
X1646982D1*
X456562Y1821719D2*
X1646982D1*
X493543Y1813976D2*
X1646982D1*
X493543Y1806234D2*
X1646864D1*
X493543Y1798491D2*
X1646864D1*
X493543Y1790748D2*
X1646864D1*
X493543Y1783005D2*
X846299D1*
X876286D2*
X1646864D1*
X493543Y1775262D2*
X834357D1*
X888228D2*
X1646864D1*
X493543Y1767520D2*
X828202D1*
X1017034D2*
X1646864D1*
X493543Y1759777D2*
X824646D1*
X1024790D2*
X1646864D1*
X493543Y1752034D2*
X823045D1*
X1032533D2*
X1646732D1*
X493543Y1744291D2*
X823045D1*
X1040289D2*
X1646732D1*
X493543Y1736549D2*
X824646D1*
X1048045D2*
X1646732D1*
X493543Y1728806D2*
X828084D1*
X1055787D2*
X1646732D1*
X493543Y1721063D2*
X834239D1*
X888346D2*
X988766D1*
X1063543D2*
X1646732D1*
X493543Y1713320D2*
X599738D1*
X677467D2*
X845932D1*
X876654D2*
X996522D1*
X1071299D2*
X1646732D1*
X493543Y1705577D2*
X566772D1*
X710446D2*
X1004147D1*
X1079042D2*
X1646732D1*
X493543Y1697835D2*
X551024D1*
X726194D2*
X1011890D1*
X1086798D2*
X1646614D1*
X493543Y1690092D2*
X535394D1*
X741811D2*
X1019646D1*
X1094554D2*
X1646614D1*
X493543Y1682349D2*
X519646D1*
X757559D2*
X1027402D1*
X1102297D2*
X1646614D1*
X493543Y1674606D2*
X510669D1*
X766549D2*
X1035144D1*
X1109921D2*
X1646614D1*
X493543Y1666864D2*
X502664D1*
X774541D2*
X1035394D1*
X1117677D2*
X1646614D1*
X782546Y1659121D2*
X1035394D1*
X1125433D2*
X1646614D1*
X790538Y1651378D2*
X1035394D1*
X1133176D2*
X1646496D1*
X798530Y1643635D2*
X1035394D1*
X1141549D2*
X1646496D1*
X805669Y1635892D2*
X1035394D1*
X1152992D2*
X1646496D1*
X809724Y1628150D2*
X1035394D1*
X1202690D2*
X1646496D1*
X813793Y1620407D2*
X1035394D1*
X1211063D2*
X1646496D1*
X817848Y1612664D2*
X1035394D1*
X1215853D2*
X1646496D1*
X822034Y1604921D2*
X1035394D1*
X1218438D2*
X1646496D1*
X826089Y1597178D2*
X1035394D1*
X1219304D2*
X1646365D1*
X830157Y1589436D2*
X1035394D1*
X1218556D2*
X1646365D1*
X833963Y1581693D2*
X1035394D1*
X1216102D2*
X1646365D1*
X835315Y1573950D2*
X1034409D1*
X1211549D2*
X1646365D1*
X836549Y1566207D2*
X1026785D1*
X1129738D2*
X1135420D1*
X1203556D2*
X1646365D1*
X837782Y1558465D2*
X1019029D1*
X1117559D2*
X1646365D1*
X839134Y1550722D2*
X1011286D1*
X1105249D2*
X1646365D1*
X840367Y1542979D2*
X1003530D1*
X1092953D2*
X1646247D1*
X841601Y1535236D2*
X995774D1*
X1080643D2*
X1646247D1*
X842953Y1527493D2*
X988031D1*
X1065144D2*
X1646247D1*
X843806Y1519751D2*
X980276D1*
X1055052D2*
X1646247D1*
X842572Y1512008D2*
X972520D1*
X1047297D2*
X1646247D1*
X841220Y1504265D2*
X964777D1*
X1039554D2*
X1646247D1*
X840000Y1496522D2*
X957021D1*
X1031798D2*
X1646129D1*
X838766Y1488780D2*
X949278D1*
X1024055D2*
X1646129D1*
X837415Y1481037D2*
X941522D1*
X1016299D2*
X1646129D1*
X836181Y1473294D2*
X933766D1*
X1008675D2*
X1646129D1*
X834948Y1465551D2*
X910026D1*
X1000919D2*
X1646129D1*
X833110Y1457808D2*
X902021D1*
X993163D2*
X1646129D1*
X829042Y1450066D2*
X897480D1*
X985420D2*
X1646129D1*
X824856Y1442323D2*
X895013D1*
X977664D2*
X1645997D1*
X820801Y1434580D2*
X894278D1*
X971273D2*
X1645997D1*
X874567Y1426837D2*
X895144D1*
X970407D2*
X1645997D1*
X874567Y1419094D2*
X897717D1*
X967822D2*
X1645997D1*
X874567Y1411352D2*
X902520D1*
X963031D2*
X1645997D1*
X874567Y1403609D2*
X911010D1*
X954659D2*
X1645997D1*
X784948Y2146706D2*
X780013Y2140735D1*
X774029Y2135630D1*
X767270Y2131627D1*
X759908Y2128845D1*
X752192Y2127362D1*
X744318Y2127231D1*
X736562Y2128451D1*
X729121Y2130997D1*
X722218Y2134777D1*
X716076Y2139685D1*
X710866Y2145591D1*
X706759Y2152283D1*
X703845Y2159593D1*
X702244Y2167297D1*
X701982Y2175157D1*
X703084Y2182940D1*
X705499Y2190420D1*
X709173Y2197375D1*
X713976Y2203596D1*
X719790Y2208898D1*
X726417Y2213136D1*
X733675Y2216155D1*
X735459Y2216640D1*
X580407Y2216601D1*
X589409Y2207428D1*
X591890Y2203937D1*
X597283Y2193071D1*
X598556Y2189042D1*
X600420Y2176995D1*
Y2172795D1*
X598556Y2160735D1*
X597283Y2156719D1*
X591890Y2145840D1*
X589409Y2142349D1*
X583320Y2136102D1*
X739895Y1979449D1*
X817415Y1901942D1*
X1428333Y1901955D1*
X1433215Y1906273D1*
X1436483Y1908465D1*
X1439961Y1910302D1*
X1443622Y1911759D1*
X1447402Y1912835D1*
X1451286Y1913504D1*
X1455210Y1913766D1*
X1459147Y1913622D1*
X1463045Y1913071D1*
X1466850Y1912113D1*
X1470551Y1910761D1*
X1474081Y1909029D1*
X1477428Y1906942D1*
X1480525Y1904514D1*
X1483360Y1901785D1*
X1485892Y1898780D1*
X1488084Y1895512D1*
X1489934Y1892047D1*
X1491417Y1888399D1*
X1492507Y1884606D1*
X1493202Y1880735D1*
X1493491Y1876050D1*
X1493294Y1872126D1*
X1492677Y1868241D1*
X1491667Y1864436D1*
X1490249Y1860761D1*
X1488478Y1857257D1*
X1486339Y1853950D1*
X1483871Y1850879D1*
X1481089Y1848097D1*
X1478045Y1845604D1*
X1474751Y1843451D1*
X1471247Y1841654D1*
X1467572Y1840236D1*
X1463780Y1839199D1*
X1459895Y1838570D1*
X1455971Y1838333D1*
X1452034Y1838530D1*
X1448150Y1839121D1*
X1444344Y1840118D1*
X1440656Y1841509D1*
X1437139Y1843268D1*
X1433832Y1845381D1*
X1428386Y1850171D1*
X806654Y1850144D1*
X802743Y1850446D1*
X798911Y1851339D1*
X795249Y1852795D1*
X791864Y1854790D1*
X788346Y1857743D1*
X518215Y2127861D1*
X510748Y2127126D1*
X502900Y2127677D1*
X495276Y2129567D1*
X488071Y2132743D1*
X481535Y2137100D1*
X475840Y2142520D1*
X471155Y2148845D1*
X467638Y2155879D1*
X465367Y2163412D1*
X464436Y2171220D1*
X464856Y2179068D1*
X466627Y2186732D1*
X469672Y2193976D1*
X473937Y2200591D1*
X479265Y2206378D1*
X485499Y2211155D1*
X492480Y2214803D1*
X497953Y2216640D1*
X455774Y2216601D1*
Y1820814D1*
X492743Y1820827D1*
Y1656575D1*
X516969Y1679921D1*
X520446Y1682388D1*
X573596Y1708570D1*
X577598Y1709829D1*
X636509Y1718858D1*
X640682D1*
X699606Y1709829D1*
X703609Y1708570D1*
X756745Y1682388D1*
X760236Y1679921D1*
X802415Y1639134D1*
X805026Y1635656D1*
X832113Y1584252D1*
X833517Y1580052D1*
X842848Y1523071D1*
Y1518622D1*
X833517Y1461640D1*
X832113Y1457441D1*
X818635Y1431864D1*
X873740Y1431824D1*
Y1399711D1*
X919239Y1399672D1*
X914160Y1402100D1*
X910853Y1404226D1*
X907769Y1406680D1*
X904974Y1409436D1*
X902467Y1412480D1*
X900302Y1415761D1*
X898478Y1419252D1*
X897034Y1422913D1*
X895984Y1426706D1*
X895328Y1430577D1*
X895092Y1434514D1*
X895249Y1438438D1*
X895827Y1442336D1*
X896811Y1446142D1*
X898176Y1449829D1*
X899921Y1453360D1*
X902021Y1456693D1*
X904462Y1459777D1*
X907205Y1462598D1*
X910236Y1465105D1*
X913504Y1467297D1*
X916995Y1469134D1*
X920643Y1470591D1*
X924436Y1471667D1*
X928307Y1472336D1*
X933832Y1472546D1*
X1036194Y1574921D1*
X1036115Y1633714D1*
Y1669147D1*
X1036496Y1673399D1*
X1034541Y1676010D1*
X988346Y1722205D1*
X888727Y1722192D1*
X883556Y1717651D1*
X880262Y1715499D1*
X876759Y1713701D1*
X873097Y1712283D1*
X869291Y1711247D1*
X865407Y1710617D1*
X861483Y1710381D1*
X857546Y1710577D1*
X853661Y1711168D1*
X849856Y1712165D1*
X846168Y1713556D1*
X842651Y1715315D1*
X839344Y1717428D1*
X836260Y1719882D1*
X833451Y1722651D1*
X830958Y1725682D1*
X828793Y1728976D1*
X826969Y1732467D1*
X825525Y1736129D1*
X824475Y1739921D1*
X823819Y1743793D1*
X823570Y1747730D1*
X823740Y1751654D1*
X824318Y1755551D1*
X825289Y1759357D1*
X826667Y1763045D1*
X828412Y1766575D1*
X830512Y1769895D1*
X832953Y1772992D1*
X835696Y1775814D1*
X838727Y1778320D1*
X841995Y1780512D1*
X845472Y1782349D1*
X849134Y1783806D1*
X852913Y1784882D1*
X856798Y1785551D1*
X860722Y1785814D1*
X864659Y1785669D1*
X868556Y1785118D1*
X872362Y1784160D1*
X876063Y1782808D1*
X879593Y1781076D1*
X882940Y1778990D1*
X886037Y1776562D1*
X888845Y1774003D1*
X999081D1*
X1003005Y1773714D1*
X1006837Y1772822D1*
X1010499Y1771365D1*
X1013885Y1769370D1*
X1017402Y1766417D1*
X1139108Y1644711D1*
X1161798Y1629436D1*
X1164987Y1631129D1*
X1168648Y1632585D1*
X1172428Y1633661D1*
X1176312Y1634344D1*
X1180236Y1634606D1*
X1184173Y1634462D1*
X1188058Y1633898D1*
X1191877Y1632940D1*
X1195577Y1631588D1*
X1199108Y1629869D1*
X1202441Y1627782D1*
X1205551Y1625354D1*
X1208373Y1622625D1*
X1210906Y1619606D1*
X1213110Y1616352D1*
X1214961Y1612874D1*
X1216444Y1609226D1*
X1217533Y1605446D1*
X1218228Y1601575D1*
X1218517Y1596890D1*
X1218320Y1592966D1*
X1217703Y1589068D1*
X1216680Y1585276D1*
X1215276Y1581601D1*
X1213504Y1578084D1*
X1211365Y1574777D1*
X1208898Y1571719D1*
X1206115Y1568924D1*
X1203058Y1566444D1*
X1199777Y1564291D1*
X1196273Y1562493D1*
X1192598Y1561063D1*
X1188806Y1560026D1*
X1184921Y1559396D1*
X1180997Y1559173D1*
X1177060Y1559357D1*
X1173176Y1559948D1*
X1169370Y1560945D1*
X1165682Y1562336D1*
X1161024Y1564829D1*
X1156089Y1563609D1*
X1152178Y1563163D1*
X1148241Y1563176D1*
X1144331Y1563635D1*
X1140512Y1564554D1*
X1136811Y1565919D1*
X1132388Y1568307D1*
X1072808Y1530787D1*
X1069331Y1528963D1*
X1065591Y1527743D1*
X1062087Y1527192D1*
X1057441Y1522887D1*
X970538Y1435984D1*
X970315Y1430958D1*
X969698Y1427073D1*
X968688Y1423268D1*
X967283Y1419593D1*
X965499Y1416089D1*
X963360Y1412782D1*
X960892Y1409724D1*
X958110Y1406929D1*
X955066Y1404449D1*
X951772Y1402283D1*
X946089Y1399646D1*
X1646732Y1399685D1*
X1648688Y2216601D1*
X903491D1*
X908281Y2215000D1*
X915302Y2211457D1*
X921601Y2206745D1*
X926995Y2201024D1*
X931339Y2194462D1*
X934475Y2187257D1*
X936325Y2179606D1*
X936850Y2172717D1*
X936181Y2164882D1*
X934160Y2157270D1*
X930866Y2150131D1*
X926404Y2143661D1*
X920892Y2138058D1*
X914488Y2133478D1*
X907402Y2130066D1*
X899829Y2127940D1*
X892008Y2127126D1*
X884173Y2127677D1*
X876535Y2129567D1*
X869344Y2132743D1*
X862795Y2137100D1*
X857100Y2142520D1*
X856864Y2142808D1*
X852139Y2138058D1*
X845735Y2133478D1*
X838648Y2130066D1*
X831089Y2127940D1*
X823268Y2127126D1*
X815420Y2127677D1*
X807782Y2129567D1*
X800591Y2132743D1*
X794042Y2137100D1*
X788346Y2142520D1*
X784974Y2146916D1*
X759751Y2216588D2*
X764528Y2215000D1*
X771549Y2211457D1*
X777848Y2206745D1*
X783241Y2201024D1*
X785052Y2198530D1*
X788990Y2203596D1*
X794790Y2208898D1*
X801417Y2213136D1*
X808688Y2216155D1*
X810105Y2216601D1*
X759790D1*
X834751Y2216588D2*
X839541Y2215000D1*
X846549Y2211457D1*
X852848Y2206745D1*
X856877Y2202612D1*
X860525Y2206378D1*
X866772Y2211155D1*
X873740Y2214803D1*
X879213Y2216640D1*
X834843Y2216601D1*
D21*
X510000Y2172717D3*
X747507D3*
D15*
X634908Y1511877D3*
D21*
X666260Y2172717D3*
D30*
X491916Y3105197D3*
D31*
X625682Y581391D3*
D21*
X1362336Y3100932D3*
D30*
X1635656Y2605197D3*
X1610577Y2867861D3*
X500761Y3285407D3*
X1640525Y3261785D3*
X494514Y4033740D3*
D31*
X1479409Y3361693D3*
D30*
X1638268Y3533740D3*
X1613189Y3796404D3*
X1604331Y505118D3*
X464567Y481483D3*
X1610577Y1253438D3*
X466824Y753438D3*
X491903Y1016102D3*
D21*
X1598556Y3100932D3*
X1519816D3*
X1441076D3*
D30*
X817060Y2600971D3*
X535564Y2819475D3*
X716667Y2364751D3*
X1021785Y2551759D3*
X498163Y2356877D3*
X1637927Y2333255D3*
X466798Y1411391D3*
X1616798Y2180144D3*
D15*
X1476798Y2433150D3*
D30*
X1610551Y1430144D3*
X473058Y1680144D3*
X491798Y1942638D3*
D21*
X891260Y2172717D3*
D32*
X1455774Y1876050D3*
X1329790Y1816995D3*
X1180801Y1596890D3*
X932808Y1434895D3*
X861286Y1748097D3*
D21*
X822520Y2172717D3*
X591260D3*
G36*
X1060052Y1669147D2*
X1150604Y1608123D1*
X1060052Y1551037D1*
Y1669147D1*
G37*
G36*
X450801Y1796890D2*
X468806D1*
Y1398885D1*
X450801D1*
Y1796890D1*
G37*
G36*
X451798Y1407887D2*
X849803D1*
Y1395892D1*
X451798D1*
Y1407887D1*
G37*
M02*
