G04 DipTrace 1.50*
%INbottom mask.gbr*%
%MOIN*%
%ADD10C,0.0098*%
%ADD11C,0.0055*%
%ADD12C,0.003*%
%ADD13C,0.0118*%
%ADD14C,0.016*%
%ADD15C,0.0197*%
%ADD16C,0.0157*%
%ADD17C,0.008*%
%ADD18C,0.0039*%
%ADD19C,0.0591*%
%ADD20R,0.0413X0.0315*%
%ADD21R,0.0394X0.0433*%
%ADD22R,0.063X0.0709*%
%ADD23R,0.0433X0.0394*%
%ADD24R,0.0512X0.0591*%
%ADD25R,0.0748X0.0256*%
%ADD26R,0.0571X0.0197*%
%ADD27R,0.0197X0.0571*%
%ADD28R,0.0256X0.0748*%
%ADD29C,0.043*%
%ADD30C,0.0984*%
%ADD31R,0.0709X0.063*%
%ADD32C,0.0433*%
%ADD33R,0.0866X0.0236*%
%ADD34R,0.063X0.0394*%
%ADD35R,0.2441X0.2126*%
%ADD36C,0.0315*%
%ADD37C,0.015*%
%ADD38C,0.0276*%
%ADD39C,0.0787*%
%ADD40R,0.252X0.2205*%
%ADD41R,0.2362X0.2047*%
%ADD42R,0.0709X0.0472*%
%ADD43R,0.0551X0.0315*%
%ADD44R,0.0945X0.0315*%
%ADD45R,0.0787X0.0157*%
%ADD46C,0.0512*%
%ADD47C,0.0354*%
%ADD48R,0.0787X0.0709*%
%ADD49R,0.063X0.0551*%
%ADD50C,0.1063*%
%ADD51C,0.0906*%
%ADD52C,0.0509*%
%ADD53C,0.0351*%
%ADD54R,0.0335X0.0827*%
%ADD55R,0.0177X0.0669*%
%ADD56R,0.0276X0.065*%
%ADD57R,0.0118X0.0492*%
%ADD58R,0.065X0.0276*%
%ADD59R,0.0492X0.0118*%
%ADD60R,0.0827X0.0335*%
%ADD61R,0.0669X0.0177*%
%ADD62R,0.0591X0.0669*%
%ADD63R,0.0433X0.0512*%
%ADD64R,0.0512X0.0472*%
%ADD65R,0.0354X0.0315*%
%ADD66R,0.0709X0.0787*%
%ADD67R,0.0551X0.063*%
%ADD68R,0.0472X0.0512*%
%ADD69R,0.0315X0.0354*%
%ADD70R,0.0492X0.0394*%
%ADD71R,0.0335X0.0236*%
%ADD72C,0.0669*%
%ADD73C,0.0077*%
%FSLAX44Y44*%
%SFA1B1*%
%OFA0B0*%
G04*
G70*
G90*
G75*
G01*
%LNBotMask*%
%LPD*%
D72*
X5214Y21549D3*
X7589D3*
D38*
X6463Y14940D3*
D72*
X6776Y21549D3*
D52*
X5033Y30874D3*
D50*
X6371Y5636D3*
D72*
X13737Y30831D3*
D52*
X16470Y25874D3*
X16220Y28500D3*
X5121Y32676D3*
X16519Y32440D3*
X5059Y40159D3*
D50*
X14908Y33439D3*
D52*
X16496Y35159D3*
X16246Y37786D3*
X16157Y4873D3*
X4759Y4636D3*
X16220Y12356D3*
X4782Y7356D3*
X5033Y9983D3*
D72*
X16099Y30831D3*
X15312D3*
X14525D3*
D52*
X8284Y25831D3*
X5469Y28016D3*
X7280Y23469D3*
X10332Y25339D3*
X5095Y23390D3*
X16493Y23154D3*
X4782Y13936D3*
X16282Y21623D3*
D38*
X14882Y24153D3*
D52*
X16219Y14123D3*
X4844Y16623D3*
X5032Y19248D3*
D72*
X9026Y21549D3*
D46*
X14672Y18582D3*
X13412Y17992D3*
X11922Y15791D3*
X9442Y14171D3*
X8727Y17303D3*
D72*
X8339Y21549D3*
X6026D3*
X18401D3*
X20776D3*
D38*
X19650Y14940D3*
D72*
X19964Y21549D3*
D52*
X18158Y30874D3*
D50*
X19558Y5636D3*
D72*
X26862Y30831D3*
D52*
X29595Y25874D3*
X29344Y28500D3*
X18246Y32676D3*
X29644Y32440D3*
X18184Y40159D3*
D50*
X28033Y33439D3*
D52*
X29621Y35159D3*
X29371Y37786D3*
X29345Y4873D3*
X17947Y4636D3*
X29407Y12356D3*
X17970Y7356D3*
X18220Y9983D3*
D72*
X29224Y30831D3*
X28437D3*
X27649D3*
D52*
X21409Y25831D3*
X18594Y28016D3*
X20405Y23469D3*
X23457Y25339D3*
X18220Y23390D3*
X29618Y23154D3*
X17969Y13936D3*
X29469Y21623D3*
D38*
X28007Y24153D3*
D52*
X29407Y14123D3*
X18032Y16623D3*
X18219Y19248D3*
D72*
X22214Y21549D3*
D46*
X27859Y18582D3*
X26599Y17992D3*
X25109Y15791D3*
X22629Y14171D3*
X21914Y17303D3*
D72*
X21527Y21549D3*
X19214D3*
X31526D3*
X33901D3*
D38*
X32775Y14940D3*
D72*
X33089Y21549D3*
D52*
X31220Y30874D3*
D50*
X32683Y5636D3*
D72*
X39925Y30831D3*
D52*
X42658Y25874D3*
X42407Y28500D3*
X31246Y32613D3*
X42644Y32377D3*
X31184Y40097D3*
D50*
X41033Y33376D3*
D52*
X42621Y35097D3*
X42371Y37723D3*
X42470Y4873D3*
X31072Y4636D3*
X42532Y12356D3*
X31094Y7356D3*
X31345Y9983D3*
D72*
X42287Y30831D3*
X41499D3*
X40712D3*
D52*
X34472Y25831D3*
X31657Y28016D3*
X33468Y23469D3*
X36519Y25339D3*
X31283Y23390D3*
X42680Y23154D3*
X31094Y13936D3*
X42594Y21623D3*
D38*
X41069Y24153D3*
D52*
X42532Y14123D3*
X31157Y16623D3*
X31344Y19248D3*
D72*
X35339Y21549D3*
D46*
X40984Y18582D3*
X39724Y17992D3*
X38234Y15791D3*
X35754Y14171D3*
X35039Y17303D3*
D72*
X34651Y21549D3*
X32339D3*
M02*
