G04 DipTrace 3.3.1.3*
G04 BottomMask.gbr*
%MOIN*%
G04 #@! TF.FileFunction,Soldermask,Bot*
G04 #@! TF.Part,Single*
%ADD40C,0.027559*%
%ADD52C,0.051181*%
%ADD54C,0.106299*%
%ADD56C,0.050866*%
%ADD74C,0.066929*%
%FSLAX26Y26*%
G04*
G70*
G90*
G75*
G01*
G04 BotMask*
%LPD*%
D74*
X510000Y2172717D3*
X747507D3*
D40*
X634908Y1511877D3*
D74*
X666260Y2172717D3*
D56*
X491916Y3105197D3*
D54*
X625682Y581391D3*
D74*
X1362336Y3100932D3*
D56*
X1635656Y2605197D3*
X1610577Y2867861D3*
X500761Y3285407D3*
X1640525Y3261785D3*
X494514Y4033740D3*
D54*
X1479409Y3361693D3*
D56*
X1638268Y3533740D3*
X1613189Y3796404D3*
X1604331Y505118D3*
X464567Y481483D3*
X1610577Y1253438D3*
X466824Y753438D3*
X491903Y1016102D3*
D74*
X1598556Y3100932D3*
X1519816D3*
X1441076D3*
D56*
X817060Y2600971D3*
X535564Y2819475D3*
X716667Y2364751D3*
X1021785Y2551759D3*
X498163Y2356877D3*
X1637927Y2333255D3*
X466798Y1411391D3*
X1616798Y2180144D3*
D40*
X1476798Y2433150D3*
D56*
X1610551Y1430144D3*
X473058Y1680144D3*
X491798Y1942638D3*
D74*
X891260Y2172717D3*
D52*
X1455774Y1876050D3*
X1329790Y1816995D3*
X1180801Y1596890D3*
X932808Y1434895D3*
X861286Y1748097D3*
D74*
X822520Y2172717D3*
X591260D3*
M02*
