M48
METRIC,0000.00
T01C0.3
T02C0.38
T03C0.5
T04C0.7
T05C0.8
T06C2.0
%
T01
X+003698Y+004765
X+003378Y+004615
X+002999Y+004056
X+002369Y+003645
X+002188Y+004440
X+005536Y+004456
X+005717Y+003660
X+006347Y+004072
X+006726Y+004631
X+007046Y+004781
X+008852Y+004456
X+009033Y+003660
X+009663Y+004072
X+010042Y+004631
X+010362Y+004781
T02
X+001613Y+003840
X+003751Y+006180
X+004961Y+003856
X+007099Y+006196
X+008277Y+003856
X+010415Y+006196
T03
X+002075Y+006606
X+002595Y+006481
X+001820Y+006006
X+001360Y+007161
X+004708Y+007177
X+005423Y+006622
X+005943Y+006497
X+005168Y+006022
X+008024Y+007177
X+008739Y+006622
X+009259Y+006497
X+008484Y+006022
T04
X+001249Y+007887
X+001272Y+008345
X+001256Y+010246
X+004097Y+009643
X+004161Y+008976
X+004167Y+008285
X+004606Y+008345
X+004597Y+007903
X+004091Y+007284
X+004155Y+006617
X+004160Y+005926
X+004107Y+005538
X+004613Y+006002
X+004597Y+004950
X+004549Y+004283
X+004534Y+003601
X+004091Y+003633
X+004091Y+003184
X+004599Y+002581
X+004535Y+001914
X+004530Y+001223
X+004075Y+001283
X+001180Y+001223
X+001186Y+001914
X+001249Y+002581
X+001186Y+003585
X+001202Y+004268
X+001249Y+004934
X+001265Y+005986
X+004590Y+010246
X+007431Y+009643
X+007495Y+008976
X+007501Y+008285
X+007908Y+008329
X+007913Y+007903
X+007439Y+007300
X+007502Y+006633
X+007508Y+005942
X+007455Y+005553
X+007929Y+006002
X+007913Y+004950
X+007866Y+004283
X+007850Y+003601
X+007439Y+003648
X+007440Y+003184
X+007933Y+002581
X+007869Y+001914
X+007863Y+001223
X+007425Y+001283
X+010758Y+001283
X+010774Y+003184
X+010755Y+003648
X+010771Y+005553
X+010824Y+005942
X+010819Y+006633
X+010755Y+007300
X+010803Y+008269
X+010797Y+008960
X+010733Y+009627
X+007892Y+010230
T05
X+001295Y+005519
X+001502Y+005519
X+001692Y+005519
X+001899Y+005519
X+002089Y+005519
X+002264Y+005519
X+004643Y+005535
X+004850Y+005535
X+005040Y+005535
X+005247Y+005535
X+005437Y+005535
X+005612Y+005535
X+007959Y+005535
X+008166Y+005535
X+008356Y+005535
X+008563Y+005535
X+008753Y+005535
X+008928Y+005535
X+010124Y+007892
X+010324Y+007892
X+010524Y+007892
X+010724Y+007892
X+007408Y+007892
X+007208Y+007892
X+007008Y+007892
X+006808Y+007892
X+004060Y+007876
X+003860Y+007876
X+003660Y+007876
X+003460Y+007876
T06
X+001589Y+001477
X+004939Y+001477
X+008273Y+001477
X+007091Y+008539
X+010393Y+008523
X+003758Y+008539
T00
M30
