M48
INCH
T01C0.0118
T02C0.015
T03C0.0197
T04C0.0276
T05C0.0315
T06C0.0787
%
T01
X+014558Y+018760
X+013298Y+018170
X+011808Y+015969
X+009328Y+014349
X+008613Y+017481
T02
X+006349Y+015119
X+014768Y+024331
T03
X+008171Y+026010
X+010218Y+025518
X+007167Y+023648
X+005356Y+028195
T04
X+004919Y+031052
X+005008Y+032854
X+004945Y+040337
X+016132Y+037964
X+016383Y+035337
X+016405Y+032618
X+016106Y+028679
X+016357Y+026052
X+016379Y+023333
X+016168Y+021801
X+016106Y+014301
X+016106Y+012534
X+016043Y+005051
X+004646Y+004815
X+004668Y+007534
X+004919Y+010161
X+004668Y+014114
X+004731Y+016801
X+004918Y+019426
X+004982Y+023569
T05
X+005100Y+021727
X+005913Y+021727
X+006663Y+021727
X+007475Y+021727
X+008225Y+021727
X+008913Y+021727
X+013623Y+031009
X+014411Y+031009
X+015198Y+031009
X+015986Y+031009
T06
X+006257Y+005814
X+014794Y+033617
T00
M30
