G04 DipTrace 3.3.1.3*
G04 Top.gbr*
%MOIN*%
G04 #@! TF.FileFunction,Copper,L1,Top*
G04 #@! TF.Part,Single*
G04 #@! TA.AperFunction,Conductor*
%ADD10C,0.009843*%
%ADD13C,0.011811*%
%ADD14C,0.015997*%
G04 #@! TA.AperFunction,ComponentPad*
%ADD15C,0.019685*%
G04 #@! TA.AperFunction,Conductor*
%ADD16C,0.015748*%
G04 #@! TA.AperFunction,CopperBalancing*
%ADD17C,0.007992*%
%ADD18C,0.003937*%
G04 #@! TA.AperFunction,ComponentPad*
%ADD21C,0.059055*%
%ADD22R,0.03937X0.043307*%
%ADD23R,0.074803X0.025591*%
%ADD24R,0.043307X0.03937*%
%ADD25R,0.057087X0.019685*%
%ADD26R,0.062992X0.070866*%
%ADD27R,0.041339X0.031496*%
%ADD28R,0.051181X0.059055*%
%ADD29R,0.025591X0.074803*%
G04 #@! TA.AperFunction,ComponentPad*
%ADD30C,0.042992*%
%ADD31C,0.098425*%
%ADD32C,0.043307*%
%ADD33R,0.062992X0.03937*%
%ADD34R,0.244094X0.212598*%
%ADD35R,0.086614X0.023622*%
%ADD36R,0.019685X0.057087*%
%ADD37R,0.070866X0.062992*%
%ADD75C,0.00772*%
%FSLAX26Y26*%
G04*
G70*
G90*
G75*
G01*
G04 Top*
%LPD*%
X1640525Y3261785D2*
D13*
Y3531483D1*
X1638268Y3533740D1*
X1613189Y3796404D2*
Y3558819D1*
X1638268Y3533740D1*
X494514Y4033740D2*
X1375853D1*
X1613189Y3796404D1*
X494514Y4033740D2*
Y3291654D1*
X500761Y3285407D1*
X1616903D1*
X1640525Y3261785D1*
X1479409Y3361693D2*
Y3285407D1*
X1616903D1*
X464567Y481483D2*
Y751181D1*
X466824Y753438D1*
X491903Y1016102D2*
Y778517D1*
X466824Y753438D1*
X1610577Y1253438D2*
X729239D1*
X491903Y1016102D1*
X1610577Y1253438D2*
Y511365D1*
X1604331Y505118D1*
X488202D1*
X464567Y481483D1*
X625682Y581391D2*
Y505118D1*
X488202D1*
X1388806Y1903360D2*
D14*
X1414685D1*
X1501050Y1816995D1*
X1491207Y1801247D1*
X1495446Y1804895D1*
X1521037Y1702415D2*
X1479816D1*
X1458255Y1723976D1*
X1449659D1*
Y1759108D1*
X1495446Y1804895D1*
X1455774Y1876050D2*
D10*
Y1862270D1*
D14*
X1414685Y1903360D1*
X963281Y1729121D2*
Y1679318D1*
X939711Y1655748D1*
X782808Y1862769D2*
D15*
Y1872887D1*
X785171D1*
X831168Y1826890D1*
X963281Y1729121D2*
D14*
Y1746496D1*
X926247Y1783530D1*
X874528D1*
X831168Y1826890D1*
X746339Y1770892D2*
D15*
Y1826299D1*
X782808Y1862769D1*
X746339Y1770892D2*
D10*
D3*
X510000Y2172717D2*
D15*
X510459D1*
Y2092835D1*
X761667Y1841627D1*
X746339Y1826299D1*
X1289042Y1981365D2*
X1363871D1*
X1368806Y1976430D1*
X1289042Y1981365D2*
D14*
X1240328D1*
X1144803Y2076890D1*
Y2134633D1*
X1134344D1*
X1532270Y1531890D2*
X1550591D1*
X1567979Y1549278D1*
Y1545341D1*
X1577822Y1555184D1*
Y1815879D1*
X1417270Y1976430D1*
X1368806D1*
X1521037Y1652415D2*
X1462743D1*
X1449659Y1639331D1*
X1300446Y1513898D2*
Y1539619D1*
X1331759Y1570932D1*
X1422310D1*
X1447900Y1596522D1*
Y1637572D1*
X1449659Y1639331D1*
X1289042Y2031365D2*
X1356811D1*
X1368806Y2043360D1*
Y2113360D1*
X1351273Y2130892D1*
X1534265Y1462887D2*
X1566234D1*
X1607349Y1504003D1*
Y1828346D1*
X1402808Y2032887D1*
X1368806D1*
Y2043360D1*
X1024357Y1618360D2*
X1067336D1*
X1088806Y1596890D1*
Y1534173D1*
X1063281Y1508648D1*
X1058438Y1442887D2*
D15*
X1063281D1*
Y1508648D1*
X898097Y1826890D2*
Y1871719D1*
D10*
X898806Y1872428D1*
D15*
X982808D1*
X992808Y1862428D1*
X898097Y1826890D2*
D10*
Y1871719D1*
X591260Y2172717D2*
X666260D1*
X1300564Y1602415D2*
D14*
X1257966D1*
X1230801Y1575249D1*
X1412270Y1639331D2*
Y1606168D1*
X1400656Y1594554D1*
X1308425D1*
X1300564Y1602415D1*
X1412270Y1639331D2*
Y1812966D1*
X1388806Y1836430D1*
D10*
X1339724D1*
D15*
X1329790Y1846365D1*
X1303268Y1872887D1*
X1231207Y1808885D2*
X1240787D1*
X1296798Y1864895D1*
Y1872887D1*
X1303268D1*
X1428517Y1804895D2*
D10*
X1420341D1*
X1388806Y1836430D1*
X898806Y1872428D2*
D15*
X873268D1*
X828806Y1916890D1*
X736811D1*
X629226Y2024475D1*
Y2172717D1*
X591260D1*
X1201273Y2134633D2*
X1280604D1*
X1284344Y2130892D1*
X1289042Y2081365D2*
Y2126194D1*
D10*
X1284344Y2130892D1*
X1329790Y1816995D2*
Y1846365D1*
X1284344Y2130892D2*
D15*
Y2148438D1*
X1326798Y2190892D1*
X1538793D1*
X1585525Y2144160D1*
X1636877Y2092808D1*
Y1478412D1*
X1564134Y1405669D1*
X1087585D1*
X1058438Y1434816D1*
Y1442887D1*
X1616798Y2180144D2*
D13*
Y2175433D1*
X1585525Y2144160D1*
X740341Y1708885D2*
X625577D1*
X535459Y1799003D1*
Y1898976D1*
X491798Y1942638D1*
X891260Y2172717D2*
D15*
Y2108438D1*
X902808Y2096890D1*
X918346D1*
X920341Y2098885D1*
X939711Y1580958D2*
D14*
X872507D1*
X854803Y1563255D1*
X963281Y1508648D2*
Y1554423D1*
X939711Y1577992D1*
Y1580958D1*
X854803Y1563255D2*
X802808D1*
X634908Y1511877D2*
D15*
X782546Y1561089D1*
X802808Y1562428D1*
X1013281Y1729121D2*
D14*
Y1666824D1*
D10*
X1024357Y1655748D1*
X1013281Y1729121D2*
D14*
Y1795945D1*
X1002336Y1806890D1*
X802808Y1629357D2*
X854803D1*
X1024357Y1655748D2*
X999672D1*
D10*
X956194Y1612270D1*
D14*
X872717D1*
X854803Y1630184D1*
X1300564Y1702415D2*
X1353307D1*
X1374869Y1723976D1*
X1125341Y1456890D2*
Y1520892D1*
X1136339D1*
Y1643425D1*
X1136798D2*
X1161339D1*
X1212808Y1694895D1*
X1293045D1*
X1300564Y1702415D1*
X918333Y2042887D2*
X893281D1*
X822520Y2113648D1*
Y2172717D1*
X1136798Y1710354D2*
X1146798D1*
Y1726890D1*
X1069265Y1804423D1*
Y1806890D1*
X1013281Y1508648D2*
Y1569882D1*
X1024357Y1580958D1*
X1300564Y1652415D2*
X1361785D1*
X1374869Y1639331D1*
X1300564Y1652415D2*
X1230801D1*
Y1642178D1*
X1013281Y1508648D2*
Y1464659D1*
X991509Y1442887D1*
X1180801Y1596890D2*
D15*
Y1604882D1*
X1218097Y1642178D1*
X1230801D1*
X932808Y1434895D2*
D14*
X991509D1*
Y1442887D1*
X813268Y1770892D2*
D15*
Y1714882D1*
X807270Y1708885D1*
X861286Y1748097D2*
D14*
Y1744160D1*
X813268D1*
D15*
Y1714882D1*
X920341Y1990892D2*
D14*
X896050D1*
X747507Y2139436D1*
Y2172717D1*
X683176Y2848976D2*
X692585D1*
X722139Y2878530D1*
X742231D1*
Y2874567D1*
X628058Y2862756D2*
X669396D1*
X683176Y2848976D1*
X571299Y2516194D2*
D10*
X560302Y2514685D1*
X524304D1*
X506299Y2496680D1*
Y2460945D1*
X525722Y2441522D1*
X635971D1*
X670302Y2475853D1*
X710643Y2516194D1*
X776024D1*
X670302Y2475853D2*
D14*
Y2434738D1*
X716667Y2388373D1*
X756115Y2348924D1*
X1118163D1*
D10*
X1135958Y2366719D1*
Y2437480D1*
X1102100Y2471339D1*
X1095105D1*
X535564Y2819475D2*
D14*
Y2825381D1*
X574934Y2864751D1*
X626063D1*
X628058Y2862756D1*
X716667Y2364751D2*
D10*
Y2388373D1*
X742231Y2941496D2*
D14*
X748136D1*
X750131Y2943491D1*
X803228D1*
X809160Y2937559D1*
D15*
X929278D1*
Y2924409D1*
X1214711D1*
Y2915945D1*
X1405617Y2917874D2*
X1216640D1*
D10*
X1214711Y2915945D1*
X1441076Y3100932D2*
D15*
X1480446D1*
X1519816D1*
X1185131Y2666194D2*
D14*
Y2703333D1*
X1021759D1*
Y2701339D1*
X776024Y2566194D2*
X782283D1*
X817060Y2600971D1*
X1037126Y2426194D2*
D15*
Y2506063D1*
X1039790Y2508727D1*
X1095105D1*
X1021785Y2551759D2*
Y2508727D1*
X1039790D1*
X1405617Y2917874D2*
X1413517D1*
Y2988766D1*
X1480446Y3055696D1*
Y3100932D1*
X498163Y2356877D2*
D10*
X464698D1*
D14*
Y2343097D1*
X486352Y2321444D1*
X620210D1*
X633990Y2335223D1*
Y2365197D1*
X636129D1*
X633990Y2335223D2*
D16*
Y2323937D1*
X1647244D1*
X1637927Y2333255D1*
D13*
Y2652940D1*
X1598163Y2692703D1*
X1211640D1*
X1185131Y2666194D1*
X763885Y2803701D2*
D14*
Y2825354D1*
X809160Y2870630D1*
X628058Y2795827D2*
Y2803701D1*
X763885D1*
X569199Y2365197D2*
Y2414094D1*
X571299Y2416194D1*
X628058Y2795827D2*
X618215D1*
X486299Y2663911D1*
D10*
Y2448688D1*
X518793Y2416194D1*
D14*
X571299D1*
X1118202Y2666194D2*
Y2661995D1*
X899724D1*
X763885Y2797835D1*
Y2803701D1*
X1118202Y2666194D2*
D10*
Y2571470D1*
X1143543Y2546129D1*
X1179751D1*
X836286Y3088701D2*
D15*
X854948D1*
X929278Y3014370D1*
X1362336Y3100932D2*
Y3063570D1*
X1346588Y3047822D1*
X962730D1*
X929278Y3014370D1*
X1598556Y3100932D2*
Y2917874D1*
X1515853D1*
X1201063Y2748202D2*
X1346181D1*
X1515853Y2917874D1*
X913202Y2483202D2*
D14*
Y2476640D1*
X867297Y2430735D1*
X858661D1*
X776024Y2416194D2*
X852493D1*
Y2424567D1*
X858661Y2430735D1*
X586286Y2692677D2*
Y2706811D1*
X624147Y2744672D1*
X775722D1*
X913202Y2607192D1*
Y2483202D1*
X980131D2*
Y2584357D1*
X1002651Y2606877D1*
X1078937D1*
X1081260Y2609199D1*
X970197Y2426194D2*
X974541D1*
Y2477612D1*
X980131Y2483202D1*
X1098255Y2404199D2*
X1104462D1*
X1086457Y2372677D1*
X1007940D1*
X970197Y2410420D1*
Y2426194D1*
X1156063Y2609199D2*
X1204501D1*
X1258005Y2555696D1*
Y2545656D1*
X1253661D1*
X1179751Y2471339D2*
D10*
X1181234D1*
Y2483451D1*
D14*
X1243438Y2545656D1*
D10*
X1253661D1*
X586286Y2625748D2*
D14*
X593373D1*
X660302Y2692677D1*
X666286D1*
X586286Y2625748D2*
Y2581181D1*
X571299Y2566194D1*
X776024Y2466194D2*
D15*
X827192D1*
X858661Y2497664D1*
X748294Y2625748D2*
D14*
Y2640341D1*
X840682D1*
X862336Y2618688D1*
Y2501339D1*
X858661Y2497664D1*
X571299Y2466194D2*
X597822D1*
X658307Y2526680D1*
Y2617769D1*
X666286Y2625748D1*
X673373D1*
X740302Y2692677D1*
X748294D1*
X1095105Y2546129D2*
D10*
X1115997D1*
X1135958Y2526168D1*
Y2461207D1*
X1185171Y2411995D1*
X1180853D1*
X1173058Y2404199D1*
X1253661Y2478727D2*
D14*
Y2433648D1*
X1202507D1*
X1180853Y2411995D1*
X1126260Y2748202D2*
D15*
X894186D1*
X838688Y2803701D1*
X929278Y2834449D2*
Y2748202D1*
X894186D1*
X954829Y2701339D2*
Y2741982D1*
X948609Y2748202D1*
X894186D1*
X1476798Y2433150D2*
D14*
X1202887D1*
X1192270Y1456890D2*
Y1446916D1*
X1339777D1*
X1381155Y1488294D1*
X1396680D1*
X1426247Y1458727D1*
X1463176D1*
X1467336Y1462887D1*
X1203268Y1520892D2*
X1243530Y1480630D1*
X1331759D1*
D10*
X1347507Y1529593D1*
X1381155Y1539488D1*
D14*
Y1536929D1*
X1451010D1*
X1465341Y1531890D1*
X1135262Y1870892D2*
X1236339D1*
Y1872887D1*
X1156404Y1808885D2*
X1135262D1*
Y1870892D1*
X1289042Y1931365D2*
D10*
X1273281D1*
D14*
X1236339Y1894423D1*
Y1872887D1*
X1068570Y1931365D2*
D15*
X992808D1*
Y1929357D1*
X908806D1*
X898806Y1939357D1*
X884331D1*
X845276Y1978412D1*
X788215D1*
X782808Y1973005D1*
X1068333Y1870892D2*
Y1931365D1*
X1068570Y1981365D2*
D14*
X996798D1*
X987270Y1990892D1*
X1068570Y2031365D2*
X985262D1*
Y2042887D1*
X1068570Y2081365D2*
X1092808D1*
Y2087441D1*
X1091365Y2088885D1*
X987270D1*
Y2098885D1*
X461102Y3130827D2*
D17*
X725682D1*
X880499D2*
X1332953D1*
X1391745D2*
X1569094D1*
X1628018D2*
X1649514D1*
X461102Y3122966D2*
X725682D1*
X880499D2*
X1326457D1*
X1398110D2*
X1562730D1*
X1634383D2*
X1649514D1*
X461102Y3115105D2*
X725682D1*
X880499D2*
X1322717D1*
X1401982D2*
X1433727D1*
X1527231D2*
X1558858D1*
X1638255D2*
X1649514D1*
X461102Y3107244D2*
X725682D1*
X880499D2*
X1320591D1*
X1403976D2*
X1430354D1*
X1530486D2*
X1556850D1*
X1640249D2*
X1649646D1*
X461102Y3099383D2*
X725682D1*
X880499D2*
X1320210D1*
X1404475D2*
X1433110D1*
X1527861D2*
X1556352D1*
X1640748D2*
X1649646D1*
X461102Y3091522D2*
X725682D1*
X896601D2*
X1321207D1*
X1403478D2*
X1439593D1*
X1471916D2*
X1489042D1*
X1521365D2*
X1557480D1*
X1639619D2*
X1649646D1*
X461102Y3083661D2*
X725682D1*
X914843D2*
X1323963D1*
X1400735D2*
X1446089D1*
X1478412D2*
X1482559D1*
X1514869D2*
X1560105D1*
X1637008D2*
X1649646D1*
X461102Y3075801D2*
X725682D1*
X933071D2*
X1328701D1*
X1395984D2*
X1452585D1*
X1508373D2*
X1564843D1*
X1632257D2*
X1649646D1*
X461102Y3067940D2*
X725682D1*
X1388123D2*
X1459081D1*
X1501890D2*
X1572717D1*
X1624383D2*
X1649646D1*
X461102Y3060079D2*
X725682D1*
X1384501D2*
X1465564D1*
X1495394D2*
X1576089D1*
X1621024D2*
X1649764D1*
X461102Y3052218D2*
X725682D1*
X922835D2*
X926404D1*
X1381627D2*
X1472441D1*
X1488517D2*
X1576089D1*
X1621024D2*
X1649764D1*
X461102Y3044357D2*
X792113D1*
X1374633D2*
X1576089D1*
X1621024D2*
X1649764D1*
X461102Y3036496D2*
X875656D1*
X1366772D2*
X1576089D1*
X1621024D2*
X1649764D1*
X461102Y3028635D2*
X883517D1*
X1357533D2*
X1576089D1*
X1621024D2*
X1649764D1*
X461102Y3020774D2*
X885144D1*
X973412D2*
X1576089D1*
X1621024D2*
X1649764D1*
X461102Y3012913D2*
X885144D1*
X973412D2*
X1576089D1*
X1621024D2*
X1649764D1*
X461102Y3005052D2*
X885144D1*
X973412D2*
X1576089D1*
X1621024D2*
X1649895D1*
X461102Y2997192D2*
X885144D1*
X973412D2*
X1576089D1*
X1621024D2*
X1649895D1*
X461102Y2989331D2*
X885144D1*
X973412D2*
X1576089D1*
X1621024D2*
X1649895D1*
X461102Y2981470D2*
X1576089D1*
X1621024D2*
X1649895D1*
X461102Y2973609D2*
X1576089D1*
X1621024D2*
X1649895D1*
X461102Y2965748D2*
X1576089D1*
X1621024D2*
X1649895D1*
X461102Y2957887D2*
X1403386D1*
X1560079D2*
X1576089D1*
X1621024D2*
X1649895D1*
X461102Y2950026D2*
X1403386D1*
X1560079D2*
X1576089D1*
X1621024D2*
X1650013D1*
X461102Y2942165D2*
X1403386D1*
X1560079D2*
X1576089D1*
X1621024D2*
X1650013D1*
X461102Y2934304D2*
X1403386D1*
X1621024D2*
X1650013D1*
X461102Y2926444D2*
X1403386D1*
X1621024D2*
X1650013D1*
X461102Y2918583D2*
X1403386D1*
X1621024D2*
X1650013D1*
X461102Y2910722D2*
X1403386D1*
X1619895D2*
X1650013D1*
X461102Y2902861D2*
X709948D1*
X841535D2*
X1403386D1*
X1615026D2*
X1650144D1*
X461102Y2895000D2*
X595801D1*
X660459D2*
X664987D1*
X869003D2*
X1403386D1*
X1560079D2*
X1650144D1*
X461102Y2887139D2*
X595682D1*
X880997D2*
X1403386D1*
X1560079D2*
X1650144D1*
X461102Y2879278D2*
X560591D1*
X892861D2*
X1403386D1*
X1560079D2*
X1650144D1*
X461102Y2871417D2*
X552717D1*
X904843D2*
X1437979D1*
X1560079D2*
X1650144D1*
X461102Y2863556D2*
X544856D1*
X973412D2*
X1430105D1*
X1493018D2*
X1650144D1*
X461102Y2855696D2*
X536982D1*
X973412D2*
X1422244D1*
X1485157D2*
X1650144D1*
X461102Y2847835D2*
X517257D1*
X973412D2*
X1414370D1*
X1477283D2*
X1650262D1*
X461102Y2839974D2*
X508386D1*
X579042D2*
X595682D1*
X973412D2*
X1406509D1*
X1469423D2*
X1650262D1*
X461102Y2832113D2*
X503898D1*
X571181D2*
X595682D1*
X973412D2*
X1398635D1*
X1461549D2*
X1650262D1*
X461102Y2824252D2*
X501772D1*
X569423D2*
X592178D1*
X973412D2*
X1390774D1*
X1453688D2*
X1650262D1*
X461102Y2816391D2*
X501522D1*
X569554D2*
X584068D1*
X973412D2*
X1382900D1*
X1445814D2*
X1650262D1*
X461102Y2808530D2*
X503268D1*
X567927D2*
X576076D1*
X979895D2*
X1375039D1*
X1437953D2*
X1650262D1*
X461102Y2800669D2*
X507270D1*
X563937D2*
X567953D1*
X986772D2*
X1367165D1*
X1430079D2*
X1650328D1*
X461102Y2792808D2*
X514764D1*
X556444D2*
X559843D1*
X993517D2*
X1359304D1*
X1422336D2*
X1650328D1*
X461102Y2784948D2*
X551719D1*
X1000249D2*
X1087822D1*
X1239147D2*
X1351430D1*
X1414475D2*
X1650328D1*
X461102Y2777087D2*
X543609D1*
X1239147D2*
X1343570D1*
X1406601D2*
X1650328D1*
X461102Y2769226D2*
X535617D1*
X1398740D2*
X1650328D1*
X461102Y2761365D2*
X515630D1*
X1390866D2*
X1650328D1*
X461102Y2753504D2*
X508268D1*
X1383005D2*
X1650328D1*
X461102Y2745643D2*
X501024D1*
X1375131D2*
X1650328D1*
X461102Y2737782D2*
X493780D1*
X1367270D2*
X1650328D1*
X461102Y2729921D2*
X486535D1*
X1358399D2*
X1650328D1*
X461102Y2722060D2*
X479291D1*
X1239147D2*
X1650328D1*
X461102Y2714199D2*
X472047D1*
X1239147D2*
X1650328D1*
X461102Y2706339D2*
X465302D1*
X1140367D2*
X1650328D1*
X461102Y2698478D2*
X463937D1*
X1140367D2*
X1650328D1*
X461102Y2690617D2*
X463937D1*
X1172336D2*
X1650328D1*
X461102Y2682756D2*
X464055D1*
X1212297D2*
X1650328D1*
X461102Y2674895D2*
X464055D1*
X1221916D2*
X1650328D1*
X461102Y2667034D2*
X464186D1*
X1231522D2*
X1650328D1*
X461102Y2659173D2*
X464186D1*
X1241024D2*
X1650328D1*
X461102Y2651312D2*
X464304D1*
X1250630D2*
X1650328D1*
X461102Y2643451D2*
X464304D1*
X1260249D2*
X1650328D1*
X461102Y2635591D2*
X464304D1*
X1269869D2*
X1650328D1*
X461102Y2627730D2*
X464436D1*
X1279475D2*
X1428858D1*
X1520236D2*
X1650328D1*
X461102Y2619869D2*
X464436D1*
X1288976D2*
X1400262D1*
X1548714D2*
X1650328D1*
X461102Y2612008D2*
X464554D1*
X1298583D2*
X1384396D1*
X1564698D2*
X1650328D1*
X461102Y2604147D2*
X464554D1*
X1308202D2*
X1368543D1*
X1580551D2*
X1650328D1*
X461102Y2596286D2*
X464685D1*
X1317822D2*
X1353058D1*
X1596050D2*
X1650328D1*
X461102Y2588425D2*
X464685D1*
X1327428D2*
X1344934D1*
X1604160D2*
X1650328D1*
X461102Y2580564D2*
X464803D1*
X1612270D2*
X1650328D1*
X461102Y2572703D2*
X464803D1*
X1620394D2*
X1650328D1*
X461102Y2564843D2*
X464803D1*
X1628504D2*
X1650328D1*
X461102Y2556982D2*
X464934D1*
X1636627D2*
X1650328D1*
X461102Y2549121D2*
X464934D1*
X1642874D2*
X1650328D1*
X461102Y2541260D2*
X465052D1*
X1646995D2*
X1650328D1*
X461102Y2533399D2*
X465052D1*
X461102Y2525538D2*
X465184D1*
X461102Y2517677D2*
X465184D1*
X461102Y2509816D2*
X465302D1*
X461102Y2501955D2*
X465302D1*
X461102Y2494094D2*
X465433D1*
X461102Y2486234D2*
X465433D1*
X461102Y2478373D2*
X465433D1*
X461102Y2470512D2*
X465551D1*
X461102Y2462651D2*
X465551D1*
X461102Y2454790D2*
X465682D1*
X461102Y2446929D2*
X465682D1*
X461102Y2439068D2*
X465801D1*
X461102Y2431207D2*
X465801D1*
X461102Y2423346D2*
X465932D1*
X461102Y2415486D2*
X467178D1*
X461102Y2407625D2*
X474423D1*
X461102Y2399764D2*
X482913D1*
X461102Y2391903D2*
X491404D1*
X461102Y2384042D2*
X499895D1*
X461102Y2376181D2*
X508268D1*
X461102Y2368320D2*
X516759D1*
X461102Y2360459D2*
X525249D1*
X461102Y2352598D2*
X533740D1*
X461102Y2344738D2*
X534738D1*
X461102Y2336877D2*
X534738D1*
X735761D2*
X739291D1*
X461102Y2329016D2*
X747402D1*
X461102Y2321155D2*
X1170984D1*
X714698Y2908110D2*
X773806D1*
Y2900499D1*
X777585Y2900551D1*
X777625Y2904173D1*
X840735D1*
Y2900551D1*
X856299D1*
X860328Y2899829D1*
X862835Y2898596D1*
X912362Y2865945D1*
X972625Y2865984D1*
Y2816155D1*
X1005958Y2777507D1*
X1088570Y2777493D1*
X1088648Y2790000D1*
X1163570Y2789882D1*
X1171444Y2790000D1*
X1238373D1*
Y2770394D1*
X1292822Y2770315D1*
X1337664D1*
X1441168Y2873898D1*
X1404147Y2873845D1*
Y2963596D1*
X1472454D1*
X1472507Y2965197D1*
X1559239D1*
Y2939593D1*
X1576942Y2939606D1*
X1576837Y2969843D1*
X1576811Y3065709D1*
X1570459Y3070525D1*
X1565144Y3076483D1*
X1561076Y3083346D1*
X1558399Y3090866D1*
X1557218Y3098753D1*
X1557559Y3106732D1*
X1559436Y3114488D1*
X1562769Y3121732D1*
X1567415Y3128215D1*
X1573228Y3133688D1*
X1577927Y3136772D1*
X1382441Y3137139D1*
X1388793Y3132782D1*
X1394409Y3127113D1*
X1398832Y3120472D1*
X1401903Y3113110D1*
X1403504Y3105289D1*
X1403727Y3100932D1*
X1402966Y3092992D1*
X1400682Y3085341D1*
X1396982Y3078281D1*
X1391995Y3072047D1*
X1385892Y3066903D1*
X1384094Y3065774D1*
X1383688Y3059593D1*
X1382598Y3055748D1*
X1380827Y3052178D1*
X1377690Y3048215D1*
X1361942Y3032467D1*
X1358871Y3029908D1*
X1355394Y3027966D1*
X1351601Y3026693D1*
X1346588Y3026102D1*
X972625Y3025932D1*
Y2982795D1*
X885892D1*
Y3027126D1*
X871444Y3041470D1*
X823727Y3041378D1*
X792940D1*
Y3048740D1*
X736273Y3048819D1*
X726430D1*
Y3132559D1*
X792992D1*
X792940Y3135984D1*
X879672D1*
Y3098399D1*
X908294Y3086168D1*
X952677Y3067047D1*
X957717Y3068937D1*
X962730Y3069528D1*
X1335486D1*
X1331444Y3073373D1*
X1326732Y3079816D1*
X1323333Y3087034D1*
X1321391Y3094777D1*
X1320971Y3102743D1*
X1322100Y3110656D1*
X1324711Y3118189D1*
X1328714Y3125092D1*
X1333976Y3131089D1*
X1340289Y3135971D1*
X1342572Y3137257D1*
X1082861Y3137638D1*
X460302Y3138688D1*
Y2318675D1*
X1310092Y2317257D1*
X1308491Y2319278D1*
X1306627Y2319738D1*
X1004436Y2322874D1*
X1000407Y2323648D1*
X1002257Y2323097D1*
X998045Y2324816D1*
X760354D1*
X756378Y2325210D1*
X752572Y2326404D1*
X749081Y2328320D1*
X746299Y2330630D1*
X737913Y2339029D1*
X732454Y2335354D1*
X728832Y2333675D1*
X725039Y2332441D1*
X721115Y2331667D1*
X717139Y2331378D1*
X713150Y2331562D1*
X709213Y2332218D1*
X705381Y2333346D1*
X700302Y2335735D1*
X696352Y2332388D1*
X691877Y2330945D1*
X642598Y2330879D1*
X562559D1*
X559042Y2331404D1*
X555472Y2333228D1*
X535499Y2333189D1*
Y2351798D1*
X513478Y2372113D1*
X470472Y2412047D1*
X468058Y2415210D1*
X466772Y2419331D1*
X466444Y2449055D1*
X465118Y2640433D1*
X464685Y2700656D1*
X465328Y2704580D1*
X466995Y2707769D1*
X500354Y2744029D1*
X515827Y2760801D1*
X518976Y2763228D1*
X522638Y2764462D1*
X532060Y2765013D1*
X596509Y2827690D1*
X596430Y2844908D1*
X583228Y2844882D1*
X567480Y2829199D1*
X568412Y2825315D1*
X568937Y2819475D1*
X568688Y2815486D1*
X567979Y2811549D1*
X566798Y2807743D1*
X565184Y2804094D1*
X563123Y2800656D1*
X560682Y2797507D1*
X557874Y2794659D1*
X554751Y2792178D1*
X551352Y2790079D1*
X547730Y2788399D1*
X543937Y2787165D1*
X540013Y2786404D1*
X536037Y2786102D1*
X532047Y2786286D1*
X528097Y2786942D1*
X524265Y2788071D1*
X520604Y2789646D1*
X517139Y2791640D1*
X513950Y2794042D1*
X511063Y2796811D1*
X508543Y2799895D1*
X506391Y2803268D1*
X504659Y2806864D1*
X503386Y2810643D1*
X502559Y2814554D1*
X502205Y2818530D1*
X502336Y2822520D1*
X502940Y2826470D1*
X504003Y2830315D1*
X505525Y2834016D1*
X507480Y2837493D1*
X509829Y2840722D1*
X512559Y2843648D1*
X515604Y2846220D1*
X518950Y2848412D1*
X522520Y2850184D1*
X526286Y2851522D1*
X530184Y2852402D1*
X534777Y2852795D1*
X560879Y2878793D1*
X563976Y2881312D1*
X567507Y2883176D1*
X571339Y2884291D1*
X574934Y2884619D1*
X596535D1*
X596430Y2892559D1*
X596522Y2893189D1*
Y2896299D1*
X659633D1*
Y2892428D1*
X660171Y2892559D1*
Y2889436D1*
X668031Y2897192D1*
X671312Y2899449D1*
X674974Y2900486D1*
X710643Y2900551D1*
X710696Y2908110D1*
X714698D1*
X1163570Y2707297D2*
X1147585Y2707205D1*
X1139475D1*
X1139580Y2697454D1*
X1151759Y2697480D1*
Y2693110D1*
X1204042Y2686522D1*
X1207953Y2685289D1*
X1210079Y2683924D1*
X1332073Y2583924D1*
X1336037Y2579094D1*
X1352887Y2595420D1*
X1355892Y2597546D1*
X1409672Y2624108D1*
X1413123Y2625197D1*
X1472743Y2634357D1*
X1476339D1*
X1535958Y2625197D1*
X1539409Y2624108D1*
X1593189Y2597546D1*
X1596194Y2595420D1*
X1638871Y2554055D1*
X1641115Y2551050D1*
X1651745Y2530827D1*
X1650302Y3136693D1*
X1619213Y3136745D1*
X1625013Y3132782D1*
X1630630Y3127113D1*
X1635052Y3120472D1*
X1638123Y3113110D1*
X1639724Y3105289D1*
X1639948Y3100932D1*
X1639186Y3092992D1*
X1636903Y3085341D1*
X1633202Y3078281D1*
X1628215Y3072047D1*
X1622113Y3066903D1*
X1620315Y3065774D1*
X1620262Y2917900D1*
X1619908Y2913924D1*
X1618819Y2910079D1*
X1617047Y2906509D1*
X1614646Y2903320D1*
X1611706Y2900617D1*
X1608320Y2898504D1*
X1604606Y2897047D1*
X1598832Y2896181D1*
X1559213D1*
X1559239Y2870591D1*
X1499173D1*
X1449291Y2820604D1*
X1361942Y2733255D1*
X1358871Y2730696D1*
X1355394Y2728753D1*
X1351601Y2727480D1*
X1346588Y2726890D1*
X1238320D1*
X1238373Y2707205D1*
X1163451Y2707336D1*
X1447034Y3118740D2*
X1517848D1*
X1521772Y3118071D1*
X1525249Y3116155D1*
X1527900Y3113189D1*
X1529423Y3109514D1*
X1529646Y3105538D1*
X1528465Y3101614D1*
X1526995Y3099304D1*
X1489593Y3054029D1*
X1486588Y3051444D1*
X1482887Y3049974D1*
X1478911Y3049829D1*
X1475105Y3050997D1*
X1472192Y3053058D1*
X1440748Y3091010D1*
X1433898Y3099304D1*
X1431903Y3102756D1*
X1431181Y3106667D1*
X1431772Y3110604D1*
X1433635Y3114108D1*
X1436562Y3116811D1*
X1440328Y3118412D1*
X1443045Y3118740D1*
X1447034D1*
X459081Y4062402D2*
X1655866D1*
X459081Y4054541D2*
X1655866D1*
X459081Y4046680D2*
X1655866D1*
X459081Y4038819D2*
X1655866D1*
X459081Y4030958D2*
X1655866D1*
X459081Y4023097D2*
X1655866D1*
X459081Y4015236D2*
X1655866D1*
X459081Y4007375D2*
X1655866D1*
X459081Y3999514D2*
X1655866D1*
X459081Y3991654D2*
X1655866D1*
X459081Y3983793D2*
X1655866D1*
X459081Y3975932D2*
X1655866D1*
X459081Y3968071D2*
X1655866D1*
X459081Y3960210D2*
X1655866D1*
X459081Y3952349D2*
X1655866D1*
X459081Y3944488D2*
X1655866D1*
X459081Y3936627D2*
X1655866D1*
X459081Y3928766D2*
X1655866D1*
X459081Y3920906D2*
X1655866D1*
X459081Y3913045D2*
X1655866D1*
X459081Y3905184D2*
X1655866D1*
X459081Y3897323D2*
X1655866D1*
X459081Y3889462D2*
X1655866D1*
X459081Y3881601D2*
X1655866D1*
X459081Y3873740D2*
X1655866D1*
X459081Y3865879D2*
X1655866D1*
X459081Y3858018D2*
X1655866D1*
X459081Y3850157D2*
X1655866D1*
X459081Y3842297D2*
X1655866D1*
X459081Y3834436D2*
X1655866D1*
X459081Y3826575D2*
X1655866D1*
X459081Y3818714D2*
X1655866D1*
X459081Y3810853D2*
X1655866D1*
X459081Y3802992D2*
X1655866D1*
X459081Y3795131D2*
X1655866D1*
X459081Y3787270D2*
X1655866D1*
X459081Y3779409D2*
X1655866D1*
X459081Y3771549D2*
X1655866D1*
X459081Y3763688D2*
X1655866D1*
X459081Y3755827D2*
X1655866D1*
X459081Y3747966D2*
X1655866D1*
X459081Y3740105D2*
X1655866D1*
X459081Y3732244D2*
X1655866D1*
X459081Y3724383D2*
X1655866D1*
X459081Y3716522D2*
X1655866D1*
X459081Y3708661D2*
X1655866D1*
X459081Y3700801D2*
X1655866D1*
X459081Y3692940D2*
X884003D1*
X1371378D2*
X1655866D1*
X459081Y3685079D2*
X884003D1*
X1371378D2*
X1655866D1*
X459081Y3677218D2*
X884003D1*
X1371378D2*
X1655866D1*
X459081Y3669357D2*
X884003D1*
X1371378D2*
X1655866D1*
X459081Y3661496D2*
X884003D1*
X1371378D2*
X1655866D1*
X459081Y3653635D2*
X884003D1*
X1371378D2*
X1655866D1*
X459081Y3645774D2*
X884003D1*
X1371378D2*
X1655866D1*
X459081Y3637913D2*
X884003D1*
X1371378D2*
X1655866D1*
X459081Y3630052D2*
X884003D1*
X1371378D2*
X1655866D1*
X459081Y3622192D2*
X884003D1*
X1371378D2*
X1655866D1*
X459081Y3614331D2*
X884003D1*
X1371378D2*
X1655866D1*
X459081Y3606470D2*
X884003D1*
X1371378D2*
X1655866D1*
X459081Y3598609D2*
X884003D1*
X1371378D2*
X1655866D1*
X459081Y3590748D2*
X884003D1*
X1371378D2*
X1655866D1*
X459081Y3582887D2*
X1655866D1*
X459081Y3575026D2*
X1655866D1*
X459081Y3567165D2*
X1655866D1*
X459081Y3559304D2*
X1655866D1*
X459081Y3551444D2*
X1655866D1*
X459081Y3543583D2*
X1655866D1*
X459081Y3535722D2*
X1655866D1*
X459081Y3527861D2*
X1655866D1*
X459081Y3520000D2*
X1655866D1*
X459081Y3512139D2*
X1655866D1*
X459081Y3504278D2*
X1655866D1*
X459081Y3496417D2*
X1655866D1*
X459081Y3488556D2*
X1655866D1*
X459081Y3480696D2*
X1655866D1*
X459081Y3472835D2*
X1655866D1*
X459081Y3464974D2*
X1655866D1*
X459081Y3457113D2*
X1655866D1*
X459081Y3449252D2*
X1655866D1*
X459081Y3441391D2*
X1655866D1*
X459081Y3433530D2*
X1655866D1*
X459081Y3425669D2*
X1655866D1*
X459081Y3417808D2*
X1655866D1*
X459081Y3409948D2*
X1655866D1*
X459081Y3402087D2*
X1655866D1*
X459081Y3394226D2*
X1655866D1*
X459081Y3386365D2*
X1655866D1*
X459081Y3378504D2*
X1655866D1*
X459081Y3370643D2*
X1655866D1*
X459081Y3362782D2*
X1655866D1*
X459081Y3354921D2*
X1655866D1*
X459081Y3347060D2*
X1655866D1*
X459081Y3339199D2*
X1655866D1*
X459081Y3331339D2*
X1655866D1*
X459081Y3323478D2*
X1655866D1*
X459081Y3315617D2*
X1655866D1*
X459081Y3307756D2*
X1655866D1*
X459081Y3299895D2*
X1655866D1*
X459081Y3292034D2*
X1655866D1*
X459081Y3284173D2*
X1655866D1*
X459081Y3276312D2*
X1655866D1*
X459081Y3268451D2*
X1655866D1*
X459081Y3260591D2*
X1655866D1*
X459081Y3252730D2*
X1655866D1*
X888753Y3698583D2*
X1370591D1*
Y3584659D1*
X884751D1*
Y3698583D1*
X888753D1*
X1652677Y4070262D2*
X458281D1*
Y3246916D1*
X1656680D1*
Y4070262D1*
X1652677D1*
X449213Y1282113D2*
X1645984D1*
X449213Y1274252D2*
X1645984D1*
X449213Y1266391D2*
X1645984D1*
X449213Y1258530D2*
X1645984D1*
X449213Y1250669D2*
X1645984D1*
X449213Y1242808D2*
X1645984D1*
X449213Y1234948D2*
X1645984D1*
X449213Y1227087D2*
X1645984D1*
X449213Y1219226D2*
X1645984D1*
X449213Y1211365D2*
X1645984D1*
X449213Y1203504D2*
X1645984D1*
X449213Y1195643D2*
X1645984D1*
X449213Y1187782D2*
X1645984D1*
X449213Y1179921D2*
X1645984D1*
X449213Y1172060D2*
X1645984D1*
X449213Y1164199D2*
X1645984D1*
X449213Y1156339D2*
X1645984D1*
X449213Y1148478D2*
X1645984D1*
X449213Y1140617D2*
X1645984D1*
X449213Y1132756D2*
X1645984D1*
X449213Y1124895D2*
X1645984D1*
X449213Y1117034D2*
X1645984D1*
X449213Y1109173D2*
X1645984D1*
X449213Y1101312D2*
X1645984D1*
X449213Y1093451D2*
X1645984D1*
X449213Y1085591D2*
X1645984D1*
X449213Y1077730D2*
X1645984D1*
X449213Y1069869D2*
X1645984D1*
X449213Y1062008D2*
X1645984D1*
X449213Y1054147D2*
X1645984D1*
X449213Y1046286D2*
X1645984D1*
X449213Y1038425D2*
X1645984D1*
X449213Y1030564D2*
X1645984D1*
X449213Y1022703D2*
X1645984D1*
X449213Y1014843D2*
X1645984D1*
X449213Y1006982D2*
X1645984D1*
X449213Y999121D2*
X1645984D1*
X449213Y991260D2*
X1645984D1*
X449213Y983399D2*
X1645984D1*
X449213Y975538D2*
X1645984D1*
X449213Y967677D2*
X1645984D1*
X449213Y959816D2*
X1645984D1*
X449213Y951955D2*
X1645984D1*
X449213Y944094D2*
X1645984D1*
X449213Y936234D2*
X891483D1*
X1378858D2*
X1645984D1*
X449213Y928373D2*
X891483D1*
X1378858D2*
X1645984D1*
X449213Y920512D2*
X891483D1*
X1378858D2*
X1645984D1*
X449213Y912651D2*
X891483D1*
X1378858D2*
X1645984D1*
X449213Y904790D2*
X891483D1*
X1378858D2*
X1645984D1*
X449213Y896929D2*
X891483D1*
X1378858D2*
X1645984D1*
X449213Y889068D2*
X891483D1*
X1378858D2*
X1645984D1*
X449213Y881207D2*
X891483D1*
X1378858D2*
X1645984D1*
X449213Y873346D2*
X891483D1*
X1378858D2*
X1645984D1*
X449213Y865486D2*
X891483D1*
X1378858D2*
X1645984D1*
X449213Y857625D2*
X891483D1*
X1378858D2*
X1645984D1*
X449213Y849764D2*
X891483D1*
X1378858D2*
X1645984D1*
X449213Y841903D2*
X891483D1*
X1378858D2*
X1645984D1*
X449213Y834042D2*
X891483D1*
X1378858D2*
X1645984D1*
X449213Y826181D2*
X1645984D1*
X449213Y818320D2*
X1645984D1*
X449213Y810459D2*
X1645984D1*
X449213Y802598D2*
X1645984D1*
X449213Y794738D2*
X1645984D1*
X449213Y786877D2*
X1645984D1*
X449213Y779016D2*
X1645984D1*
X449213Y771155D2*
X1645984D1*
X449213Y763294D2*
X1645984D1*
X449213Y755433D2*
X1645984D1*
X449213Y747572D2*
X1645984D1*
X449213Y739711D2*
X1645984D1*
X449213Y731850D2*
X1645984D1*
X449213Y723990D2*
X1645984D1*
X449213Y716129D2*
X1645984D1*
X449213Y708268D2*
X1645984D1*
X449213Y700407D2*
X1645984D1*
X449213Y692546D2*
X1645984D1*
X449213Y684685D2*
X1645984D1*
X449213Y676824D2*
X1645984D1*
X449213Y668963D2*
X1645984D1*
X449213Y661102D2*
X1645984D1*
X449213Y653241D2*
X1645984D1*
X449213Y645381D2*
X1645984D1*
X449213Y637520D2*
X1645984D1*
X449213Y629659D2*
X1645984D1*
X449213Y621798D2*
X1645984D1*
X449213Y613937D2*
X1645984D1*
X449213Y606076D2*
X1645984D1*
X449213Y598215D2*
X1645984D1*
X449213Y590354D2*
X1645984D1*
X449213Y582493D2*
X1645984D1*
X449213Y574633D2*
X1645984D1*
X449213Y566772D2*
X1645984D1*
X449213Y558911D2*
X1645984D1*
X449213Y551050D2*
X1645984D1*
X449213Y543189D2*
X1645984D1*
X449213Y535328D2*
X1645984D1*
X449213Y527467D2*
X1645984D1*
X449213Y519606D2*
X1645984D1*
X449213Y511745D2*
X1645984D1*
X449213Y503885D2*
X1645984D1*
X449213Y496024D2*
X1645984D1*
X449213Y488163D2*
X1645984D1*
X449213Y480302D2*
X1645984D1*
X449213Y472441D2*
X1645984D1*
X896273Y943307D2*
X1378123D1*
Y829383D1*
X892283D1*
Y943307D1*
X896273D1*
X1642795Y1289974D2*
X448412D1*
Y466627D1*
X1646798D1*
Y1289974D1*
X1642795D1*
X454199Y2212795D2*
D18*
X492874D1*
X527126D2*
X730328D1*
X764646D2*
X805381D1*
X839698D2*
X874094D1*
X908412D2*
X1650236D1*
X454199Y2208990D2*
X485682D1*
X534331D2*
X723189D1*
X771837D2*
X798241D1*
X846824D2*
X866955D1*
X915538D2*
X1650236D1*
X454199Y2205184D2*
X480761D1*
X539252D2*
X718268D1*
X776759D2*
X793268D1*
X851745D2*
X862034D1*
X920525D2*
X1650236D1*
X454199Y2201378D2*
X476942D1*
X543058D2*
X714462D1*
X780577D2*
X789449D1*
X855564D2*
X858215D1*
X924344D2*
X1650236D1*
X454199Y2197572D2*
X473990D1*
X546024D2*
X711509D1*
X783530D2*
X786496D1*
X927297D2*
X1650236D1*
X454199Y2193766D2*
X471601D1*
X548412D2*
X709108D1*
X929685D2*
X1650236D1*
X454199Y2189961D2*
X469751D1*
X550262D2*
X707257D1*
X931535D2*
X1650171D1*
X454199Y2186155D2*
X468268D1*
X551732D2*
X705787D1*
X932953D2*
X1650171D1*
X454199Y2182349D2*
X467231D1*
X552782D2*
X704738D1*
X934055D2*
X1650171D1*
X454199Y2178543D2*
X466549D1*
X553465D2*
X704068D1*
X934738D2*
X1650171D1*
X454199Y2174738D2*
X466181D1*
X553832D2*
X703688D1*
X935039D2*
X1650171D1*
X454199Y2170932D2*
X466181D1*
X553832D2*
X703688D1*
X935105D2*
X1650171D1*
X454199Y2167126D2*
X466496D1*
X553465D2*
X704003D1*
X934738D2*
X1012507D1*
X1353780D2*
X1650171D1*
X454199Y2163320D2*
X467165D1*
X552848D2*
X704685D1*
X934055D2*
X1012507D1*
X1387244D2*
X1650118D1*
X454199Y2159514D2*
X468215D1*
X551798D2*
X705722D1*
X933071D2*
X1012507D1*
X1387244D2*
X1650118D1*
X454199Y2155709D2*
X469633D1*
X550381D2*
X707139D1*
X931654D2*
X1012507D1*
X1387244D2*
X1650118D1*
X454199Y2151903D2*
X471470D1*
X548543D2*
X708990D1*
X929816D2*
X1012507D1*
X1387244D2*
X1650118D1*
X454199Y2148097D2*
X473806D1*
X546207D2*
X711325D1*
X927480D2*
X1012507D1*
X1387244D2*
X1650118D1*
X454199Y2144291D2*
X476759D1*
X543255D2*
X714278D1*
X924528D2*
X1012507D1*
X1387244D2*
X1650118D1*
X454199Y2140486D2*
X480459D1*
X539554D2*
X717966D1*
X920827D2*
X1012507D1*
X1387244D2*
X1650052D1*
X454199Y2136680D2*
X485315D1*
X534698D2*
X722822D1*
X915971D2*
X1012507D1*
X1387244D2*
X1650052D1*
X454199Y2132874D2*
X486299D1*
X534633D2*
X726207D1*
X915420D2*
X1012507D1*
X1387244D2*
X1650052D1*
X454199Y2129068D2*
X486299D1*
X534633D2*
X727808D1*
X1387244D2*
X1650052D1*
X454199Y2125262D2*
X486299D1*
X534633D2*
X730394D1*
X1387612D2*
X1650052D1*
X454199Y2121457D2*
X486299D1*
X534633D2*
X734081D1*
X1389580D2*
X1650052D1*
X454199Y2117651D2*
X486299D1*
X534633D2*
X737900D1*
X1390696D2*
X1650052D1*
X454199Y2113845D2*
X486299D1*
X534633D2*
X741706D1*
X1391115D2*
X1649987D1*
X454199Y2110039D2*
X486299D1*
X534633D2*
X745525D1*
X1391115D2*
X1649987D1*
X454199Y2106234D2*
X486299D1*
X534633D2*
X749344D1*
X1391115D2*
X1649987D1*
X454199Y2102428D2*
X486299D1*
X534882D2*
X753150D1*
X1391115D2*
X1649987D1*
X454199Y2098622D2*
X486299D1*
X538635D2*
X756903D1*
X1391115D2*
X1649987D1*
X454199Y2094816D2*
X486299D1*
X542454D2*
X760722D1*
X1391115D2*
X1649987D1*
X454199Y2091010D2*
X486365D1*
X546260D2*
X764528D1*
X1391115D2*
X1649987D1*
X454199Y2087205D2*
X486969D1*
X550079D2*
X768346D1*
X1391115D2*
X1649934D1*
X454199Y2083399D2*
X488268D1*
X553885D2*
X772165D1*
X1391115D2*
X1649934D1*
X454199Y2079593D2*
X490302D1*
X557703D2*
X775971D1*
X1391115D2*
X1649934D1*
X454199Y2075787D2*
X493491D1*
X561522D2*
X779790D1*
X1402808D2*
X1649934D1*
X454199Y2071982D2*
X497310D1*
X565276D2*
X783543D1*
X1402808D2*
X1649934D1*
X454199Y2068176D2*
X501129D1*
X569081D2*
X787349D1*
X1402808D2*
X1649934D1*
X454199Y2064370D2*
X504882D1*
X572900D2*
X791168D1*
X1402808D2*
X1649934D1*
X454199Y2060564D2*
X508688D1*
X576719D2*
X794987D1*
X1402808D2*
X1649869D1*
X454199Y2056759D2*
X512507D1*
X580525D2*
X798793D1*
X1402808D2*
X1649869D1*
X454199Y2052953D2*
X516312D1*
X584344D2*
X802612D1*
X1412034D2*
X1649869D1*
X454199Y2049147D2*
X520131D1*
X588150D2*
X806430D1*
X1417874D2*
X1649869D1*
X454199Y2045341D2*
X523950D1*
X591969D2*
X810236D1*
X1421759D2*
X1649869D1*
X454199Y2041535D2*
X527756D1*
X595722D2*
X813990D1*
X1425564D2*
X1649869D1*
X454199Y2037730D2*
X531509D1*
X599541D2*
X817808D1*
X1429383D2*
X1649869D1*
X454199Y2033924D2*
X535328D1*
X603346D2*
X821614D1*
X1433136D2*
X1649803D1*
X454199Y2030118D2*
X539134D1*
X607165D2*
X825433D1*
X1436955D2*
X1649803D1*
X454199Y2026312D2*
X542953D1*
X610971D2*
X829252D1*
X1440761D2*
X1649803D1*
X454199Y2022507D2*
X546772D1*
X614790D2*
X833058D1*
X1444580D2*
X1649803D1*
X454199Y2018701D2*
X550577D1*
X618609D2*
X836877D1*
X1448386D2*
X1649803D1*
X454199Y2014895D2*
X554396D1*
X622362D2*
X733031D1*
X832559D2*
X840630D1*
X1452205D2*
X1649803D1*
X454199Y2011089D2*
X558215D1*
X626168D2*
X733031D1*
X832559D2*
X844449D1*
X1456024D2*
X1649751D1*
X454199Y2007283D2*
X561969D1*
X629987D2*
X733031D1*
X832559D2*
X848255D1*
X1459777D2*
X1649751D1*
X454199Y2003478D2*
X565774D1*
X633806D2*
X733031D1*
X832559D2*
X852073D1*
X1463583D2*
X1649751D1*
X468255Y1999672D2*
X569593D1*
X637612D2*
X733031D1*
X1467402D2*
X1649751D1*
X474961Y1995866D2*
X573399D1*
X641430D2*
X733031D1*
X1471220D2*
X1649751D1*
X481732Y1992060D2*
X577218D1*
X645236D2*
X733031D1*
X1475026D2*
X1649751D1*
X488438Y1988255D2*
X581037D1*
X649055D2*
X733031D1*
X1478845D2*
X1649751D1*
X495210Y1984449D2*
X584843D1*
X652808D2*
X733031D1*
X1482651D2*
X1649685D1*
X501916Y1980643D2*
X588596D1*
X656627D2*
X733031D1*
X1486470D2*
X1649685D1*
X508675Y1976837D2*
X592415D1*
X660433D2*
X733031D1*
X1490223D2*
X1649685D1*
X515262Y1973031D2*
X596220D1*
X664252D2*
X733031D1*
X1494042D2*
X1649685D1*
X519633Y1969226D2*
X600039D1*
X668071D2*
X733031D1*
X1497848D2*
X1649685D1*
X522270Y1965420D2*
X603858D1*
X671877D2*
X733031D1*
X1501667D2*
X1649685D1*
X523937Y1961614D2*
X607664D1*
X675696D2*
X733031D1*
X1505472D2*
X1649685D1*
X524790Y1957808D2*
X611483D1*
X679449D2*
X733031D1*
X1509291D2*
X1649619D1*
X524974Y1954003D2*
X615302D1*
X683255D2*
X733031D1*
X832559D2*
X835709D1*
X1402808D2*
X1408294D1*
X1513110D2*
X1649619D1*
X524974Y1950197D2*
X619055D1*
X687073D2*
X733031D1*
X832559D2*
X839462D1*
X1402808D2*
X1412113D1*
X1516864D2*
X1649619D1*
X524921Y1946391D2*
X622861D1*
X690892D2*
X733031D1*
X832559D2*
X843268D1*
X1402808D2*
X1415919D1*
X1520669D2*
X1649619D1*
X524921Y1942585D2*
X626680D1*
X694698D2*
X733031D1*
X832559D2*
X847087D1*
X1402808D2*
X1419672D1*
X1524488D2*
X1649619D1*
X524856Y1938780D2*
X630486D1*
X698517D2*
X733031D1*
X832559D2*
X850906D1*
X1528294D2*
X1649619D1*
X524856Y1934974D2*
X634304D1*
X702323D2*
X733031D1*
X832559D2*
X854711D1*
X1422795D2*
X1427310D1*
X1532113D2*
X1649619D1*
X524790Y1931168D2*
X638123D1*
X706142D2*
X733031D1*
X832559D2*
X858530D1*
X1422795D2*
X1431115D1*
X1535932D2*
X1649567D1*
X524790Y1927362D2*
X641929D1*
X709895D2*
X862349D1*
X1422795D2*
X1434934D1*
X1539738D2*
X1649567D1*
X524790Y1923556D2*
X645682D1*
X713714D2*
X864803D1*
X1423596D2*
X1438740D1*
X1543556D2*
X1649567D1*
X524738Y1919751D2*
X649501D1*
X717520D2*
X864803D1*
X1429633D2*
X1442559D1*
X1547310D2*
X1649567D1*
X524738Y1915945D2*
X653307D1*
X734685D2*
X864803D1*
X1433504D2*
X1446378D1*
X1551129D2*
X1649567D1*
X524672Y1912139D2*
X657126D1*
X765879D2*
X864803D1*
X1340735D2*
X1354777D1*
X1437323D2*
X1450131D1*
X1554934D2*
X1649567D1*
X524672Y1908333D2*
X660945D1*
X792388D2*
X864803D1*
X1340735D2*
X1354777D1*
X1558753D2*
X1649567D1*
X524606Y1904528D2*
X664751D1*
X832559D2*
X864803D1*
X932822D2*
X958806D1*
X1026824D2*
X1044186D1*
X1324987D2*
X1354777D1*
X1562559D2*
X1649501D1*
X524606Y1900722D2*
X668570D1*
X832559D2*
X958806D1*
X1026824D2*
X1032375D1*
X1330709D2*
X1354777D1*
X1566378D2*
X1649501D1*
X524554Y1896916D2*
X672388D1*
X832559D2*
X958806D1*
X1026824D2*
X1032375D1*
X1336365D2*
X1354777D1*
X1570197D2*
X1649501D1*
X524554Y1893110D2*
X676129D1*
X832559D2*
X1032375D1*
X1342087D2*
X1354777D1*
X1573950D2*
X1649501D1*
X524554Y1889304D2*
X679948D1*
X832559D2*
X1032375D1*
X1347756D2*
X1354777D1*
X1577756D2*
X1649501D1*
X524488Y1885499D2*
X683766D1*
X832559D2*
X1032375D1*
X1353478D2*
X1354816D1*
X1581575D2*
X1649501D1*
X524488Y1881693D2*
X685604D1*
X832559D2*
X1032375D1*
X1585381D2*
X1649436D1*
X524423Y1877887D2*
X686837D1*
X832559D2*
X1032375D1*
X1589199D2*
X1649436D1*
X524423Y1874081D2*
X688005D1*
X832559D2*
X1032375D1*
X1593018D2*
X1649436D1*
X524357Y1870276D2*
X689239D1*
X832559D2*
X1032375D1*
X1596824D2*
X1649436D1*
X524357Y1866470D2*
X690407D1*
X832559D2*
X1032375D1*
X1600643D2*
X1649436D1*
X524304Y1862664D2*
X691640D1*
X832559D2*
X1032375D1*
X1604396D2*
X1649436D1*
X524304Y1858858D2*
X692808D1*
X867126D2*
X1032375D1*
X1608215D2*
X1649436D1*
X524304Y1855052D2*
X694042D1*
X867126D2*
X1032375D1*
X1612021D2*
X1649370D1*
X524239Y1851247D2*
X695210D1*
X867126D2*
X1032375D1*
X1615840D2*
X1649370D1*
X524239Y1847441D2*
X696430D1*
X867126D2*
X1032375D1*
X1619646D2*
X1649370D1*
X524173Y1843635D2*
X697598D1*
X867126D2*
X1032375D1*
X1623465D2*
X1649370D1*
X524173Y1839829D2*
X698832D1*
X867126D2*
X966365D1*
X1626417D2*
X1649370D1*
X524121Y1836024D2*
X700066D1*
X867126D2*
X966365D1*
X1628268D2*
X1649370D1*
X524121Y1832218D2*
X701234D1*
X867126D2*
X966365D1*
X1629304D2*
X1649370D1*
X524055Y1828412D2*
X702467D1*
X867126D2*
X966365D1*
X1629672D2*
X1649318D1*
X524055Y1824606D2*
X703635D1*
X867126D2*
X966365D1*
X1629672D2*
X1649318D1*
X524055Y1820801D2*
X704869D1*
X868661D2*
X966365D1*
X1629672D2*
X1649318D1*
X523990Y1816995D2*
X706037D1*
X872480D2*
X966365D1*
X1629672D2*
X1649318D1*
X523990Y1813189D2*
X707257D1*
X876234D2*
X966365D1*
X1629672D2*
X1649318D1*
X523937Y1809383D2*
X708425D1*
X880052D2*
X966365D1*
X1629672D2*
X1649318D1*
X523937Y1805577D2*
X709659D1*
X883858D2*
X966365D1*
X1629672D2*
X1649318D1*
X523871Y1801772D2*
X710341D1*
X938793D2*
X966365D1*
X1629672D2*
X1649252D1*
X523871Y1797966D2*
X710341D1*
X943228D2*
X966365D1*
X1629672D2*
X1649252D1*
X523806Y1794160D2*
X710341D1*
X947034D2*
X966365D1*
X1629672D2*
X1649252D1*
X523806Y1790354D2*
X710341D1*
X950853D2*
X966365D1*
X1629672D2*
X1649252D1*
X523806Y1786549D2*
X710341D1*
X954606D2*
X966365D1*
X1629672D2*
X1649252D1*
X523753Y1782743D2*
X710341D1*
X958425D2*
X966365D1*
X1629672D2*
X1649252D1*
X523753Y1778937D2*
X710341D1*
X1629672D2*
X1649252D1*
X523688Y1775131D2*
X710341D1*
X1629672D2*
X1649186D1*
X523688Y1771325D2*
X710341D1*
X1629672D2*
X1649186D1*
X523622Y1767520D2*
X710341D1*
X1629672D2*
X1649186D1*
X523622Y1763714D2*
X710341D1*
X1141365D2*
X1182598D1*
X1629672D2*
X1649186D1*
X523570Y1759908D2*
X710341D1*
X1145184D2*
X1182598D1*
X1629672D2*
X1649186D1*
X523570Y1756102D2*
X710341D1*
X1148990D2*
X1182598D1*
X1629672D2*
X1649186D1*
X523570Y1752297D2*
X710341D1*
X1152808D2*
X1182598D1*
X1399055D2*
X1422940D1*
X1629672D2*
X1649134D1*
X523504Y1748491D2*
X710341D1*
X1156627D2*
X1182598D1*
X1399055D2*
X1420420D1*
X1629672D2*
X1649134D1*
X523504Y1744685D2*
X710341D1*
X1170827D2*
X1182598D1*
X1399055D2*
X1418819D1*
X1629672D2*
X1649134D1*
X523438Y1740879D2*
X710341D1*
X1170827D2*
X1182598D1*
X1399055D2*
X1418018D1*
X1629672D2*
X1649134D1*
X523438Y1737073D2*
X771299D1*
X1170827D2*
X1182598D1*
X1399055D2*
X1417835D1*
X1629672D2*
X1649134D1*
X523373Y1733268D2*
X771299D1*
X1170827D2*
X1182598D1*
X1399055D2*
X1417835D1*
X1629672D2*
X1649134D1*
X523373Y1729462D2*
X771299D1*
X1170827D2*
X1182598D1*
X1399055D2*
X1417835D1*
X1629672D2*
X1649134D1*
X523320Y1725656D2*
X771299D1*
X1170827D2*
X1182598D1*
X1399055D2*
X1417835D1*
X1629672D2*
X1649068D1*
X523320Y1721850D2*
X771299D1*
X1170827D2*
X1240971D1*
X1399055D2*
X1417835D1*
X1629672D2*
X1649068D1*
X523320Y1718045D2*
X771299D1*
X1170827D2*
X1240971D1*
X1399055D2*
X1417835D1*
X1629672D2*
X1649068D1*
X523255Y1714239D2*
X612835D1*
X651890D2*
X771299D1*
X1170827D2*
X1202100D1*
X1399055D2*
X1417835D1*
X1629672D2*
X1649068D1*
X523255Y1710433D2*
X587979D1*
X676732D2*
X771299D1*
X1170827D2*
X1196929D1*
X1399055D2*
X1417835D1*
X1629672D2*
X1649068D1*
X523189Y1706627D2*
X567493D1*
X697218D2*
X771299D1*
X1170827D2*
X1193176D1*
X1399055D2*
X1417835D1*
X1629672D2*
X1649068D1*
X523189Y1702822D2*
X559751D1*
X704908D2*
X771299D1*
X1170827D2*
X1189357D1*
X1399055D2*
X1417835D1*
X1629672D2*
X1649068D1*
X523136Y1699016D2*
X552060D1*
X712664D2*
X771299D1*
X1399055D2*
X1417835D1*
X1629672D2*
X1649003D1*
X523136Y1695210D2*
X544304D1*
X720354D2*
X771299D1*
X1399055D2*
X1417835D1*
X1629672D2*
X1649003D1*
X523071Y1691404D2*
X536614D1*
X728110D2*
X771299D1*
X1399055D2*
X1417887D1*
X1629672D2*
X1649003D1*
X523071Y1687598D2*
X528871D1*
X1399055D2*
X1418504D1*
X1629672D2*
X1649003D1*
X1399055Y1683793D2*
X1419856D1*
X1629672D2*
X1649003D1*
X1399055Y1679987D2*
X1422139D1*
X1629672D2*
X1649003D1*
X1399055Y1676181D2*
X1425525D1*
X1629672D2*
X1649003D1*
X1399055Y1672375D2*
X1425525D1*
X1629672D2*
X1648950D1*
X1399055Y1668570D2*
X1425525D1*
X1629672D2*
X1648950D1*
X1399055Y1664764D2*
X1425525D1*
X1629672D2*
X1648950D1*
X1399055Y1660958D2*
X1425525D1*
X1629672D2*
X1648950D1*
X1399055Y1657152D2*
X1425525D1*
X1629672D2*
X1648950D1*
X1399055Y1653346D2*
X1425525D1*
X1629672D2*
X1648950D1*
X1399055Y1649541D2*
X1425525D1*
X1629672D2*
X1648950D1*
X1399055Y1645735D2*
X1425525D1*
X1629672D2*
X1648885D1*
X1399055Y1641929D2*
X1425525D1*
X1629672D2*
X1648885D1*
X1399055Y1638123D2*
X1425525D1*
X1629672D2*
X1648885D1*
X1399055Y1634318D2*
X1425525D1*
X1629672D2*
X1648885D1*
X1399055Y1630512D2*
X1425525D1*
X1629672D2*
X1648885D1*
X1399055Y1626706D2*
X1425525D1*
X1629672D2*
X1648885D1*
X1399055Y1622900D2*
X1425525D1*
X1629672D2*
X1648819D1*
X1399055Y1619094D2*
X1425525D1*
X1629672D2*
X1648819D1*
X1399055Y1615289D2*
X1425525D1*
X1629672D2*
X1648819D1*
X1399055Y1611483D2*
X1425525D1*
X1629672D2*
X1648819D1*
X1399055Y1607677D2*
X1425525D1*
X1629672D2*
X1648819D1*
X1399055Y1603871D2*
X1423858D1*
X1629672D2*
X1648819D1*
X1399055Y1600066D2*
X1420039D1*
X1629672D2*
X1648819D1*
X1367559Y1596260D2*
X1416234D1*
X1629672D2*
X1648766D1*
X1629672Y1592454D2*
X1648766D1*
X1629672Y1588648D2*
X1648766D1*
X1629672Y1584843D2*
X1648766D1*
X1629672Y1581037D2*
X1648766D1*
X1629672Y1577231D2*
X1648766D1*
X1629672Y1573425D2*
X1648766D1*
X1629672Y1569619D2*
X1648701D1*
X1629672Y1565814D2*
X1648701D1*
X1629672Y1562008D2*
X1648701D1*
X1629672Y1558202D2*
X1648701D1*
X1629672Y1554396D2*
X1648701D1*
X1629672Y1550591D2*
X1648701D1*
X1629672Y1546785D2*
X1648701D1*
X1629672Y1542979D2*
X1648635D1*
X1629672Y1539173D2*
X1648635D1*
X1629672Y1535367D2*
X1648635D1*
X1629672Y1531562D2*
X1648635D1*
X1629672Y1527756D2*
X1648635D1*
X1629672Y1523950D2*
X1648635D1*
X1629672Y1520144D2*
X1648635D1*
X1629672Y1516339D2*
X1648570D1*
X1629672Y1512533D2*
X1648570D1*
X1629672Y1508727D2*
X1648570D1*
X1629672Y1504921D2*
X1648570D1*
X1629488Y1501115D2*
X1648570D1*
X1628635Y1497310D2*
X1648570D1*
X1626969Y1493504D2*
X1648570D1*
X1624383Y1489698D2*
X1648517D1*
X1620630Y1485892D2*
X1648517D1*
X1616824Y1482087D2*
X1648517D1*
X1613005Y1478281D2*
X1648517D1*
X1609199Y1474475D2*
X1648517D1*
X1605446Y1470669D2*
X1648517D1*
X1601627Y1466864D2*
X1648451D1*
X1597808Y1463058D2*
X1648451D1*
X1594003Y1459252D2*
X1648451D1*
X1590184Y1455446D2*
X1648451D1*
X1586365Y1451640D2*
X1648451D1*
X1582559Y1447835D2*
X1648451D1*
X1577822Y1444029D2*
X1648451D1*
X1570249Y1440223D2*
X1648386D1*
X1570249Y1436417D2*
X1648386D1*
X1570249Y1432612D2*
X1648386D1*
X1420407Y1428806D2*
X1648386D1*
X1396654Y1425000D2*
X1648386D1*
X1156811Y1421194D2*
X1318425D1*
X1372848D2*
X1648386D1*
X1156811Y1417388D2*
X1323963D1*
X1349042D2*
X1648386D1*
X1156811Y1413583D2*
X1648333D1*
X1156811Y1409777D2*
X1648333D1*
X1156811Y1405971D2*
X1648333D1*
X1138963Y1402165D2*
X1648333D1*
X1138963Y1398360D2*
X1648333D1*
X1138963Y1394554D2*
X1648333D1*
X832178Y1860512D2*
X866759D1*
Y1822310D1*
X883609Y1805472D1*
X928215Y1805381D1*
X932087Y1804685D1*
X935774Y1803294D1*
X939147Y1801286D1*
X942139Y1798648D1*
X960341Y1780472D1*
X966759Y1780459D1*
X966745Y1840512D1*
X1032756D1*
X1032743Y1904514D1*
X1044619D1*
X1041168Y1904633D1*
X1026457D1*
X1026430Y1893766D1*
X959186D1*
Y1905643D1*
X947533Y1905577D1*
X932454D1*
X932428Y1903766D1*
X865184D1*
Y1924869D1*
X835433Y1954633D1*
X832178D1*
Y1927572D1*
X733438D1*
Y2018438D1*
X832178D1*
Y2002139D1*
X843333Y2002192D1*
X847244Y2002113D1*
X851115Y2001470D1*
X854843Y2000184D1*
X856181Y1999541D1*
X855499Y2000433D1*
X730669Y2125381D1*
X728438Y2128609D1*
X726811Y2132192D1*
X726299Y2133885D1*
X724501Y2135840D1*
X721260Y2138071D1*
X718241Y2140591D1*
X715446Y2143360D1*
X712927Y2146391D1*
X710682Y2149619D1*
X708753Y2153045D1*
X707126Y2156640D1*
X705840Y2160354D1*
X704895Y2164173D1*
X704291Y2168058D1*
X704055Y2171995D1*
X704160Y2175919D1*
X704633Y2179829D1*
X705459Y2183688D1*
X706614Y2187441D1*
X708123Y2191076D1*
X709948Y2194567D1*
X712073Y2197874D1*
X714488Y2200984D1*
X717192Y2203845D1*
X720131Y2206470D1*
X723294Y2208806D1*
X726654Y2210853D1*
X730197Y2212572D1*
X733871Y2213976D1*
X737664Y2215039D1*
X741522Y2215761D1*
X745446Y2216129D1*
X749383D1*
X753307Y2215787D1*
X757178Y2215092D1*
X760971Y2214042D1*
X764659Y2212651D1*
X768202Y2210945D1*
X771575Y2208911D1*
X774751Y2206588D1*
X777703Y2203990D1*
X780407Y2201129D1*
X782835Y2198031D1*
X785013Y2194685D1*
X787073Y2197874D1*
X789501Y2200984D1*
X792192Y2203845D1*
X795131Y2206470D1*
X798294Y2208806D1*
X801654Y2210853D1*
X805197Y2212572D1*
X808871Y2213976D1*
X812664Y2215039D1*
X816535Y2215761D1*
X820446Y2216129D1*
X824383D1*
X828307Y2215787D1*
X832178Y2215092D1*
X835971Y2214042D1*
X839659Y2212651D1*
X843202Y2210945D1*
X846575Y2208911D1*
X849751Y2206588D1*
X852703Y2203990D1*
X855407Y2201129D1*
X856916Y2199265D1*
X858255Y2200984D1*
X860945Y2203845D1*
X863885Y2206470D1*
X867047Y2208806D1*
X870407Y2210853D1*
X873950Y2212572D1*
X877625Y2213976D1*
X881417Y2215039D1*
X885289Y2215761D1*
X889199Y2216129D1*
X893136D1*
X897060Y2215787D1*
X900932Y2215092D1*
X904724Y2214042D1*
X908412Y2212651D1*
X911955Y2210945D1*
X915328Y2208911D1*
X918504Y2206588D1*
X921457Y2203990D1*
X924160Y2201129D1*
X926588Y2198031D1*
X928740Y2194738D1*
X930577Y2191260D1*
X932087Y2187625D1*
X933268Y2183871D1*
X934108Y2180026D1*
X934593Y2176115D1*
X934738Y2172717D1*
X934554Y2168780D1*
X934016Y2164882D1*
X933136Y2161050D1*
X931916Y2157310D1*
X930354Y2153688D1*
X928465Y2150236D1*
X926286Y2146955D1*
X923806Y2143898D1*
X921076Y2141076D1*
X918084Y2138504D1*
X915039Y2136325D1*
X915052Y2132546D1*
X955932Y2132507D1*
X1012887D1*
X1012861Y2169357D1*
X1353412D1*
Y2164501D1*
X1386864Y2164514D1*
Y2125814D1*
X1388556Y2122887D1*
X1389948Y2119199D1*
X1390643Y2115341D1*
X1390735Y2107454D1*
Y2078963D1*
X1402428Y2078950D1*
Y2054764D1*
X1404764Y2054738D1*
X1408635Y2054042D1*
X1412323Y2052651D1*
X1415696Y2050643D1*
X1418701Y2048005D1*
X1622861Y1843845D1*
X1625381Y1840827D1*
X1627323Y1837415D1*
X1628622Y1833701D1*
X1629239Y1829816D1*
X1629291Y1822428D1*
X1629199Y1502047D1*
X1628504Y1498176D1*
X1627113Y1494488D1*
X1625105Y1491115D1*
X1622467Y1488110D1*
X1581745Y1447375D1*
X1578727Y1444856D1*
X1575315Y1442913D1*
X1571601Y1441614D1*
X1569869Y1441273D1*
X1569856Y1429265D1*
X1498675Y1429331D1*
X1497021Y1429265D1*
X1431745D1*
X1431719Y1430669D1*
X1335223Y1415315D1*
X1331286Y1415407D1*
X1327441Y1416194D1*
X1323793Y1417664D1*
X1320472Y1419764D1*
X1317572Y1422428D1*
X1316325Y1423950D1*
X1314199Y1424987D1*
X1227887D1*
X1227861Y1423268D1*
X1156680Y1423333D1*
X1156995Y1423268D1*
X1156444D1*
X1156457Y1405236D1*
X1138556D1*
X1138609Y1396207D1*
Y1394291D1*
X1182152Y1394108D1*
X1648701Y1391811D1*
X1650656Y2216601D1*
X453806D1*
Y2002467D1*
X456010Y2002690D1*
X459934Y2002480D1*
X463753Y2001562D1*
X467362Y1999974D1*
X513530Y1973871D1*
X516772Y1971640D1*
X519554Y1968858D1*
X521785Y1965630D1*
X523412Y1962047D1*
X524357Y1958228D1*
X524606Y1954304D1*
X522664Y1684383D1*
X568215Y1706811D1*
X570039Y1707533D1*
X571654Y1707887D1*
X630564Y1716916D1*
X632520Y1717047D1*
X634134Y1716916D1*
X693058Y1707887D1*
X694961Y1707428D1*
X696483Y1706811D1*
X733622Y1688504D1*
X766273Y1688543D1*
X771745D1*
X771680Y1692979D1*
Y1737336D1*
X762244Y1737270D1*
X710748D1*
X710735Y1803333D1*
X684987Y1884659D1*
X492310Y2077454D1*
X490026Y2080656D1*
X488307Y2084186D1*
X487192Y2087953D1*
X486706Y2091864D1*
X486680Y2136063D1*
X483753Y2138071D1*
X480722Y2140591D1*
X477940Y2143360D1*
X475420Y2146391D1*
X473176Y2149619D1*
X471247Y2153045D1*
X469619Y2156640D1*
X468333Y2160354D1*
X467388Y2164173D1*
X466785Y2168058D1*
X466549Y2171995D1*
X466654Y2175919D1*
X467126Y2179829D1*
X467940Y2183688D1*
X469108Y2187441D1*
X470604Y2191076D1*
X472428Y2194567D1*
X474567Y2197874D1*
X476982Y2200984D1*
X479672Y2203845D1*
X482612Y2206470D1*
X485787Y2208806D1*
X489147Y2210853D1*
X492677Y2212572D1*
X496365Y2213976D1*
X500144Y2215039D1*
X504016Y2215761D1*
X507940Y2216129D1*
X511877D1*
X515787Y2215787D1*
X519672Y2215092D1*
X523465Y2214042D1*
X527139Y2212651D1*
X530682Y2210945D1*
X534055Y2208911D1*
X537231Y2206588D1*
X540184Y2203990D1*
X542887Y2201129D1*
X545328Y2198031D1*
X547467Y2194738D1*
X549318Y2191260D1*
X550827Y2187625D1*
X552008Y2183871D1*
X552848Y2180026D1*
X553333Y2176115D1*
X553465Y2172717D1*
X553294Y2168780D1*
X552756Y2164882D1*
X551877Y2161050D1*
X550643Y2157310D1*
X549081Y2153688D1*
X547205Y2150236D1*
X545013Y2146955D1*
X542546Y2143898D1*
X539803Y2141076D1*
X536824Y2138504D1*
X534173Y2136601D1*
X534239Y2127441D1*
Y2102677D1*
X719147Y1917769D1*
X733806Y1916024D1*
X789108Y1909186D1*
X791037Y1908661D1*
X792493Y1908202D1*
X832178D1*
Y1860525D1*
X1158727Y1745945D2*
X1170420D1*
Y1700853D1*
X1187756D1*
X1198740Y1711732D1*
X1201982Y1713963D1*
X1205551Y1715591D1*
X1209370Y1716562D1*
X1213360Y1716811D1*
X1249278Y1716824D1*
X1249226Y1717808D1*
X1241352D1*
Y1723031D1*
X1231247Y1723084D1*
X1182992D1*
Y1765459D1*
X1158530Y1765420D1*
X1139278D1*
X1158766Y1745945D1*
X1402428Y1954501D2*
Y1940840D1*
X1353399D1*
X1353412Y1915420D1*
X1340315D1*
X1340381Y1908885D1*
Y1904633D1*
X1324449D1*
X1355236Y1884068D1*
X1355184Y1895328D1*
Y1938950D1*
X1422428D1*
Y1923871D1*
X1425512Y1922441D1*
X1428753Y1920197D1*
X1434383Y1914685D1*
X1440787Y1908294D1*
X1443806Y1909580D1*
X1447585Y1910696D1*
X1451273Y1911352D1*
X1413373Y1949291D1*
X1408202Y1954475D1*
X1402441Y1954488D1*
X1398635Y1681824D2*
X1398648Y1596864D1*
X1367218D1*
X1367192Y1592874D1*
X1413268D1*
X1425906Y1605538D1*
X1425879Y1676404D1*
X1424199Y1677979D1*
X1421772Y1681063D1*
X1419921Y1684528D1*
X1418740Y1688281D1*
X1418228Y1692178D1*
X1418215Y1738255D1*
X1418570Y1742178D1*
X1419619Y1745971D1*
X1421339Y1749501D1*
X1423661Y1752677D1*
X1423924Y1752953D1*
X1424278Y1754003D1*
X1398635D1*
X1398648Y1681509D1*
X1398583D1*
D21*
X510000Y2172717D3*
D22*
X858661Y2430735D3*
Y2497664D3*
D23*
X1300564Y1752415D3*
D22*
X809160Y2870630D3*
Y2937559D3*
D24*
X954829Y2701339D3*
X1021759D3*
D25*
X1095105Y2546129D3*
D24*
X970197Y2426194D3*
X1037126D3*
D22*
X1253661Y2545656D3*
Y2478727D3*
D24*
X1118202Y2666194D3*
X1185131D3*
X569199Y2365197D3*
X636129D3*
X1058438Y1442887D3*
D22*
X1230801Y1575249D3*
D26*
X836286Y3088701D3*
D24*
X1069265Y1806890D3*
X1002336D3*
D22*
X1368806Y2043360D3*
Y1976430D3*
D27*
X1381155Y1488294D3*
D22*
X992808Y1862428D3*
Y1929357D3*
X898806Y1872428D3*
Y1939357D3*
X1388806Y1836430D3*
Y1903360D3*
D24*
X1284344Y2130892D3*
X1351273D3*
X1201273Y2134633D3*
X1134344D3*
D28*
X1231207Y1808885D3*
X1156404D3*
D25*
X1024357Y1580958D3*
D23*
X1289042Y1931365D3*
D21*
X747507Y2172717D3*
D15*
X634908Y1511877D3*
D21*
X666260Y2172717D3*
D28*
X838688Y2803701D3*
X763885D3*
X1126260Y2748202D3*
X1201063D3*
D29*
X913281Y1508648D3*
D24*
X1495446Y1804895D3*
D30*
X491916Y3105197D3*
D31*
X625682Y581391D3*
D21*
X1362336Y3100932D3*
D30*
X1635656Y2605197D3*
X1610577Y2867861D3*
X500761Y3285407D3*
X1640525Y3261785D3*
X494514Y4033740D3*
D31*
X1479409Y3361693D3*
D30*
X1638268Y3533740D3*
X1613189Y3796404D3*
X1604331Y505118D3*
X464567Y481483D3*
X1610577Y1253438D3*
X466824Y753438D3*
X491903Y1016102D3*
D21*
X1598556Y3100932D3*
X1519816D3*
X1441076D3*
D30*
X817060Y2600971D3*
X535564Y2819475D3*
X716667Y2364751D3*
X1021785Y2551759D3*
X498163Y2356877D3*
X1637927Y2333255D3*
X466798Y1411391D3*
X1616798Y2180144D3*
D15*
X1476798Y2433150D3*
D30*
X1610551Y1430144D3*
X473058Y1680144D3*
X491798Y1942638D3*
D22*
X666286Y2692677D3*
Y2625748D3*
X748294Y2692677D3*
Y2625748D3*
X586286Y2692677D3*
Y2625748D3*
D24*
X913202Y2483202D3*
X980131D3*
D28*
X1156063Y2609199D3*
X1081260D3*
X1098255Y2404199D3*
X1173058D3*
D22*
X742231Y2941496D3*
Y2874567D3*
X628058Y2862756D3*
Y2795827D3*
D24*
X813268Y1770892D3*
X746339D3*
D22*
X802808Y1629357D3*
Y1562428D3*
D24*
X1534265Y1462887D3*
X1467336D3*
X807270Y1708885D3*
X740341D3*
D22*
X1136798Y1643425D3*
Y1710354D3*
D24*
X1203268Y1520892D3*
X1136339D3*
X1532270Y1531890D3*
X1465341D3*
X1236339Y1872887D3*
X1303268D3*
X1068333Y1870892D3*
X1135262D3*
X831168Y1826890D3*
X920341Y1990892D3*
X987270D3*
X918333Y2042887D3*
X985262D3*
X920341Y2098885D3*
X987270D3*
X1192270Y1456890D3*
X1125341D3*
D21*
X891260Y2172717D3*
D32*
X1455774Y1876050D3*
X1329790Y1816995D3*
X1180801Y1596890D3*
X932808Y1434895D3*
X861286Y1748097D3*
D21*
X822520Y2172717D3*
D22*
X683176Y2848976D3*
D26*
X1515853Y2917874D3*
D33*
X929278Y3014370D3*
Y2924409D3*
Y2834449D3*
D34*
X1214711Y2915945D3*
D21*
X591260Y2172717D3*
D35*
X776024Y2416194D3*
Y2466194D3*
Y2516194D3*
Y2566194D3*
X571299D3*
Y2516194D3*
Y2466194D3*
Y2416194D3*
D22*
X683176Y2915906D3*
D25*
X1095105Y2508727D3*
Y2471339D3*
X1179751D3*
Y2546129D3*
D26*
X1405617Y2917874D3*
X726050Y3088701D3*
D23*
X1300564Y1702415D3*
Y1652415D3*
Y1602415D3*
X1521037D3*
Y1652415D3*
Y1702415D3*
Y1752415D3*
D36*
X1374869Y1639331D3*
X1412270D3*
X1449659D3*
Y1723976D3*
X1374869D3*
D24*
X1428517Y1804895D3*
D22*
X1230801Y1642178D3*
D27*
X1381155Y1539488D3*
X1300446Y1513898D3*
D37*
X782808Y1862769D3*
Y1973005D3*
D24*
X898097Y1826890D3*
X991509Y1442887D3*
D25*
X1024357Y1618360D3*
Y1655748D3*
X939711D3*
Y1580958D3*
D29*
X963281Y1508648D3*
X1013281D3*
X1063281D3*
Y1729121D3*
X1013281D3*
X963281D3*
X913281D3*
D22*
X854803Y1563255D3*
Y1630184D3*
D23*
X1289042Y1981365D3*
Y2031365D3*
Y2081365D3*
X1068570D3*
Y2031365D3*
Y1981365D3*
Y1931365D3*
G36*
X624147Y2439554D2*
X692454Y2506772D1*
X673360Y2421837D1*
X624147Y2439554D1*
G37*
G36*
X848556Y3099003D2*
X921391Y3016325D1*
X962730Y3049790D1*
X848556Y3099003D1*
G37*
G36*
X1443045Y3106877D2*
X1517848D1*
X1480446Y3061601D1*
X1443045Y3106877D1*
G37*
G36*
X887927Y2758451D2*
X927297Y2789948D1*
X954856Y2752546D1*
Y2719081D1*
X887927Y2758451D1*
G37*
G36*
X703806Y1897703D2*
X739239Y1785499D1*
X784514Y1887861D1*
X703806Y1897703D1*
G37*
G36*
X1447900Y1618176D2*
Y1667388D1*
X1503018Y1655577D1*
X1447900Y1618176D1*
G37*
G36*
X1243018Y1819003D2*
X1308806Y1888885D1*
X1416247Y1817034D1*
X1243018Y1819003D1*
G37*
G36*
X1333727Y1437073D2*
X1384908Y1490223D1*
X1432152Y1452822D1*
X1333727Y1437073D1*
G37*
G36*
X1440026Y1738255D2*
X1483333Y1696916D1*
X1440026Y1692979D1*
Y1738255D1*
G37*
G36*
X450801Y1794895D2*
X468806D1*
Y1396890D1*
X450801D1*
Y1794895D1*
G37*
G36*
X451798Y1405892D2*
X1116798D1*
Y1393885D1*
X451798D1*
Y1405892D1*
G37*
G36*
X456798Y1624895D2*
X500801Y1676890D1*
X502808Y1954895D1*
X456798Y1980892D1*
Y1624895D1*
G37*
G36*
X826798Y1436890D2*
X792808Y1396890D1*
X908806D1*
X888806Y1436890D1*
X826798D1*
G37*
G36*
X1204803Y1800892D2*
X1248806D1*
Y1744895D1*
X1204803D1*
Y1800892D1*
G37*
X912425Y3653014D2*
D75*
X907672Y3650637D1*
X902864Y3645829D1*
X900487Y3638644D1*
Y3633891D1*
X902864Y3626706D1*
X907672Y3621952D1*
X912425Y3619520D1*
X919610D1*
X924419Y3621952D1*
X929172Y3626706D1*
X931604Y3633891D1*
Y3638644D1*
X929172Y3645829D1*
X924419Y3650637D1*
X919610Y3653014D1*
X912425D1*
X947043D2*
Y3602774D1*
Y3645829D2*
X951852Y3650582D1*
X956605Y3653014D1*
X963790D1*
X968598Y3650582D1*
X973351Y3645829D1*
X975783Y3638644D1*
Y3633835D1*
X973351Y3626706D1*
X968598Y3621897D1*
X963790Y3619520D1*
X956605D1*
X951852Y3621897D1*
X947043Y3626706D1*
X991223Y3638644D2*
X1019907D1*
Y3643452D1*
X1017531Y3648261D1*
X1015154Y3650637D1*
X1010346Y3653014D1*
X1003161D1*
X998408Y3650637D1*
X993599Y3645829D1*
X991223Y3638644D1*
Y3633891D1*
X993599Y3626706D1*
X998408Y3621952D1*
X1003161Y3619520D1*
X1010346D1*
X1015154Y3621952D1*
X1019907Y3626706D1*
X1035347Y3653014D2*
Y3619520D1*
Y3643452D2*
X1042532Y3650637D1*
X1047340Y3653014D1*
X1054470D1*
X1059278Y3650637D1*
X1061655Y3643452D1*
Y3619520D1*
X1112964Y3657822D2*
X1110588Y3662575D1*
X1105779Y3667384D1*
X1101026Y3669760D1*
X1091464D1*
X1086656Y3667384D1*
X1081903Y3662575D1*
X1079471Y3657822D1*
X1077094Y3650637D1*
Y3638644D1*
X1079471Y3631514D1*
X1081903Y3626706D1*
X1086656Y3621952D1*
X1091464Y3619520D1*
X1101026D1*
X1105779Y3621952D1*
X1110588Y3626706D1*
X1112964Y3631514D1*
X1152335Y3619520D2*
Y3669705D1*
X1128403Y3636267D1*
X1164273D1*
X1179713Y3669760D2*
Y3619520D1*
X1196459D1*
X1203644Y3621952D1*
X1208453Y3626706D1*
X1210829Y3631514D1*
X1213206Y3638644D1*
Y3650637D1*
X1210829Y3657822D1*
X1208453Y3662575D1*
X1203644Y3667384D1*
X1196459Y3669760D1*
X1179713D1*
X1277246Y3653014D2*
X1291616Y3619520D1*
X1305931Y3653014D1*
X1323802Y3657767D2*
Y3660144D1*
X1326179Y3664952D1*
X1328555Y3667329D1*
X1333364Y3669705D1*
X1342925D1*
X1347679Y3667329D1*
X1350055Y3664952D1*
X1352487Y3660144D1*
Y3655390D1*
X1350055Y3650582D1*
X1345302Y3643452D1*
X1321370Y3619520D1*
X1354864D1*
X919945Y897725D2*
X915192Y895348D1*
X910383Y890540D1*
X908007Y883355D1*
Y878602D1*
X910383Y871417D1*
X915192Y866664D1*
X919945Y864232D1*
X927130D1*
X931939Y866664D1*
X936692Y871417D1*
X939124Y878602D1*
Y883355D1*
X936692Y890540D1*
X931939Y895348D1*
X927130Y897725D1*
X919945D1*
X954563D2*
Y847485D1*
Y890540D2*
X959371Y895293D1*
X964124Y897725D1*
X971309D1*
X976118Y895293D1*
X980871Y890540D1*
X983303Y883355D1*
Y878547D1*
X980871Y871417D1*
X976118Y866608D1*
X971309Y864232D1*
X964124D1*
X959371Y866608D1*
X954563Y871417D1*
X998742Y883355D2*
X1027427D1*
Y888163D1*
X1025050Y892972D1*
X1022674Y895348D1*
X1017865Y897725D1*
X1010680D1*
X1005927Y895348D1*
X1001119Y890540D1*
X998742Y883355D1*
Y878602D1*
X1001119Y871417D1*
X1005927Y866664D1*
X1010680Y864232D1*
X1017865D1*
X1022674Y866664D1*
X1027427Y871417D1*
X1042866Y897725D2*
Y864232D1*
Y888163D2*
X1050051Y895348D1*
X1054860Y897725D1*
X1061990D1*
X1066798Y895348D1*
X1069175Y888163D1*
Y864232D1*
X1120484Y902534D2*
X1118107Y907287D1*
X1113299Y912095D1*
X1108546Y914472D1*
X1098984D1*
X1094175Y912095D1*
X1089422Y907287D1*
X1086990Y902534D1*
X1084614Y895348D1*
Y883355D1*
X1086990Y876225D1*
X1089422Y871417D1*
X1094175Y866664D1*
X1098984Y864232D1*
X1108546D1*
X1113299Y866664D1*
X1118107Y871417D1*
X1120484Y876225D1*
X1159855Y864232D2*
Y914416D1*
X1135923Y880978D1*
X1171793D1*
X1187232Y914472D2*
Y864232D1*
X1203979D1*
X1211164Y866664D1*
X1215972Y871417D1*
X1218349Y876225D1*
X1220726Y883355D1*
Y895348D1*
X1218349Y902534D1*
X1215972Y907287D1*
X1211164Y912095D1*
X1203979Y914472D1*
X1187232D1*
X1284766Y897725D2*
X1299136Y864232D1*
X1313451Y897725D1*
X1331322Y902478D2*
Y904855D1*
X1333698Y909663D1*
X1336075Y912040D1*
X1340883Y914416D1*
X1350445D1*
X1355198Y912040D1*
X1357575Y909663D1*
X1360007Y904855D1*
Y900102D1*
X1357575Y895293D1*
X1352822Y888163D1*
X1328890Y864232D1*
X1362383D1*
M02*
