G04 DipTrace 3.3.1.3*
G04 TopMask.gbr*
%MOIN*%
G04 #@! TF.FileFunction,Soldermask,Top*
G04 #@! TF.Part,Single*
%ADD40C,0.027559*%
%ADD42R,0.07874X0.070866*%
%ADD44R,0.027559X0.064961*%
%ADD46R,0.094488X0.031496*%
%ADD48R,0.251969X0.220472*%
%ADD50R,0.070866X0.047244*%
%ADD52C,0.051181*%
%ADD54C,0.106299*%
%ADD56C,0.050866*%
%ADD58R,0.033465X0.082677*%
%ADD60R,0.059055X0.066929*%
%ADD62R,0.049213X0.03937*%
%ADD64R,0.070866X0.07874*%
%ADD66R,0.064961X0.027559*%
%ADD68R,0.051181X0.047244*%
%ADD70R,0.082677X0.033465*%
%ADD72R,0.047244X0.051181*%
%ADD74C,0.066929*%
%FSLAX26Y26*%
G04*
G70*
G90*
G75*
G01*
G04 TopMask*
%LPD*%
D74*
X510000Y2172717D3*
D72*
X858661Y2430735D3*
Y2497664D3*
D70*
X1300564Y1752415D3*
D72*
X809160Y2870630D3*
Y2937559D3*
D68*
X954829Y2701339D3*
X1021759D3*
D66*
X1095105Y2546129D3*
D68*
X970197Y2426194D3*
X1037126D3*
D72*
X1253661Y2545656D3*
Y2478727D3*
D68*
X1118202Y2666194D3*
X1185131D3*
X569199Y2365197D3*
X636129D3*
X1058438Y1442887D3*
D72*
X1230801Y1575249D3*
D64*
X836286Y3088701D3*
D68*
X1069265Y1806890D3*
X1002336D3*
D72*
X1368806Y2043360D3*
Y1976430D3*
D62*
X1381155Y1488294D3*
D72*
X992808Y1862428D3*
Y1929357D3*
X898806Y1872428D3*
Y1939357D3*
X1388806Y1836430D3*
Y1903360D3*
D68*
X1284344Y2130892D3*
X1351273D3*
X1201273Y2134633D3*
X1134344D3*
D60*
X1231207Y1808885D3*
X1156404D3*
D66*
X1024357Y1580958D3*
D70*
X1289042Y1931365D3*
D74*
X747507Y2172717D3*
D40*
X634908Y1511877D3*
D74*
X666260Y2172717D3*
D60*
X838688Y2803701D3*
X763885D3*
X1126260Y2748202D3*
X1201063D3*
D58*
X913281Y1508648D3*
D68*
X1495446Y1804895D3*
D56*
X491916Y3105197D3*
D54*
X625682Y581391D3*
D74*
X1362336Y3100932D3*
D56*
X1635656Y2605197D3*
X1610577Y2867861D3*
X500761Y3285407D3*
X1640525Y3261785D3*
X494514Y4033740D3*
D54*
X1479409Y3361693D3*
D56*
X1638268Y3533740D3*
X1613189Y3796404D3*
X1604331Y505118D3*
X464567Y481483D3*
X1610577Y1253438D3*
X466824Y753438D3*
X491903Y1016102D3*
D74*
X1598556Y3100932D3*
X1519816D3*
X1441076D3*
D56*
X817060Y2600971D3*
X535564Y2819475D3*
X716667Y2364751D3*
X1021785Y2551759D3*
X498163Y2356877D3*
X1637927Y2333255D3*
X466798Y1411391D3*
X1616798Y2180144D3*
D40*
X1476798Y2433150D3*
D56*
X1610551Y1430144D3*
X473058Y1680144D3*
X491798Y1942638D3*
D72*
X666286Y2692677D3*
Y2625748D3*
X748294Y2692677D3*
Y2625748D3*
X586286Y2692677D3*
Y2625748D3*
D68*
X913202Y2483202D3*
X980131D3*
D60*
X1156063Y2609199D3*
X1081260D3*
X1098255Y2404199D3*
X1173058D3*
D72*
X742231Y2941496D3*
Y2874567D3*
X628058Y2862756D3*
Y2795827D3*
D68*
X813268Y1770892D3*
X746339D3*
D72*
X802808Y1629357D3*
Y1562428D3*
D68*
X1534265Y1462887D3*
X1467336D3*
X807270Y1708885D3*
X740341D3*
D72*
X1136798Y1643425D3*
Y1710354D3*
D68*
X1203268Y1520892D3*
X1136339D3*
X1532270Y1531890D3*
X1465341D3*
X1236339Y1872887D3*
X1303268D3*
X1068333Y1870892D3*
X1135262D3*
X831168Y1826890D3*
X920341Y1990892D3*
X987270D3*
X918333Y2042887D3*
X985262D3*
X920341Y2098885D3*
X987270D3*
X1192270Y1456890D3*
X1125341D3*
D74*
X891260Y2172717D3*
D52*
X1455774Y1876050D3*
X1329790Y1816995D3*
X1180801Y1596890D3*
X932808Y1434895D3*
X861286Y1748097D3*
D74*
X822520Y2172717D3*
D72*
X683176Y2848976D3*
D64*
X1515853Y2917874D3*
D50*
X929278Y3014370D3*
Y2924409D3*
Y2834449D3*
D48*
X1214711Y2915945D3*
D74*
X591260Y2172717D3*
D46*
X776024Y2416194D3*
Y2466194D3*
Y2516194D3*
Y2566194D3*
X571299D3*
Y2516194D3*
Y2466194D3*
Y2416194D3*
D72*
X683176Y2915906D3*
D66*
X1095105Y2508727D3*
Y2471339D3*
X1179751D3*
Y2546129D3*
D64*
X1405617Y2917874D3*
X726050Y3088701D3*
D70*
X1300564Y1702415D3*
Y1652415D3*
Y1602415D3*
X1521037D3*
Y1652415D3*
Y1702415D3*
Y1752415D3*
D44*
X1374869Y1639331D3*
X1412270D3*
X1449659D3*
Y1723976D3*
X1374869D3*
D68*
X1428517Y1804895D3*
D72*
X1230801Y1642178D3*
D62*
X1381155Y1539488D3*
X1300446Y1513898D3*
D42*
X782808Y1862769D3*
Y1973005D3*
D68*
X898097Y1826890D3*
X991509Y1442887D3*
D66*
X1024357Y1618360D3*
Y1655748D3*
X939711D3*
Y1580958D3*
D58*
X963281Y1508648D3*
X1013281D3*
X1063281D3*
Y1729121D3*
X1013281D3*
X963281D3*
X913281D3*
D72*
X854803Y1563255D3*
Y1630184D3*
D70*
X1289042Y1981365D3*
Y2031365D3*
Y2081365D3*
X1068570D3*
Y2031365D3*
Y1981365D3*
Y1931365D3*
M02*
