M48
;GenerationSoftware,Autodesk,EAGLE,9.6.2*%
;CreationDate,2021-10-28T16:18:14Z*%
FMAT,2
ICI,OFF
METRIC,TZ,000.000
T3C0.813
T2C0.914
T1C1.016
%
G90
M71
T1
X41275Y24765
X41275Y22225
X41275Y19685
X41275Y17145
X41275Y14605
X41275Y12065
X31750Y24765
X31750Y22225
X31750Y19685
X31750Y17145
X31750Y14605
X31750Y12065
X22225Y24765
X22225Y22225
X22225Y19685
X22225Y17145
X22225Y14605
X22225Y12065
X12700Y24765
X12700Y22225
X12700Y19685
X12700Y17145
X12700Y14605
X12700Y12065
X43815Y38735
X43815Y36195
X43815Y33655
X2540Y41910
X2540Y39370
X2540Y36830
X2540Y33020
X2540Y30480
X2540Y27940
X12852Y2464
X12852Y5004
X12852Y7544
X13970Y39370
X13970Y36830
X13970Y34290
X24130Y39370
X24130Y36830
X24130Y34290
X2540Y25400
X2540Y22860
X2540Y20320
X2540Y17780
X2540Y15240
X2540Y12700
X2540Y10160
X50800Y21590
X50800Y19050
X50800Y54610
X50800Y24130
X50800Y26670
X50800Y29210
X50800Y31750
X50800Y34290
X50800Y36830
X50800Y41910
X50800Y44450
X50800Y46990
X50800Y49530
X50800Y52070
X2540Y54610
X2540Y52070
X2540Y49530
X2540Y46990
X2540Y44450
T2
X42545Y50165
X13970Y52705
X13970Y50165
X11430Y52705
X11430Y50165
X42545Y52705
X21590Y52705
X21590Y50165
X19050Y52705
X19050Y50165
X16510Y52705
X16510Y50165
X40005Y52705
X40005Y50165
X37465Y52705
X37465Y50165
X34925Y52705
X34925Y50165
X32385Y52705
X32385Y50165
T3
X36830Y38608
X43815Y28575
X38735Y28575
X38735Y43180
X43815Y43180
X36830Y35052
X36830Y27305
X36830Y19685
X27305Y27305
X27305Y19685
X17780Y27305
X17780Y19685
X8255Y27940
X8255Y20320
M30